{
.appVersion = "3219";
DisplayStrings = (
"¡H¿H"
);
copyright = "Copyright 2023 The Hedvig Letters Project Authors (https://github.com/KanonFoundry/HedvigLetters)";
customParameters = (
{
name = "Use Typo Metrics";
value = 1;
},
{
name = fsType;
value = (
);
},
{
name = vendorID;
value = KNON;
},
{
name = license;
value = "This Font Software is licensed under the SIL Open Font License, Version 1.1. This license is available with a FAQ at: https://scripts.sil.org/OFL";
},
{
name = licenseURL;
value = "https://scripts.sil.org/OFL";
}
);
date = "2021-12-21 15:12:09 +0000";
designer = "Alexander Örn & Tor Weibull";
designerURL = "http://www.kanonfoundry.com";
familyName = "Hedvig Letters Sans";
featurePrefixes = (
{
automatic = 1;
code = "languagesystem DFLT dflt;\012\012languagesystem latn dflt;\012languagesystem latn AZE;\012languagesystem latn CRT;\012languagesystem latn KAZ;\012languagesystem latn TAT;\012languagesystem latn TRK;\012languagesystem latn ROM;\012languagesystem latn MOL;\012languagesystem latn NLD;\012languagesystem latn CAT;\012";
name = Languagesystems;
}
);
features = (
{
automatic = 1;
code = "feature locl;\012feature subs;\012feature sinf;\012feature sups;\012feature numr;\012feature dnom;\012feature frac;\012feature ordn;\012feature calt;\012feature ss01;\012feature case;\012";
name = aalt;
},
{
automatic = 1;
code = "lookup ccmp_Other_1 {\012	@CombiningTopAccents = [acutecomb brevecomb caroncomb circumflexcomb commaturnedabovecomb dieresiscomb dotaccentcomb gravecomb hungarumlautcomb macroncomb ringcomb tildecomb];\012	lookupflag UseMarkFilteringSet @CombiningTopAccents;\012	sub i' @CombiningTopAccents by idotless;\012	sub j' @CombiningTopAccents by jdotless;\012} ccmp_Other_1;\012";
name = ccmp;
},
{
automatic = 1;

glyphs = (
{
color = 6;
glyphname = A;
lastChange = "2023-09-29 08:46:29 +0000";
layers = (
{
anchors = (
{
name = bottom;
position = "{322, 0}";
},
{
name = ogonek;
position = "{626, 0}";
},
{
name = top;
position = "{319, 700}";
}
);
background = {
components = (
{
name = H;
transform = "{1, 0, 0, 1, -34, 0}";
}
);
};
layerId = m01;
paths = (
{
closed = 1;
nodes = (
"105 0 LINE",
"319 620 LINE",
"528 0 LINE",
"626 0 LINE",
"380 700 LINE",
"259 700 LINE",
"12 0 LINE"
);
},
{
closed = 1;
nodes = (
"474 245 LINE",
"474 317 LINE",
"154 317 LINE",
"154 245 LINE"
);
}
);
width = 638;
}
);
leftKerningGroup = A;
rightKerningGroup = A;
unicode = 0041;
},
{
color = 3;
glyphname = Adieresis;
lastChange = "2023-09-29 08:46:29 +0000";
layers = (
{
components = (
{
name = A;
},
{
name = dieresiscomb;
transform = "{1, 0, 0, 1, 33, 180}";
}
);
layerId = m01;
width = 638;
},
{
associatedMasterId = m01;
components = (
{
name = A;
}
);
layerId = "16FB9F43-3DD6-4155-B98A-CDB340C2194C";
name = "12 Oct 21, 11:10";
paths = (
{
closed = 1;
nodes = (
"236 747 OFFCURVE",
"260 772 OFFCURVE",
"260 803 CURVE SMOOTH",
"260 833 OFFCURVE",
"236 857 OFFCURVE",
"206 857 CURVE SMOOTH",
"175 857 OFFCURVE",
"151 833 OFFCURVE",
"151 803 CURVE SMOOTH",
"151 772 OFFCURVE",
"175 747 OFFCURVE",
"206 747 CURVE SMOOTH"
);
},
{
closed = 1;
nodes = (
"436 747 OFFCURVE",
"460 772 OFFCURVE",
"460 803 CURVE SMOOTH",
"460 833 OFFCURVE",
"436 857 OFFCURVE",
"406 857 CURVE SMOOTH",
"375 857 OFFCURVE",
"351 833 OFFCURVE",
"351 803 CURVE SMOOTH",
"351 772 OFFCURVE",
"375 747 OFFCURVE",
"406 747 CURVE SMOOTH"
);
}
);
width = 614;
}
);
leftKerningGroup = A;
rightKerningGroup = A;
unicode = 00C4;
},
{
color = 6;
glyphname = AE;
lastChange = "2023-09-29 08:46:29 +0000";
layers = (
{
anchors = (
{
name = bottom;
position = "{643, 0}";
},
{
name = top;
position = "{643, 700}";
}
);
guideLines = (
{
position = "{307, 245}";
}
);
layerId = m01;
paths = (
{
closed = 1;
nodes = (
"83 0 LINE",
"470 700 LINE",
"386 700 LINE",
"-17 0 LINE"
);
},
{
closed = 1;
nodes = (
"847 0 LINE",
"847 72 LINE",
"438 72 LINE",
"438 0 LINE"
);
},
{
closed = 1;
nodes = (
"528 0 LINE",
"528 700 LINE",
"438 700 LINE",
"438 0 LINE"
);
},
{
closed = 1;
nodes = (
"847 319 LINE",
"847 391 LINE",
"231 391 LINE",
"231 319 LINE"
);
},
{
closed = 1;
nodes = (
"847 628 LINE",
"847 700 LINE",
"438 700 LINE",
"448 628 LINE"
);
}
);
width = 911;
}
);
rightKerningGroup = E;
unicode = 00C6;
},
{
color = 6;
glyphname = B;
lastChange = "2023-09-29 08:46:29 +0000";
layers = (
{
anchors = (
{
name = bottom;
position = "{309, 0}";
},
{
name = top;
position = "{309, 700}";
}
);
background = {
components = (
{
name = H;
transform = "{1, 0, 0, 1, -5, 0}";
}
);
};
layerId = m01;
paths = (
{
closed = 1;
nodes = (
"368 0 LINE SMOOTH",
"498 0 OFFCURVE",
"579 74 OFFCURVE",
"579 189 CURVE SMOOTH",
"579 269 OFFCURVE",
"533 326 OFFCURVE",
"443 351 CURVE",
"535 378 OFFCURVE",
"579 436 OFFCURVE",
"579 519 CURVE SMOOTH",
"579 631 OFFCURVE",
"495 700 OFFCURVE",
"358 700 CURVE SMOOTH",
"130 700 LINE",
"130 628 LINE",
"343 628 LINE SMOOTH",
"436 628 OFFCURVE",
"482 588 OFFCURVE",
"482 507 CURVE SMOOTH",
"482 426 OFFCURVE",
"436 386 OFFCURVE",
"343 386 CURVE SMOOTH",
"130 386 LINE",
"130 314 LINE",
"343 314 LINE SMOOTH",
"436 314 OFFCURVE",
"482 277 OFFCURVE",
"482 197 CURVE SMOOTH",
"482 115 OFFCURVE",
"435 72 OFFCURVE",
"343 72 CURVE SMOOTH",
"130 72 LINE",
"130 0 LINE"
);
},
{
closed = 1;
nodes = (
"184 0 LINE",
"184 700 LINE",
"90 700 LINE",
"90 0 LINE"
);
}
);
width = 638;
}
);
leftKerningGroup = H;
unicode = 0042;
},
{
color = 6;
glyphname = C;
lastChange = "2023-09-29 08:46:29 +0000";
layers = (
{
anchors = (
{
name = bottom;
position = "{377, 0}";
},
{
name = top;
position = "{369, 700}";
}
);
background = {
components = (
{
name = G;
transform = "{1, 0, 0, 1, 2, 0}";
}
);
};
layerId = m01;
paths = (
{
closed = 1;
nodes = (
"522 -10 OFFCURVE",
"654 81 OFFCURVE",
"658 230 CURVE",
"563 230 LINE",
"556 111 OFFCURVE",
"468 65 OFFCURVE",
"373 65 CURVE SMOOTH",
"227 65 OFFCURVE",
"146 173 OFFCURVE",
"146 350 CURVE SMOOTH",
"146 529 OFFCURVE",
"233 635 OFFCURVE",
"377 635 CURVE SMOOTH",
"470 635 OFFCURVE",
"557 591 OFFCURVE",
"563 480 CURVE",
"657 480 LINE",
"653 623 OFFCURVE",
"545 710 OFFCURVE",
"381 710 CURVE SMOOTH",
"170 710 OFFCURVE",
"49 559 OFFCURVE",
"49 350 CURVE SMOOTH",
"49 143 OFFCURVE",
"165 -10 OFFCURVE",
"373 -10 CURVE SMOOTH"
);
}
);
width = 702;
}
);
leftKerningGroup = O;
rightKerningGroup = C;
unicode = 0043;
},
{
color = 6;
glyphname = D;
lastChange = "2023-09-29 08:46:29 +0000";
layers = (
{
anchors = (
{
name = bottom;
position = "{347, 0}";
},
{
name = center;
position = "{347, 350}";
},
{
name = top;
position = "{347, 700}";
}
);
layerId = m01;
paths = (
{
closed = 1;
nodes = (
"550 0 OFFCURVE",
"656 153 OFFCURVE",
"656 350 CURVE SMOOTH",
"656 547 OFFCURVE",
"550 700 OFFCURVE",
"314 700 CURVE",
"304 628 LINE",
"488 628 OFFCURVE",
"559 517 OFFCURVE",
"559 350 CURVE SMOOTH",
"559 183 OFFCURVE",
"488 72 OFFCURVE",
"304 72 CURVE",
"314 0 LINE"
);
},
{
closed = 1;
nodes = (
"314 0 LINE",
"304 72 LINE",
"90 72 LINE",
"90 0 LINE"
);
},
{
closed = 1;
nodes = (
"184 0 LINE",
"184 700 LINE",
"90 700 LINE",
"90 0 LINE"
);
},
{
closed = 1;
nodes = (
"304 628 LINE",
"314 700 LINE",
"90 700 LINE",
"90 628 LINE"
);
}
);
width = 705;
}
);
leftKerningGroup = H;
rightKerningGroup = D;
unicode = 0044;
},
{
color = 3;
glyphname = Eth;
lastChange = "2023-09-29 08:46:29 +0000";
layers = (
{
components = (
{
name = D;
transform = "{1, 0, 0, 1, 4, 0}";
}
);
layerId = m01;
paths = (
{
closed = 1;
nodes = (
"356 325 LINE",
"356 387 LINE",
"36 387 LINE",
"36 325 LINE"
);
}
);
width = 709;
}
);
leftKerningGroup = H;
rightKerningGroup = D;
unicode = 00D0;
},
{
color = 6;
glyphname = E;
lastChange = "2023-09-29 08:46:29 +0000";
layers = (
{
anchors = (
{
name = bottom;
position = "{269, 0}";
},
{
name = ogonek;
position = "{520, 0}";
},
{
name = top;
position = "{299, 700}";
},
{
name = topleft;
position = "{15, 700}";
}
);
layerId = m01;
paths = (
{
closed = 1;
nodes = (
"184 0 LINE",
"184 700 LINE",
"90 700 LINE",
"90 0 LINE"
);
},
{
closed = 1;
nodes = (
"520 0 LINE",
"520 72 LINE",
"90 72 LINE",
"90 0 LINE"
);
},
{
closed = 1;
nodes = (
"520 319 LINE",
"520 391 LINE",
"90 391 LINE",
"90 319 LINE"
);
},
{
closed = 1;
nodes = (
"520 628 LINE",
"520 700 LINE",
"90 700 LINE",
"90 628 LINE"
);
}
);
width = 584;
}
);
leftKerningGroup = H;
rightKerningGroup = E;
unicode = 0045;
},
{
color = 6;
glyphname = F;
lastChange = "2023-09-29 08:46:29 +0000";
layers = (
{
anchors = (
{
name = bottom;
position = "{269, 0}";
},
{
name = top;
position = "{269, 700}";
}
);
layerId = m01;
paths = (
{
closed = 1;
nodes = (
"184 0 LINE",
"184 700 LINE",
"90 700 LINE",
"90 0 LINE"
);
},
{
closed = 1;
nodes = (
"520 319 LINE",
"520 391 LINE",
"90 391 LINE",
"90 319 LINE"
);
},
{
closed = 1;
nodes = (
"520 628 LINE",
"520 700 LINE",
"90 700 LINE",
"90 628 LINE"
);
}
);
width = 565;
}
);
leftKerningGroup = H;
unicode = 0046;
},
{
color = 6;
glyphname = G;
lastChange = "2023-09-29 08:46:29 +0000";
layers = (
{
anchors = (
{
name = bottom;
position = "{377, 0}";
},
{
name = top;
position = "{377, 700}";
}
);
layerId = m01;
paths = (
{
closed = 1;
nodes = (
"480 -10 OFFCURVE",
"560 10 OFFCURVE",
"639 51 CURVE",
"549 100 LINE",
"504 77 OFFCURVE",
"453 65 OFFCURVE",
"396 65 CURVE SMOOTH",
"231 65 OFFCURVE",
"146 161 OFFCURVE",
"146 350 CURVE SMOOTH",
"146 527 OFFCURVE",
"235 635 OFFCURVE",
"381 635 CURVE SMOOTH",
"470 635 OFFCURVE",
"557 591 OFFCURVE",
"563 480 CURVE",
"657 480 LINE",
"653 623 OFFCURVE",
"545 710 OFFCURVE",
"381 710 CURVE SMOOTH",
"182 710 OFFCURVE",
"49 565 OFFCURVE",
"49 350 CURVE SMOOTH",
"49 123 OFFCURVE",
"171 -10 OFFCURVE",
"390 -10 CURVE SMOOTH"
);
},
{
closed = 1;
nodes = (
"639 280 LINE",
"549 282 LINE",
"549 100 LINE",
"639 51 LINE"
);
},
{
closed = 1;
nodes = (
"639 280 LINE",
"639 354 LINE",
"377 354 LINE",
"377 280 LINE"
);
}
);
width = 707;
},
{
associatedMasterId = m01;
layerId = "CEFF1B1A-68BE-4B18-82FA-B28DFBE9411E";
name = "28 Sep 21, 20:18";
paths = (
{
closed = 1;
nodes = (
"555 230 LINE",
"548 111 OFFCURVE",
"456 65 OFFCURVE",
"370 65 CURVE SMOOTH",
"209 65 OFFCURVE",
"138 183 OFFCURVE",
"138 350 CURVE SMOOTH",
"138 519 OFFCURVE",
"212 635 OFFCURVE",
"372 635 CURVE SMOOTH",
"457 635 OFFCURVE",
"548 591 OFFCURVE",
"554 480 CURVE",
"649 480 LINE",
"648 623 OFFCURVE",
"517 710 OFFCURVE",
"372 710 CURVE SMOOTH",
"160 710 OFFCURVE",
"41 549 OFFCURVE",
"41 350 CURVE SMOOTH",
"41 153 OFFCURVE",
"157 -10 OFFCURVE",
"370 -10 CURVE SMOOTH",
"514 -10 OFFCURVE",
"648 81 OFFCURVE",
"652 230 CURVE"
);
}
);
width = 600;
},
{
associatedMasterId = m01;
layerId = "F6966789-3653-4C01-B3F5-34CEFBB41E6C";
name = "4 Oct 21, 10:44";
paths = (
{
closed = 1;
nodes = (
"552 100 LINE",
"503 78 OFFCURVE",
"439 65 OFFCURVE",
"387 65 CURVE SMOOTH",
"206 65 OFFCURVE",
"140 183 OFFCURVE",
"140 350 CURVE SMOOTH",
"140 519 OFFCURVE",
"224 635 OFFCURVE",
"374 635 CURVE SMOOTH",
"459 635 OFFCURVE",
"550 591 OFFCURVE",
"556 480 CURVE",
"651 480 LINE",
"650 623 OFFCURVE",
"519 710 OFFCURVE",
"374 710 CURVE SMOOTH",
"162 710 OFFCURVE",
"43 549 OFFCURVE",
"43 350 CURVE SMOOTH",
"43 153 OFFCURVE",
"144 -10 OFFCURVE",
"387 -10 CURVE SMOOTH",
"467 -10 OFFCURVE",
"545 10 OFFCURVE",
"642 51 CURVE"
);
},
{
closed = 1;
nodes = (
"361 280 LINE",
"642 280 LINE",
"642 354 LINE",
"361 354 LINE"
);
},
{
closed = 1;
nodes = (
"552 100 LINE",
"642 51 LINE",
"642 280 LINE",
"552 282 LINE"
);
}
);
width = 691;
},
{
associatedMasterId = m01;
layerId = "EC80D29D-0549-46BC-99E3-EC64EC452719";
name = "Oct 26 21, 11:55";
paths = (
{
closed = 1;
nodes = (
"557 280 LINE",
"557 215 LINE",
"557 83 OFFCURVE",
"438 65 OFFCURVE",
"376 65 CURVE SMOOTH",
"210 65 OFFCURVE",
"140 173 OFFCURVE",
"140 350 CURVE SMOOTH",
"140 519 OFFCURVE",
"224 635 OFFCURVE",
"374 635 CURVE SMOOTH",
"459 635 OFFCURVE",
"550 591 OFFCURVE",
"556 480 CURVE",
"651 480 LINE",
"650 623 OFFCURVE",
"519 710 OFFCURVE",
"374 710 CURVE SMOOTH",
"162 710 OFFCURVE",
"43 549 OFFCURVE",
"43 350 CURVE SMOOTH",
"43 143 OFFCURVE",
"148 -10 OFFCURVE",
"376 -10 CURVE SMOOTH",
"466 -10 OFFCURVE",
"647 25 OFFCURVE",
"647 216 CURVE",
"647 354 LINE",
"371 354 LINE",
"371 280 LINE"
);
}
);
width = 691;
}
);
leftKerningGroup = O;
rightKerningGroup = G;
unicode = 0047;
},
{
color = 6;
glyphname = H;
lastChange = "2023-09-29 08:46:29 +0000";
layers = (
{
anchors = (
{
name = bottom;
position = "{362, 0}";
},
{
name = center;
position = "{362, 350}";
},
{
name = top;
position = "{362, 700}";
},
{
name = topleft;
position = "{15, 700}";
}
);
layerId = m01;
paths = (
{
closed = 1;
nodes = (
"634 0 LINE",
"634 700 LINE",
"540 700 LINE",
"540 0 LINE"
);
},
{
closed = 1;
nodes = (
"184 0 LINE",
"184 700 LINE",
"90 700 LINE",
"90 0 LINE"
);
},
{
closed = 1;
nodes = (
"595 315 LINE",
"595 387 LINE",
"165 387 LINE",
"165 315 LINE"
);
}
);
width = 724;
}
);
leftKerningGroup = H;
rightKerningGroup = H;
unicode = 0048;
},
{
color = 3;
glyphname = Hbar;
lastChange = "2023-09-29 08:46:29 +0000";
layers = (
{
components = (
{
name = H;
transform = "{1, 0, 0, 1, 3, 0}";
}
);
layerId = m01;
paths = (
{
closed = 1;
nodes = (
"700 500 LINE",
"700 562 LINE",
"30 562 LINE",
"30 500 LINE"
);
}
);
width = 731;
}
);
leftKerningGroup = H;
rightKerningGroup = H;
unicode = 0126;
},
{
color = 6;
glyphname = I;
lastChange = "2023-09-29 08:46:29 +0000";
layers = (
{
anchors = (
{
name = bottom;
position = "{137, 0}";
},
{
name = ogonek;
position = "{184, 0}";
},
{
name = top;
position = "{137, 700}";
},
{
name = topleft;
position = "{15, 700}";
}
);
layerId = m01;
paths = (
{
closed = 1;
nodes = (
"184 0 LINE",
"184 700 LINE",
"90 700 LINE",
"90 0 LINE"
);
}
);
width = 274;
}
);
leftKerningGroup = H;
rightKerningGroup = H;
unicode = 0049;
},
{
color = 6;
glyphname = IJ;
lastChange = "2023-09-29 08:46:29 +0000";
layers = (
{
background = {
anchors = (
{
name = bottom;
position = "{266, 0}";
},
{
name = top;
position = "{422, 700}";
}
);
};
layerId = m01;
paths = (
{
closed = 1;
nodes = (
"448 -10 OFFCURVE",
"537 73 OFFCURVE",
"537 234 CURVE SMOOTH",
"537 700 LINE",
"443 700 LINE",
"443 254 LINE SMOOTH",
"443 122 OFFCURVE",
"393 65 OFFCURVE",
"305 65 CURVE SMOOTH",
"222 65 OFFCURVE",
"178 115 OFFCURVE",
"178 209 CURVE SMOOTH",
"178 282 LINE",
"84 282 LINE",
"84 221 LINE SMOOTH",
"84 66 OFFCURVE",
"163 -10 OFFCURVE",
"305 -10 CURVE SMOOTH"
);
},
{
closed = 1;
nodes = (
"178 330 LINE",
"178 700 LINE",
"84 700 LINE",
"84 330 LINE"
);
}
);
width = 620;
}
);
leftKerningGroup = H;
rightKerningGroup = J;
unicode = 0132;
},
{
color = 6;
glyphname = J;
lastChange = "2023-09-29 08:46:29 +0000";
layers = (
{
anchors = (
{
name = bottom;
position = "{275, 0}";
},
{
name = top;
position = "{431, 700}";
}
);
layerId = m01;
paths = (
{
closed = 1;
nodes = (
"389 -10 OFFCURVE",
"478 73 OFFCURVE",
"478 234 CURVE SMOOTH",
"478 700 LINE",
"384 700 LINE",
"384 254 LINE SMOOTH",
"384 122 OFFCURVE",
"334 65 OFFCURVE",
"246 65 CURVE SMOOTH",
"163 65 OFFCURVE",
"119 115 OFFCURVE",
"119 209 CURVE SMOOTH",
"119 282 LINE",
"29 282 LINE",
"29 221 LINE SMOOTH",
"29 66 OFFCURVE",
"104 -10 OFFCURVE",
"246 -10 CURVE SMOOTH"
);
}
);
width = 561;
},
{
associatedMasterId = m01;
layerId = "E7C38B69-4DCC-4350-9E8F-46823968E443";
name = "12 Oct 21, 11:10";
paths = (
{
closed = 1;
nodes = (
"15 76 OFFCURVE",
"94 -10 OFFCURVE",
"235 -10 CURVE SMOOTH",
"376 -10 OFFCURVE",
"454 76 OFFCURVE",
"454 220 CURVE SMOOTH",
"454 700 LINE",
"360 700 LINE",
"360 240 LINE SMOOTH",
"360 124 OFFCURVE",
"318 65 OFFCURVE",
"235 65 CURVE SMOOTH",
"152 65 OFFCURVE",
"105 124 OFFCURVE",
"105 205 CURVE",
"15 205 LINE"
);
}
);
width = 502;
}
);
leftKerningGroup = J;
rightKerningGroup = J;
unicode = 004A;
},
{
color = 6;
glyphname = K;
lastChange = "2023-09-29 08:46:29 +0000";
layers = (
{
associatedMasterId = m01;
layerId = "3B67837D-30D2-42CF-8BD5-C245D66148B1";
name = "28 Sep 21, 18:24";
paths = (
{
closed = 1;
nodes = (
"559 700 LINE",
"445 700 LINE",
"86 285 LINE",
"135 221 LINE"
);
},
{
closed = 1;
nodes = (
"144 0 LINE",
"144 700 LINE",
"50 700 LINE",
"50 0 LINE"
);
},
{
closed = 1;
nodes = (
"559 0 LINE",
"552 168 OFFCURVE",
"504 404 OFFCURVE",
"227 404 CURVE",
"165 342 LINE",
"415 342 OFFCURVE",
"454 161 OFFCURVE",
"454 0 CURVE"
);
}
);
width = 600;
},
{
associatedMasterId = m01;
layerId = "11D5961A-92C0-46F8-93B4-0A8C4F7E31B9";
name = "28 Sep 21, 20:12";
paths = (
{
closed = 1;
nodes = (
"139 0 LINE",
"139 700 LINE",
"45 700 LINE",
"45 0 LINE"
);
},
{
closed = 1;
nodes = (
"533 0 LINE",
"515 216 OFFCURVE",
"404 344 OFFCURVE",
"212 366 CURVE",
"387 410 OFFCURVE",
"486 509 OFFCURVE",
"533 700 CURVE",
"432 700 LINE",
"403 533 OFFCURVE",
"305 439 OFFCURVE",
"127 416 CURVE",
"133 315 LINE",
"321 304 OFFCURVE",
"414 206 OFFCURVE",
"437 0 CURVE"
);
}
);
width = 564;
},
{
associatedMasterId = m01;
layerId = "CAA8320E-8202-4627-A2C8-1CF6ADBD89D7";
name = "Oct 7 21, 13:48";
paths = (
{
closed = 1;
nodes = (
"559 700 LINE",
"445 700 LINE",
"86 285 LINE",
"135 221 LINE"
);
},
{
closed = 1;
nodes = (
"144 0 LINE",
"144 700 LINE",
"50 700 LINE",
"50 0 LINE"
);
},
{
closed = 1;
nodes = (
"559 0 LINE",
"297 414 LINE",
"205 392 LINE",
"444 0 LINE"
);
}
);
width = 564;
},
{
anchors = (
{
name = bottom;
position = "{300, 0}";
},
{
name = top;
position = "{300, 700}";
}
);
layerId = m01;
paths = (
{
closed = 1;
nodes = (
"599 700 LINE",
"488 700 LINE",
"129 285 LINE",
"175 221 LINE"
);
},
{
closed = 1;
nodes = (
"184 0 LINE",
"184 700 LINE",
"90 700 LINE",
"90 0 LINE"
);
},
{
closed = 1;
nodes = (
"599 0 LINE",
"337 414 LINE",
"248 392 LINE",
"488 0 LINE"
);
}
);
width = 610;
},
{
associatedMasterId = m01;
layerId = "3F5607E2-2CCF-4236-96A0-EDCD633EF365";
name = "12 Oct 21, 11:10";
paths = (
{
closed = 1;
nodes = (
"604 700 LINE",
"492 700 LINE",
"181 365 LINE",
"242 316 LINE"
);
},
{
closed = 1;
nodes = (
"189 0 LINE",
"189 700 LINE",
"95 700 LINE",
"95 0 LINE"
);
},
{
closed = 1;
nodes = (
"604 0 LINE",
"277 387 LINE",
"180 365 LINE",
"486 0 LINE"
);
}
);
width = 609;
}
);
leftKerningGroup = H;
rightKerningGroup = K;
unicode = 004B;
},
{
color = 6;
glyphname = L;
lastChange = "2023-09-29 08:46:29 +0000";
layers = (
{
anchors = (
{
name = bottom;
position = "{295, 0}";
},
{
name = center;
position = "{258, 350}";
},
{
name = top;
position = "{139, 700}";
},
{
name = topright;
position = "{500, 700}";
}
);
layerId = m01;
paths = (
{
closed = 1;
nodes = (
"184 0 LINE",
"184 700 LINE",
"90 700 LINE",
"90 0 LINE"
);
},
{
closed = 1;
nodes = (
"510 0 LINE",
"510 72 LINE",
"90 72 LINE",
"90 0 LINE"
);
}
);
width = 522;
}
);
leftKerningGroup = H;
rightKerningGroup = L;
unicode = 004C;
},
{
color = 3;
glyphname = Lcaron;
lastChange = "2023-09-29 08:46:29 +0000";
layers = (
{
components = (
{
name = L;
}
);
layerId = m01;
paths = (
{
closed = 1;
nodes = (
"365 507 OFFCURVE",
"420 561 OFFCURVE",
"420 632 CURVE SMOOTH",
"420 676 OFFCURVE",
"393 710 OFFCURVE",
"349 710 CURVE SMOOTH",
"315 710 OFFCURVE",
"291 686 OFFCURVE",
"291 656 CURVE SMOOTH",
"291 623 OFFCURVE",
"315 600 OFFCURVE",
"346 600 CURVE SMOOTH",
"367 600 OFFCURVE",
"381 608 OFFCURVE",
"393 623 CURVE",
"370 611 LINE",
"369 575 OFFCURVE",
"335 551 OFFCURVE",
"295 541 CURVE",
"295 497 LINE"
);
}
);
width = 525;
}
);
leftKerningGroup = H;
rightKerningGroup = L;
unicode = 013D;
},
{
color = 3;
glyphname = Lslash;
lastChange = "2023-09-29 08:46:29 +0000";
layers = (
{
components = (
{
name = L;
transform = "{1, 0, 0, 1, 9, 0}";
}
);
layerId = m01;
paths = (
{
closed = 1;
nodes = (
"371 355 LINE",
"371 420 LINE",
"41 300 LINE",
"41 235 LINE"
);
}
);
width = 532;
}
);
rightKerningGroup = L;
unicode = 0141;
},
{
color = 6;
glyphname = M;
lastChange = "2023-09-29 08:46:29 +0000";
layers = (
{
anchors = (
{
name = bottom;
position = "{433, 0}";
},
{
name = top;
position = "{433, 700}";
}
);
guideLines = (
{
position = "{370, 350}";
}
);
layerId = m01;
paths = (
{
closed = 1;
nodes = (
"174 0 LINE",
"174 631 LINE",
"367 0 LINE",
"481 0 LINE",
"688 631 LINE",
"688 0 LINE",
"776 0 LINE",
"776 700 LINE",
"632 700 LINE",
"425 67 LINE",
"429 67 LINE",
"237 700 LINE",
"90 700 LINE",
"90 0 LINE"
);
}
);
width = 866;
},
{
associatedMasterId = m01;
guideLines = (
{
position = "{350, 350}";
}
);
layerId = "D28E7D11-6D86-463B-A63F-822756011318";
name = "5 Oct 21, 11:55";
paths = (
{
closed = 1;
nodes = (
"182 0 LINE",
"182 560 LINE",
"326 304 LINE",
"426 304 LINE",
"570 560 LINE",
"570 0 LINE",
"664 0 LINE",
"664 700 LINE",
"550 700 LINE",
"376 395 LINE",
"202 700 LINE",
"88 700 LINE",
"88 0 LINE"
);
}
);
width = 752;
}
);
leftKerningGroup = H;
rightKerningGroup = H;
unicode = 004D;
},
{
color = 6;
glyphname = N;
lastChange = "2023-09-29 08:46:29 +0000";
layers = (
{
anchors = (
{
name = bottom;
position = "{377, 0}";
},
{
name = top;
position = "{377, 700}";
}
);
layerId = m01;
paths = (
{
closed = 1;
nodes = (
"176 0 LINE",
"176 584 LINE",
"556 0 LINE",
"664 0 LINE",
"664 700 LINE",
"578 700 LINE",
"578 117 LINE",
"198 700 LINE",
"90 700 LINE",
"90 0 LINE"
);
}
);
width = 754;
}
);
leftKerningGroup = H;
rightKerningGroup = H;
unicode = 004E;
},
{
color = 6;
glyphname = O;
lastChange = "2023-09-29 08:46:29 +0000";
layers = (
{
anchors = (
{
name = bottom;
position = "{380, 0}";
},
{
name = center;
position = "{380, 350}";
},
{
name = ogonek;
position = "{680, 10}";
},
{
name = top;
position = "{380, 700}";
},
{
name = topleft;
position = "{25, 700}";
},
{
name = topright;
position = "{735, 700}";
}
);
layerId = m01;
paths = (
{
closed = 1;
nodes = (
"596 -10 OFFCURVE",
"712 153 OFFCURVE",
"712 350 CURVE SMOOTH",
"712 547 OFFCURVE",
"596 710 OFFCURVE",
"380 710 CURVE SMOOTH",
"164 710 OFFCURVE",
"48 547 OFFCURVE",
"48 350 CURVE SMOOTH",
"48 153 OFFCURVE",
"164 -10 OFFCURVE",
"380 -10 CURVE SMOOTH"
);
},
{
closed = 1;
nodes = (
"226 65 OFFCURVE",
"145 183 OFFCURVE",
"145 350 CURVE SMOOTH",
"145 517 OFFCURVE",
"226 635 OFFCURVE",
"380 635 CURVE SMOOTH",
"534 635 OFFCURVE",
"615 517 OFFCURVE",
"615 350 CURVE SMOOTH",
"615 183 OFFCURVE",
"534 65 OFFCURVE",
"380 65 CURVE SMOOTH"
);
}
);
width = 760;
}
);
leftKerningGroup = O;
rightKerningGroup = O;
unicode = 004F;
},
{
color = 3;
glyphname = Odieresis;
lastChange = "2023-09-29 08:46:29 +0000";
layers = (
{
components = (
{
name = O;
},
{
name = dieresiscomb;
transform = "{1, 0, 0, 1, 94, 180}";
}
);
layerId = m01;
width = 760;
},
{
associatedMasterId = m01;
components = (
{
name = O;
}
);
layerId = "745D00E6-BADA-4AC3-8D4B-E65502C6E562";
name = "12 Oct 21, 11:10";
paths = (
{
closed = 1;
nodes = (
"305 747 OFFCURVE",
"329 772 OFFCURVE",
"329 803 CURVE SMOOTH",
"329 833 OFFCURVE",
"305 857 OFFCURVE",
"275 857 CURVE SMOOTH",
"244 857 OFFCURVE",
"220 833 OFFCURVE",
"220 803 CURVE SMOOTH",
"220 772 OFFCURVE",
"244 747 OFFCURVE",
"275 747 CURVE SMOOTH"
);
},
{
closed = 1;
nodes = (
"505 747 OFFCURVE",
"529 772 OFFCURVE",
"529 803 CURVE SMOOTH",
"529 833 OFFCURVE",
"505 857 OFFCURVE",
"475 857 CURVE SMOOTH",
"444 857 OFFCURVE",
"420 833 OFFCURVE",
"420 803 CURVE SMOOTH",
"420 772 OFFCURVE",
"444 747 OFFCURVE",
"475 747 CURVE SMOOTH"
);
}
);
width = 750;
}
);
leftKerningGroup = O;
rightKerningGroup = O;
unicode = 00D6;
},
{
color = 3;
glyphname = Oslash;
lastChange = "2023-09-29 08:46:29 +0000";
layers = (
{
anchors = (
{
name = bottom;
position = "{302, 0}";
},
{
name = top;
position = "{302, 700}";
}
);
components = (
{
name = O;
}
);
layerId = m01;
paths = (
{
closed = 1;
nodes = (
"177 -48 LINE",
"652 748 LINE",
"578 748 LINE",
"103 -48 LINE"
);
}
);
width = 760;
}
);
leftKerningGroup = O;
rightKerningGroup = O;
unicode = 00D8;
},
{
color = 6;
glyphname = OE;
lastChange = "2023-09-29 08:46:29 +0000";
layers = (
{
anchors = (
{
name = bottom;
position = "{683, 0}";
},
{
name = ogonek;
position = "{898, 0}";
},
{
name = top;
position = "{683, 700}";
},
{
name = topleft;
position = "{403, 700}";
}
);
layerId = m01;
paths = (
{
closed = 1;
nodes = (
"400 72 LINE",
"216 72 OFFCURVE",
"145 183 OFFCURVE",
"145 350 CURVE SMOOTH",
"145 517 OFFCURVE",
"216 628 OFFCURVE",
"400 628 CURVE",
"390 700 LINE",
"154 700 OFFCURVE",
"48 547 OFFCURVE",
"48 350 CURVE SMOOTH",
"48 153 OFFCURVE",
"154 0 OFFCURVE",
"390 0 CURVE"
);
},
{
closed = 1;
nodes = (
"574 0 LINE",
"574 72 LINE",
"400 72 LINE",
"390 0 LINE"
);
},
{
closed = 1;
nodes = (
"898 0 LINE",
"898 72 LINE",
"478 72 LINE",
"478 0 LINE"
);
},
{
closed = 1;
nodes = (
"572 0 LINE",
"572 700 LINE",
"478 700 LINE",
"478 0 LINE"
);
},
{
closed = 1;
nodes = (
"574 0 LINE",
"574 700 LINE",
"480 700 LINE",
"480 0 LINE"
);
},
{
closed = 1;
nodes = (
"898 319 LINE",
"898 391 LINE",
"478 391 LINE",
"478 319 LINE"
);
},
{
closed = 1;
nodes = (
"574 628 LINE",
"574 700 LINE",
"390 700 LINE",
"400 628 LINE"
);
},
{
closed = 1;
nodes = (
"898 628 LINE",
"898 700 LINE",
"478 700 LINE",
"478 628 LINE"
);
}
);
width = 962;
}
);
leftKerningGroup = O;
rightKerningGroup = E;
unicode = 0152;
},
{
color = 6;
glyphname = P;
lastChange = "2023-09-29 08:46:29 +0000";
layers = (
{
anchors = (
{
name = bottom;
position = "{294, 0}";
},
{
name = top;
position = "{294, 700}";
}
);
layerId = m01;
paths = (
{
closed = 1;
nodes = (
"184 0 LINE",
"184 290 LINE",
"341 290 LINE SMOOTH",
"481 290 OFFCURVE",
"575 370 OFFCURVE",
"575 498 CURVE SMOOTH",
"575 626 OFFCURVE",
"487 700 OFFCURVE",
"341 700 CURVE SMOOTH",
"90 700 LINE",
"90 0 LINE"
);
},
{
closed = 1;
nodes = (
"184 628 LINE",
"327 628 LINE SMOOTH",
"423 628 OFFCURVE",
"476 587 OFFCURVE",
"476 498 CURVE SMOOTH",
"476 407 OFFCURVE",
"423 362 OFFCURVE",
"336 362 CURVE SMOOTH",
"184 362 LINE"
);
}
);
width = 601;
}
);
leftKerningGroup = H;
unicode = 0050;
},
{
color = 6;
glyphname = Thorn;
lastChange = "2023-09-29 08:46:29 +0000";
layers = (
{
anchors = (
{
name = bottom;
position = "{295, 0}";
},
{
name = top;
position = "{295, 700}";
}
);
layerId = m01;
paths = (
{
closed = 1;
nodes = (
"184 0 LINE",
"184 150 LINE",
"341 150 LINE SMOOTH",
"481 150 OFFCURVE",
"575 230 OFFCURVE",
"575 358 CURVE SMOOTH",
"575 486 OFFCURVE",
"487 560 OFFCURVE",
"341 560 CURVE SMOOTH",
"90 560 LINE",
"90 0 LINE"
);
},
{
closed = 1;
nodes = (
"184 488 LINE",
"327 488 LINE SMOOTH",
"423 488 OFFCURVE",
"476 447 OFFCURVE",
"476 358 CURVE SMOOTH",
"476 267 OFFCURVE",
"423 222 OFFCURVE",
"336 222 CURVE SMOOTH",
"184 222 LINE"
);
},
{
closed = 1;
nodes = (
"184 397 LINE",
"184 700 LINE",
"90 700 LINE",
"90 397 LINE"
);
}
);
width = 615;
}
);
leftKerningGroup = H;
unicode = 00DE;
},
{
color = 6;
glyphname = Q;
lastChange = "2023-09-29 08:46:29 +0000";
layers = (
{
associatedMasterId = m01;
layerId = "4B825452-6141-47E6-BB72-C0C9D1E50FA6";
name = "14 Oct 21, 11:20";
paths = (
{
closed = 1;
nodes = (
"574 -10 OFFCURVE",
"707 134 OFFCURVE",
"707 350 CURVE SMOOTH",
"707 566 OFFCURVE",
"574 710 OFFCURVE",
"375 710 CURVE SMOOTH",
"176 710 OFFCURVE",
"43 566 OFFCURVE",
"43 350 CURVE SMOOTH",
"43 134 OFFCURVE",
"176 -10 OFFCURVE",
"375 -10 CURVE SMOOTH"
);
},
{
closed = 1;
nodes = (
"604 -164 LINE",
"462 8 LINE",
"375 -8 LINE",
"500 -164 LINE"
);
},
{
closed = 1;
nodes = (
"229 65 OFFCURVE",
"140 173 OFFCURVE",
"140 350 CURVE SMOOTH",
"140 527 OFFCURVE",
"229 635 OFFCURVE",
"375 635 CURVE SMOOTH",
"521 635 OFFCURVE",
"610 527 OFFCURVE",
"610 350 CURVE SMOOTH",
"610 173 OFFCURVE",
"521 65 OFFCURVE",
"375 65 CURVE SMOOTH"
);
}
);
width = 750;
},
{
associatedMasterId = m01;
layerId = "06DCB8C3-8E84-4B22-B121-7094BC8DC2CE";
name = "14 Oct 21, 14:13";
paths = (
{
closed = 1;
nodes = (
"525 50 LINE",
"644 97 OFFCURVE",
"707 201 OFFCURVE",
"707 350 CURVE SMOOTH",
"707 566 OFFCURVE",
"574 710 OFFCURVE",
"375 710 CURVE SMOOTH",
"176 710 OFFCURVE",
"43 566 OFFCURVE",
"43 350 CURVE SMOOTH",
"43 134 OFFCURVE",
"176 -10 OFFCURVE",
"375 -10 CURVE"
);
},
{
closed = 1;
nodes = (
"686 -118 LINE",
"686 -36 LINE SMOOTH",
"686 25 OFFCURVE",
"663 50 OFFCURVE",
"598 50 CURVE SMOOTH",
"375 50 LINE",
"375 -10 LINE",
"549 -10 LINE SMOOTH",
"595 -10 OFFCURVE",
"606 -22 OFFCURVE",
"606 -63 CURVE SMOOTH",
"606 -118 LINE"
);
},
{
closed = 1;
nodes = (
"229 65 OFFCURVE",
"140 173 OFFCURVE",
"140 350 CURVE SMOOTH",
"140 527 OFFCURVE",
"229 635 OFFCURVE",
"375 635 CURVE SMOOTH",
"521 635 OFFCURVE",
"610 527 OFFCURVE",
"610 350 CURVE SMOOTH",
"610 173 OFFCURVE",
"521 65 OFFCURVE",
"375 65 CURVE SMOOTH"
);
}
);
width = 750;
},
{
anchors = (
{
name = bottom;
position = "{380, 0}";
},
{
name = top;
position = "{380, 700}";
}
);
layerId = m01;
paths = (
{
closed = 1;
nodes = (
"444 -10 OFFCURVE",
"496 5 OFFCURVE",
"537 28 CURVE SMOOTH",
"646 90 OFFCURVE",
"712 204 OFFCURVE",
"712 350 CURVE SMOOTH",
"712 566 OFFCURVE",
"579 710 OFFCURVE",
"380 710 CURVE SMOOTH",
"181 710 OFFCURVE",
"48 566 OFFCURVE",
"48 350 CURVE SMOOTH",
"48 134 OFFCURVE",
"181 -10 OFFCURVE",
"380 -10 CURVE SMOOTH"
);
},
{
closed = 1;
nodes = (
"444 -10 OFFCURVE",
"481 0 OFFCURVE",
"692 0 CURVE",
"702 70 LINE",
"627 70 OFFCURVE",
"579 64 OFFCURVE",
"528 60 CURVE",
"380 -10 LINE"
);
},
{
closed = 1;
nodes = (
"234 65 OFFCURVE",
"145 173 OFFCURVE",
"145 350 CURVE SMOOTH",
"145 527 OFFCURVE",
"234 635 OFFCURVE",
"380 635 CURVE SMOOTH",
"526 635 OFFCURVE",
"615 527 OFFCURVE",
"615 350 CURVE SMOOTH",
"615 173 OFFCURVE",
"526 65 OFFCURVE",
"380 65 CURVE SMOOTH"
);
},
{
closed = 1;
nodes = (
"750 0 LINE",
"750 70 LINE",
"702 70 LINE",
"692 0 LINE"
);
}
);
width = 763;
},
{
associatedMasterId = m01;
layerId = "2CAB6EF3-F86D-49EB-8405-8CC06EF9E53B";
name = "Oct 15 21, 16:10";
paths = (
{
closed = 1;
nodes = (
"525 50 LINE",
"644 97 OFFCURVE",
"707 201 OFFCURVE",
"707 350 CURVE SMOOTH",
"707 566 OFFCURVE",
"574 710 OFFCURVE",
"375 710 CURVE SMOOTH",
"176 710 OFFCURVE",
"43 566 OFFCURVE",
"43 350 CURVE SMOOTH",
"43 134 OFFCURVE",
"176 -10 OFFCURVE",
"375 -10 CURVE"
);
},
{
closed = 1;
nodes = (
"718 70 LINE",
"445 70 LINE",
"375 -10 LINE",
"426 -10 OFFCURVE",
"447 0 OFFCURVE",
"528 0 CURVE SMOOTH",
"718 0 LINE"
);
},
{
closed = 1;
nodes = (
"229 65 OFFCURVE",
"140 173 OFFCURVE",
"140 350 CURVE SMOOTH",
"140 527 OFFCURVE",
"229 635 OFFCURVE",
"375 635 CURVE SMOOTH",
"521 635 OFFCURVE",
"610 527 OFFCURVE",
"610 350 CURVE SMOOTH",
"610 173 OFFCURVE",
"521 65 OFFCURVE",
"375 65 CURVE SMOOTH"
);
}
);
width = 750;
},
{
associatedMasterId = m01;
layerId = "D6C78EB8-D47B-432F-A9D3-C82304875DE7";
name = "Oct 18 21, 12:58";
paths = (
{
closed = 1;
nodes = (
"574 -10 OFFCURVE",
"707 134 OFFCURVE",
"707 350 CURVE SMOOTH",
"707 566 OFFCURVE",
"574 710 OFFCURVE",
"375 710 CURVE SMOOTH",
"176 710 OFFCURVE",
"43 566 OFFCURVE",
"43 350 CURVE SMOOTH",
"43 134 OFFCURVE",
"176 -10 OFFCURVE",
"375 -10 CURVE SMOOTH"
);
},
{
closed = 1;
nodes = (
"229 65 OFFCURVE",
"140 173 OFFCURVE",
"140 350 CURVE SMOOTH",
"140 527 OFFCURVE",
"229 635 OFFCURVE",
"375 635 CURVE SMOOTH",
"521 635 OFFCURVE",
"610 527 OFFCURVE",
"610 350 CURVE SMOOTH",
"610 173 OFFCURVE",
"521 65 OFFCURVE",
"375 65 CURVE SMOOTH"
);
},
{
closed = 1;
nodes = (
"375 -10 LINE",
"519 -10 OFFCURVE",
"566 -74 OFFCURVE",
"582 -187 CURVE",
"677 -187 LINE",
"663 -88 OFFCURVE",
"621 -2 OFFCURVE",
"483 24 CURVE"
);
}
);
width = 750;
}
);
leftKerningGroup = O;
rightKerningGroup = O;
unicode = 0051;
},
{
color = 6;
glyphname = R;
lastChange = "2023-09-29 08:46:29 +0000";
layers = (
{
associatedMasterId = m01;
layerId = "D30E4E0E-9FEC-4662-99D0-CEB67F2CD4EB";
name = "5 Oct 21, 11:20";
paths = (
{
closed = 1;
nodes = (
"182 0 LINE",
"182 304 LINE",
"242 304 LINE SMOOTH",
"466 304 OFFCURVE",
"462 104 OFFCURVE",
"473 0 CURVE",
"568 0 LINE",
"558 97 OFFCURVE",
"559 308 OFFCURVE",
"364 333 CURVE",
"361 308 LINE",
"501 326 OFFCURVE",
"568 408 OFFCURVE",
"568 504 CURVE SMOOTH",
"568 626 OFFCURVE",
"485 700 OFFCURVE",
"329 700 CURVE SMOOTH",
"88 700 LINE",
"88 0 LINE"
);
},
{
closed = 1;
nodes = (
"182 628 LINE",
"315 628 LINE SMOOTH",
"421 628 OFFCURVE",
"469 587 OFFCURVE",
"469 501 CURVE SMOOTH",
"469 417 OFFCURVE",
"421 372 OFFCURVE",
"324 372 CURVE SMOOTH",
"182 372 LINE"
);
}
);
width = 608;
},
{
associatedMasterId = m01;
layerId = "070F6F5F-DFE8-4473-9E6A-07F9AE3B0C88";
name = "14 Oct 21, 15:03";
paths = (
{
closed = 1;
nodes = (
"189 0 LINE",
"189 310 LINE",
"238 310 LINE",
"372 224 LINE SMOOTH",
"453 172 OFFCURVE",
"469 147 OFFCURVE",
"469 73 CURVE SMOOTH",
"469 0 LINE",
"565 0 LINE",
"565 73 LINE SMOOTH",
"565 166 OFFCURVE",
"535 216 OFFCURVE",
"449 267 CURVE SMOOTH",
"365 318 LINE",
"487 318 OFFCURVE",
"572 399 OFFCURVE",
"572 515 CURVE SMOOTH",
"572 635 OFFCURVE",
"488 700 OFFCURVE",
"333 700 CURVE SMOOTH",
"95 700 LINE",
"95 0 LINE"
);
},
{
closed = 1;
nodes = (
"189 628 LINE",
"322 628 LINE SMOOTH",
"431 628 OFFCURVE",
"476 593 OFFCURVE",
"476 508 CURVE SMOOTH",
"476 424 OFFCURVE",
"427 380 OFFCURVE",
"331 380 CURVE SMOOTH",
"189 380 LINE"
);
}
);
width = 616;
},
{
associatedMasterId = m01;
layerId = "DE1A55B0-4B7A-40BA-88F8-0EAF644D7620";
name = "Oct 15 21, 15:52";
paths = (
{
closed = 1;
nodes = (
"189 0 LINE",
"189 312 LINE",
"310 312 LINE SMOOTH",
"424 312 OFFCURVE",
"477 298 OFFCURVE",
"477 159 CURVE SMOOTH",
"477 0 LINE",
"572 0 LINE",
"572 159 LINE SMOOTH",
"572 314 OFFCURVE",
"513 341 OFFCURVE",
"398 355 CURVE",
"365 326 LINE",
"492 333 OFFCURVE",
"572 405 OFFCURVE",
"572 515 CURVE SMOOTH",
"572 635 OFFCURVE",
"488 700 OFFCURVE",
"333 700 CURVE SMOOTH",
"95 700 LINE",
"95 0 LINE"
);
},
{
closed = 1;
nodes = (
"189 628 LINE",
"322 628 LINE SMOOTH",
"431 628 OFFCURVE",
"476 593 OFFCURVE",
"476 508 CURVE SMOOTH",
"476 423 OFFCURVE",
"426 380 OFFCURVE",
"331 380 CURVE SMOOTH",
"189 380 LINE"
);
}
);
width = 616;
},
{
anchors = (
{
name = bottom;
position = "{318, 0}";
},
{
name = top;
position = "{318, 700}";
}
);
layerId = m01;
paths = (
{
closed = 1;
nodes = (
"184 0 LINE",
"184 312 LINE",
"255 312 LINE SMOOTH",
"399 312 OFFCURVE",
"456 248 OFFCURVE",
"479 29 CURVE SMOOTH",
"482 0 LINE",
"577 0 LINE",
"574 29 LINE SMOOTH",
"552 244 OFFCURVE",
"488 321 OFFCURVE",
"373 355 CURVE",
"370 326 LINE",
"497 333 OFFCURVE",
"577 405 OFFCURVE",
"577 515 CURVE SMOOTH",
"577 635 OFFCURVE",
"493 700 OFFCURVE",
"338 700 CURVE SMOOTH",
"90 700 LINE",
"90 0 LINE"
);
},
{
closed = 1;
nodes = (
"184 628 LINE",
"327 628 LINE SMOOTH",
"436 628 OFFCURVE",
"481 593 OFFCURVE",
"481 508 CURVE SMOOTH",
"481 423 OFFCURVE",
"431 380 OFFCURVE",
"336 380 CURVE SMOOTH",
"184 380 LINE"
);
}
);
width = 632;
},
{
associatedMasterId = m01;
layerId = "0903D2A5-8D1E-44BF-B238-DE82E7E57A16";
name = "Nov 19 21, 13:21";
paths = (
{
closed = 1;
nodes = (
"189 0 LINE",
"189 312 LINE",
"250 312 LINE SMOOTH",
"394 312 OFFCURVE",
"451 248 OFFCURVE",
"474 29 CURVE SMOOTH",
"477 0 LINE",
"572 0 LINE",
"569 29 LINE SMOOTH",
"547 244 OFFCURVE",
"483 321 OFFCURVE",
"368 355 CURVE",
"365 326 LINE",
"492 333 OFFCURVE",
"572 405 OFFCURVE",
"572 515 CURVE SMOOTH",
"572 635 OFFCURVE",
"488 700 OFFCURVE",
"333 700 CURVE SMOOTH",
"95 700 LINE",
"95 0 LINE"
);
},
{
closed = 1;
nodes = (
"189 628 LINE",
"322 628 LINE SMOOTH",
"431 628 OFFCURVE",
"476 593 OFFCURVE",
"476 508 CURVE SMOOTH",
"476 423 OFFCURVE",
"426 380 OFFCURVE",
"331 380 CURVE SMOOTH",
"189 380 LINE"
);
}
);
width = 616;
}
);
leftKerningGroup = H;
rightKerningGroup = R;
unicode = 0052;
},
{
color = 6;
glyphname = S;
lastChange = "2023-09-29 08:46:29 +0000";
layers = (
{
anchors = (
{
name = bottom;
position = "{291, 0}";
},
{
name = top;
position = "{291, 700}";
}
);
layerId = m01;
paths = (
{
closed = 1;
nodes = (
"443 -10 OFFCURVE",
"535 74 OFFCURVE",
"535 199 CURVE SMOOTH",
"535 294 OFFCURVE",
"483 352 OFFCURVE",
"361 385 CURVE SMOOTH",
"258 413 LINE SMOOTH",
"182 434 OFFCURVE",
"152 473 OFFCURVE",
"152 522 CURVE SMOOTH",
"152 587 OFFCURVE",
"201 638 OFFCURVE",
"292 638 CURVE SMOOTH",
"379 638 OFFCURVE",
"421 593 OFFCURVE",
"433 524 CURVE",
"523 524 LINE",
"515 638 OFFCURVE",
"436 710 OFFCURVE",
"298 710 CURVE SMOOTH",
"149 710 OFFCURVE",
"60 624 OFFCURVE",
"60 515 CURVE SMOOTH",
"60 429 OFFCURVE",
"105 364 OFFCURVE",
"216 332 CURVE SMOOTH",
"344 295 LINE SMOOTH",
"409 276 OFFCURVE",
"438 245 OFFCURVE",
"438 190 CURVE SMOOTH",
"438 112 OFFCURVE",
"382 62 OFFCURVE",
"293 62 CURVE SMOOTH",
"196 62 OFFCURVE",
"144 114 OFFCURVE",
"140 205 CURVE",
"47 205 LINE",
"53 64 OFFCURVE",
"142 -10 OFFCURVE",
"291 -10 CURVE SMOOTH"
);
}
);
width = 583;
},
{
anchors = (
{
name = bottom;
position = "{284, 0}";
},
{
name = top;
position = "{284, 700}";
}
);
associatedMasterId = m01;
layerId = "4496556D-B358-4951-8658-188D4A444F5F";
name = "Dec 6 21, 11:37";
paths = (
{
closed = 1;
nodes = (
"436 -10 OFFCURVE",
"528 74 OFFCURVE",
"528 199 CURVE SMOOTH",
"528 294 OFFCURVE",
"476 352 OFFCURVE",
"354 385 CURVE SMOOTH",
"251 413 LINE SMOOTH",
"175 434 OFFCURVE",
"145 473 OFFCURVE",
"145 522 CURVE SMOOTH",
"145 583 OFFCURVE",
"194 635 OFFCURVE",
"285 635 CURVE SMOOTH",
"372 635 OFFCURVE",
"414 593 OFFCURVE",
"426 524 CURVE",
"516 524 LINE",
"508 638 OFFCURVE",
"429 710 OFFCURVE",
"291 710 CURVE SMOOTH",
"142 710 OFFCURVE",
"53 624 OFFCURVE",
"53 515 CURVE SMOOTH",
"53 429 OFFCURVE",
"98 364 OFFCURVE",
"209 332 CURVE SMOOTH",
"337 295 LINE SMOOTH",
"402 276 OFFCURVE",
"431 245 OFFCURVE",
"431 190 CURVE SMOOTH",
"431 116 OFFCURVE",
"375 65 OFFCURVE",
"286 65 CURVE SMOOTH",
"189 65 OFFCURVE",
"133 116 OFFCURVE",
"133 205 CURVE",
"40 205 LINE",
"46 62 OFFCURVE",
"129 -10 OFFCURVE",
"284 -10 CURVE SMOOTH"
);
}
);
width = 567;
}
);
leftKerningGroup = S;
rightKerningGroup = S;
unicode = 0053;
},
{
color = 6;
glyphname = Germandbls;
lastChange = "2023-09-29 08:46:29 +0000";
layers = (
{
anchors = (
{
name = bottom;
position = "{279, 0}";
},
{
name = top;
position = "{279, 700}";
}
);
layerId = m01;
paths = (
{
closed = 1;
nodes = (
"376 376 LINE",
"588 602 LINE",
"588 668 LINE",
"545 658 LINE",
"322 420 LINE",
"322 336 LINE"
);
},
{
closed = 1;
nodes = (
"363 0 LINE",
"365 72 LINE",
"262 72 LINE",
"262 0 LINE"
);
},
{
closed = 1;
nodes = (
"182 0 LINE",
"182 642 LINE",
"90 642 LINE",
"90 0 LINE"
);
},
{
closed = 1;
nodes = (
"525 0 OFFCURVE",
"615 84 OFFCURVE",
"615 204 CURVE",
"518 204 LINE",
"518 123 OFFCURVE",
"464 72 OFFCURVE",
"365 72 CURVE",
"363 0 LINE"
);
},
{
closed = 1;
nodes = (
"365 336 LINE",
"363 408 LINE",
"352 408 LINE",
"322 336 LINE"
);
},
{
closed = 1;
nodes = (
"615 204 LINE",
"615 324 OFFCURVE",
"525 408 OFFCURVE",
"363 408 CURVE",
"365 336 LINE",
"464 336 OFFCURVE",
"518 285 OFFCURVE",
"518 204 CURVE"
);
},
{
closed = 1;
nodes = (
"588 628 LINE",
"588 700 LINE",
"90 700 LINE",
"90 628 LINE"
);
}
);
width = 663;
}
);
leftKerningGroup = H;
unicode = 1E9E;
},
{
color = 6;
glyphname = T;
lastChange = "2023-09-29 08:46:29 +0000";
layers = (
{
anchors = (
{
name = bottom;
position = "{282, 0}";
},
{
name = center;
position = "{282, 350}";
},
{
name = top;
position = "{282, 700}";
}
);
layerId = m01;
paths = (
{
closed = 1;
nodes = (
"329 0 LINE",
"329 700 LINE",
"235 700 LINE",
"235 0 LINE"
);
},
{
closed = 1;
nodes = (
"552 628 LINE",
"552 700 LINE",
"12 700 LINE",
"12 628 LINE"
);
}
);
width = 564;
}
);
leftKerningGroup = T;
rightKerningGroup = T;
unicode = 0054;
},
{
color = 3;
glyphname = Tcedilla;
lastChange = "2023-09-29 08:46:29 +0000";
layers = (
{
anchors = (
{
name = _bottom;
position = "{282, 0}";
}
);
components = (
{
name = T;
}
);
layerId = m01;
paths = (
{
closed = 1;
nodes = (
"313 -257 OFFCURVE",
"373 -235 OFFCURVE",
"373 -160 CURVE SMOOTH",
"373 -89 OFFCURVE",
"314 -70 OFFCURVE",
"285 -70 CURVE SMOOTH",
"277 -70 LINE",
"329 0 LINE",
"274 0 LINE",
"208 -97 LINE",
"222 -122 LINE",
"233 -120 OFFCURVE",
"246 -119 OFFCURVE",
"258 -119 CURVE SMOOTH",
"279 -119 OFFCURVE",
"307 -126 OFFCURVE",
"307 -160 CURVE SMOOTH",
"307 -189 OFFCURVE",
"289 -205 OFFCURVE",
"247 -205 CURVE SMOOTH",
"230 -205 OFFCURVE",
"204 -200 OFFCURVE",
"195 -197 CURVE",
"195 -249 LINE",
"210 -254 OFFCURVE",
"232 -257 OFFCURVE",
"252 -257 CURVE SMOOTH"
);
}
);
width = 564;
}
);
leftKerningGroup = T;
rightKerningGroup = T;
unicode = 0162;
},
{
color = 6;
glyphname = U;
lastChange = "2023-09-29 08:46:29 +0000";
layers = (
{
anchors = (
{
name = bottom;
position = "{345, 0}";
},
{
name = ogonek;
position = "{431, 0}";
},
{
name = top;
position = "{345, 700}";
},
{
name = topright;
position = "{682, 700}";
}
);
background = {
components = (
{
name = H;
transform = "{1, 0, 0, 1, 2, 0}";
}
);
};
layerId = m01;
paths = (
{
closed = 1;
nodes = (
"529 -10 OFFCURVE",
"607 106 OFFCURVE",
"607 260 CURVE SMOOTH",
"607 700 LINE",
"513 700 LINE",
"513 270 LINE SMOOTH",
"513 154 OFFCURVE",
"471 65 OFFCURVE",
"345 65 CURVE SMOOTH",
"219 65 OFFCURVE",
"177 154 OFFCURVE",
"177 270 CURVE SMOOTH",
"177 700 LINE",
"83 700 LINE",
"83 260 LINE SMOOTH",
"83 106 OFFCURVE",
"161 -10 OFFCURVE",
"345 -10 CURVE SMOOTH"
);
}
);
width = 690;
}
);
leftKerningGroup = U;
rightKerningGroup = U;
unicode = 0055;
},
{
color = 6;
glyphname = V;
lastChange = "2023-09-29 08:46:29 +0000";
layers = (
{
anchors = (
{
name = bottom;
position = "{319, 0}";
},
{
name = top;
position = "{319, 700}";
}
);
layerId = m01;
paths = (
{
closed = 1;
nodes = (
"532 700 LINE",
"319 80 LINE",
"112 700 LINE",
"12 700 LINE",
"258 0 LINE",
"379 0 LINE",
"626 700 LINE"
);
}
);
width = 638;
}
);
leftKerningGroup = V;
rightKerningGroup = V;
unicode = 0056;
},
{
color = 6;
glyphname = W;
lastChange = "2023-09-29 08:46:29 +0000";
layers = (
{
anchors = (
{
name = bottom;
position = "{474, 0}";
},
{
name = top;
position = "{474, 700}";
}
);
guideLines = (
{
position = "{-21, 494}";
showMeasurement = 1;
},
{
position = "{-8, 190}";
showMeasurement = 1;
}
);
layerId = m01;
paths = (
{
closed = 1;
nodes = (
"330 0 LINE",
"483 645 LINE",
"462 645 LINE",
"618 0 LINE",
"744 0 LINE",
"928 700 LINE",
"837 700 LINE",
"681 86 LINE",
"532 700 LINE",
"415 700 LINE",
"270 86 LINE",
"119 700 LINE",
"21 700 LINE",
"206 0 LINE"
);
}
);
width = 949;
},
{
anchors = (
{
name = bottom;
position = "{465, 0}";
},
{
name = top;
position = "{465, 700}";
}
);
associatedMasterId = m01;
guideLines = (
{
position = "{-32, 572}";
showMeasurement = 1;
},
{
position = "{-19, 150}";
showMeasurement = 1;
}
);
layerId = "99593850-ABDC-4078-88A6-F357FF4E57B8";
name = "3 Dec 21, 11:19";
paths = (
{
closed = 1;
nodes = (
"317 0 LINE",
"464 591 LINE",
"610 0 LINE",
"736 0 LINE",
"924 700 LINE",
"830 700 LINE",
"676 96 LINE",
"528 700 LINE",
"410 700 LINE",
"261 96 LINE",
"105 700 LINE",
"5 700 LINE",
"193 0 LINE"
);
}
);
width = 929;
}
);
leftKerningGroup = W;
rightKerningGroup = W;
unicode = 0057;
},
{
color = 6;
glyphname = X;
lastChange = "2023-09-29 08:46:29 +0000";
layers = (
{
anchors = (
{
name = bottom;
position = "{298, 0}";
},
{
name = top;
position = "{298, 700}";
}
);
background = {
components = (
{
name = V;
transform = "{1, 0, 0, 1, -18, 0}";
}
);
};
guideLines = (
{
angle = 90;
position = "{587, 200}";
}
);
layerId = m01;
paths = (
{
closed = 1;
nodes = (
"575 0 LINE",
"127 700 LINE",
"21 700 LINE",
"469 0 LINE"
);
},
{
closed = 1;
nodes = (
"115 0 LINE",
"309 305 LINE",
"258 376 LINE",
"14 0 LINE"
);
},
{
closed = 1;
nodes = (
"582 700 LINE",
"481 700 LINE",
"288 396 LINE",
"340 326 LINE"
);
}
);
width = 596;
}
);
unicode = 0058;
},
{
color = 6;
glyphname = Y;
lastChange = "2023-09-29 08:46:29 +0000";
layers = (
{
anchors = (
{
name = bottom;
position = "{291, 0}";
},
{
name = top;
position = "{291, 700}";
},
{
name = topleft;
position = "{24, 700}";
}
);
layerId = m01;
paths = (
{
closed = 1;
nodes = (
"338 0 LINE",
"338 286 LINE",
"573 700 LINE",
"474 700 LINE",
"294 371 LINE",
"112 700 LINE",
"9 700 LINE",
"244 286 LINE",
"244 0 LINE"
);
}
);
width = 582;
}
);
leftKerningGroup = Y;
rightKerningGroup = Y;
unicode = 0059;
},
{
color = 6;
glyphname = Z;
lastChange = "2023-09-29 08:46:29 +0000";
layers = (
{
anchors = (
{
name = bottom;
position = "{279, 0}";
},
{
name = center;
position = "{279, 350}";
},
{
name = top;
position = "{279, 700}";
}
);
layerId = m01;
paths = (
{
closed = 1;
nodes = (
"519 0 LINE",
"519 72 LINE",
"151 72 LINE",
"519 638 LINE",
"519 700 LINE",
"39 700 LINE",
"39 628 LINE",
"407 628 LINE",
"39 62 LINE",
"39 0 LINE"
);
}
);
width = 558;
}
);
leftKerningGroup = Z;
rightKerningGroup = Z;
unicode = 005A;
},
{
color = 6;
glyphname = T.alt;
lastChange = "2023-09-29 08:46:29 +0000";
layers = (
{
anchors = (
{
name = bottom;
position = "{282, 0}";
},
{
name = center;
position = "{282, 350}";
},
{
name = top;
position = "{282, 700}";
}
);
layerId = m01;
paths = (
{
closed = 1;
nodes = (
"329 0 LINE",
"329 700 LINE",
"235 700 LINE",
"235 0 LINE"
);
},
{
closed = 1;
nodes = (
"552 628 LINE",
"552 700 LINE",
"12 700 LINE",
"12 628 LINE"
);
}
);
width = 564;
}
);
leftKerningGroup = T;
rightKerningGroup = T;
},
{
color = 3;
glyphname = Tcedilla.alt;
lastChange = "2023-09-29 08:46:29 +0000";
layers = (
{
anchors = (
{
name = _bottom;
position = "{282, 0}";
}
);
components = (
{
name = T.alt;
}
);
layerId = m01;
paths = (
{
closed = 1;
nodes = (
"313 -257 OFFCURVE",
"373 -235 OFFCURVE",
"373 -160 CURVE SMOOTH",
"373 -89 OFFCURVE",
"314 -70 OFFCURVE",
"285 -70 CURVE SMOOTH",
"277 -70 LINE",
"329 0 LINE",
"274 0 LINE",
"208 -97 LINE",
"222 -122 LINE",
"233 -120 OFFCURVE",
"246 -119 OFFCURVE",
"258 -119 CURVE SMOOTH",
"279 -119 OFFCURVE",
"307 -126 OFFCURVE",
"307 -160 CURVE SMOOTH",
"307 -189 OFFCURVE",
"289 -205 OFFCURVE",
"247 -205 CURVE SMOOTH",
"230 -205 OFFCURVE",
"204 -200 OFFCURVE",
"195 -197 CURVE",
"195 -249 LINE",
"210 -254 OFFCURVE",
"232 -257 OFFCURVE",
"252 -257 CURVE SMOOTH"
);
}
);
width = 564;
}
);
leftKerningGroup = T;
rightKerningGroup = T;
},
{
color = 6;
glyphname = a;
lastChange = "2023-09-29 08:46:29 +0000";
layers = (
{
anchors = (
{
name = bottom;
position = "{278, 0}";
},
{
name = ogonek;
position = "{466, 0}";
},
{
name = top;
position = "{261, 520}";
}
);
layerId = m01;
paths = (
{
closed = 1;
nodes = (
"305 -10 OFFCURVE",
"372 31 OFFCURVE",
"399 101 CURVE",
"385 95 LINE",
"385 0 LINE",
"466 0 LINE",
"466 339 LINE SMOOTH",
"466 462 OFFCURVE",
"394 530 OFFCURVE",
"265 530 CURVE SMOOTH",
"143 530 OFFCURVE",
"60 460 OFFCURVE",
"57 365 CURVE",
"145 365 LINE",
"147 421 OFFCURVE",
"194 460 OFFCURVE",
"267 460 CURVE SMOOTH",
"337 460 OFFCURVE",
"381 425 OFFCURVE",
"381 355 CURVE SMOOTH",
"381 211 LINE SMOOTH",
"381 117 OFFCURVE",
"328 60 OFFCURVE",
"243 60 CURVE SMOOTH",
"181 60 OFFCURVE",
"145 89 OFFCURVE",
"145 139 CURVE SMOOTH",
"145 212 OFFCURVE",
"231 250 OFFCURVE",
"429 265 CURVE",
"426 329 LINE",
"166 305 OFFCURVE",
"57 247 OFFCURVE",
"57 135 CURVE SMOOTH",
"57 48 OFFCURVE",
"122 -10 OFFCURVE",
"220 -10 CURVE SMOOTH"
);
}
);
width = 541;
},
{
anchors = (
{
name = top;
position = "{244, 520}";
}
);
associatedMasterId = m01;
layerId = "68BA6BDF-0218-42EA-853E-6D700AC4833B";
name = "21 Oct 21, 16:41";
paths = (
{
closed = 1;
nodes = (
"286 -10 OFFCURVE",
"352 22 OFFCURVE",
"382 101 CURVE",
"364 95 LINE",
"364 0 LINE",
"449 0 LINE",
"449 125 LINE",
"449 343 LINE SMOOTH",
"449 479 OFFCURVE",
"370 530 OFFCURVE",
"244 530 CURVE SMOOTH",
"138 530 OFFCURVE",
"43 467 OFFCURVE",
"40 365 CURVE",
"132 365 LINE",
"134 426 OFFCURVE",
"189 460 OFFCURVE",
"246 460 CURVE SMOOTH",
"334 460 OFFCURVE",
"359 415 OFFCURVE",
"359 355 CURVE SMOOTH",
"359 211 LINE SMOOTH",
"359 100 OFFCURVE",
"299 60 OFFCURVE",
"229 60 CURVE SMOOTH",
"171 60 OFFCURVE",
"126 88 OFFCURVE",
"126 144 CURVE SMOOTH",
"126 187 OFFCURVE",
"149 212 OFFCURVE",
"216 226 CURVE SMOOTH",
"276 239 OFFCURVE",
"327 251 OFFCURVE",
"359 270 CURVE",
"359 337 LINE",
"336 307 OFFCURVE",
"253 294 OFFCURVE",
"173 278 CURVE SMOOTH",
"70 257 OFFCURVE",
"33 211 OFFCURVE",
"33 144 CURVE SMOOTH",
"33 54 OFFCURVE",
"99 -10 OFFCURVE",
"206 -10 CURVE SMOOTH"
);
}
);
width = 522;
},
{
anchors = (
{
name = top;
position = "{244, 520}";
}
);
associatedMasterId = m01;
layerId = "3069A29E-D1E8-4D98-9C46-AB3388E44E4B";
name = "Oct 25 21, 11:43";
paths = (
{
closed = 1;
nodes = (
"285 -10 OFFCURVE",
"354 29 OFFCURVE",
"382 101 CURVE",
"364 95 LINE",
"364 0 LINE",
"449 0 LINE",
"449 125 LINE",
"449 343 LINE SMOOTH",
"449 468 OFFCURVE",
"382 530 OFFCURVE",
"244 530 CURVE SMOOTH",
"129 530 OFFCURVE",
"43 460 OFFCURVE",
"40 365 CURVE",
"132 365 LINE",
"134 420 OFFCURVE",
"182 460 OFFCURVE",
"246 460 CURVE SMOOTH",
"322 460 OFFCURVE",
"359 426 OFFCURVE",
"359 355 CURVE SMOOTH",
"359 211 LINE SMOOTH",
"359 116 OFFCURVE",
"310 60 OFFCURVE",
"226 60 CURVE SMOOTH",
"169 60 OFFCURVE",
"133 89 OFFCURVE",
"133 139 CURVE SMOOTH",
"133 203 OFFCURVE",
"194 234 OFFCURVE",
"359 260 CURVE",
"359 324 LINE",
"119 286 OFFCURVE",
"40 232 OFFCURVE",
"40 135 CURVE SMOOTH",
"40 49 OFFCURVE",
"104 -10 OFFCURVE",
"203 -10 CURVE SMOOTH"
);
}
);
width = 522;
},
{
anchors = (
{
name = top;
position = "{244, 520}";
}
);
associatedMasterId = m01;
layerId = "E697EE97-CEA0-42E2-AEAF-4E6D786893DE";
name = "Oct 25 21, 13:32";
paths = (
{
closed = 1;
nodes = (
"285 -10 OFFCURVE",
"354 29 OFFCURVE",
"382 101 CURVE",
"364 95 LINE",
"364 0 LINE",
"449 0 LINE",
"449 125 LINE",
"449 343 LINE SMOOTH",
"449 468 OFFCURVE",
"382 530 OFFCURVE",
"244 530 CURVE SMOOTH",
"129 530 OFFCURVE",
"43 460 OFFCURVE",
"40 365 CURVE",
"132 365 LINE",
"134 420 OFFCURVE",
"182 460 OFFCURVE",
"246 460 CURVE SMOOTH",
"322 460 OFFCURVE",
"359 426 OFFCURVE",
"359 355 CURVE SMOOTH",
"359 211 LINE SMOOTH",
"359 116 OFFCURVE",
"310 60 OFFCURVE",
"226 60 CURVE SMOOTH",
"169 60 OFFCURVE",
"133 89 OFFCURVE",
"133 124 CURVE SMOOTH",
"133 190 OFFCURVE",
"224 230 OFFCURVE",
"372 272 CURVE",
"359 215 LINE",
"359 369 LINE",
"369 336 LINE",
"148 284 OFFCURVE",
"40 219 OFFCURVE",
"40 120 CURVE SMOOTH",
"40 49 OFFCURVE",
"104 -10 OFFCURVE",
"203 -10 CURVE SMOOTH"
);
}
);
width = 522;
}
);
leftKerningGroup = a;
rightKerningGroup = a;
unicode = 0061;
},
{
color = 6;
glyphname = ae;
lastChange = "2023-09-29 08:46:29 +0000";
layers = (
{
anchors = (
{
name = bottom;
position = "{427, 0}";
},
{
name = top;
position = "{427, 520}";
}
);
background = {
components = (
{
name = a;
},
{
name = e;
transform = "{1, 0, 0, 1, 334, 0}";
}
);
};
layerId = m01;
paths = (
{
closed = 1;
nodes = (
"387 325 LINE",
"154 298 OFFCURVE",
"57 240 OFFCURVE",
"57 135 CURVE SMOOTH",
"57 49 OFFCURVE",
"122 -10 OFFCURVE",
"220 -10 CURVE SMOOTH",
"306 -10 OFFCURVE",
"388 33 OFFCURVE",
"420 124 CURVE",
"394 122 LINE",
"432 38 OFFCURVE",
"506 -10 OFFCURVE",
"608 -10 CURVE SMOOTH",
"726 -10 OFFCURVE",
"817 67 OFFCURVE",
"820 170 CURVE",
"730 170 LINE",
"725 101 OFFCURVE",
"681 60 OFFCURVE",
"607 60 CURVE SMOOTH",
"513 60 OFFCURVE",
"461 125 OFFCURVE",
"455 244 CURVE",
"827 244 LINE",
"827 277 LINE SMOOTH",
"827 436 OFFCURVE",
"745 530 OFFCURVE",
"602 530 CURVE SMOOTH",
"521 530 OFFCURVE",
"449 493 OFFCURVE",
"418 428 CURVE",
"446 433 LINE",
"416 493 OFFCURVE",
"364 530 OFFCURVE",
"265 530 CURVE SMOOTH",
"143 530 OFFCURVE",
"60 460 OFFCURVE",
"57 365 CURVE",
"145 365 LINE",
"147 420 OFFCURVE",
"193 460 OFFCURVE",
"267 460 CURVE SMOOTH",
"338 460 OFFCURVE",
"381 425 OFFCURVE",
"381 355 CURVE SMOOTH",
"381 317 LINE"
);
},
{
closed = 1;
nodes = (
"473 409 OFFCURVE",
"522 460 OFFCURVE",
"600 460 CURVE SMOOTH",
"684 460 OFFCURVE",
"731 405 OFFCURVE",
"737 314 CURVE",
"459 314 LINE"
);
},
{
closed = 1;
nodes = (
"381 266 LINE",
"381 211 LINE SMOOTH",
"381 116 OFFCURVE",
"328 60 OFFCURVE",
"243 60 CURVE SMOOTH",
"181 60 OFFCURVE",
"145 89 OFFCURVE",
"145 139 CURVE SMOOTH",
"145 206 OFFCURVE",
"217 243 OFFCURVE",
"384 261 CURVE"
);
}
);
width = 873;
}
);
leftKerningGroup = a;
rightKerningGroup = e;
unicode = 00E6;
},
{
color = 6;
glyphname = b;
lastChange = "2023-09-29 08:46:29 +0000";
layers = (
{
anchors = (
{
name = bottom;
position = "{299, 0}";
},
{
name = top;
position = "{299, 800}";
}
);
background = {
paths = (
{
closed = 1;
nodes = (
"481 -10 OFFCURVE",
"559 108 OFFCURVE",
"559 259 CURVE SMOOTH",
"559 411 OFFCURVE",
"481 530 OFFCURVE",
"340 530 CURVE",
"323 460 LINE",
"412 460 OFFCURVE",
"464 376 OFFCURVE",
"464 259 CURVE SMOOTH",
"464 143 OFFCURVE",
"425 60 OFFCURVE",
"324 60 CURVE",
"340 -10 LINE"
);
},
{
closed = 1;
nodes = (
"88 -180 LINE",
"178 -180 LINE",
"178 105 LINE",
"163 97 LINE",
"195 27 OFFCURVE",
"257 -10 OFFCURVE",
"340 -10 CURVE",
"324 60 LINE",
"236 60 OFFCURVE",
"178 115 OFFCURVE",
"178 260 CURVE SMOOTH",
"178 260 LINE",
"88 320 LINE"
);
},
{
closed = 1;
nodes = (
"178 -180 LINE",
"178 260 LINE SMOOTH",
"178 393 OFFCURVE",
"236 460 OFFCURVE",
"323 460 CURVE",
"340 530 LINE",
"257 530 OFFCURVE",
"192 493 OFFCURVE",
"163 423 CURVE",
"173 415 LINE",
"173 520 LINE",
"88 520 LINE",
"88 -180 LINE"
);
}
);
};
layerId = m01;
paths = (
{
closed = 1;
nodes = (
"475 -10 OFFCURVE",
"553 107 OFFCURVE",
"553 261 CURVE SMOOTH",
"553 412 OFFCURVE",
"475 530 OFFCURVE",
"334 530 CURVE SMOOTH",
"251 530 OFFCURVE",
"189 493 OFFCURVE",
"157 423 CURVE",
"172 405 LINE",
"172 700 LINE",
"82 700 LINE",
"82 0 LINE",
"167 0 LINE",
"167 123 LINE",
"153 106 LINE",
"184 30 OFFCURVE",
"248 -10 OFFCURVE",
"334 -10 CURVE SMOOTH"
);
},
{
closed = 1;
nodes = (
"228 60 OFFCURVE",
"166 115 OFFCURVE",
"166 260 CURVE SMOOTH",
"166 405 OFFCURVE",
"228 460 OFFCURVE",
"313 460 CURVE SMOOTH",
"417 460 OFFCURVE",
"460 377 OFFCURVE",
"460 261 CURVE SMOOTH",
"460 134 OFFCURVE",
"412 60 OFFCURVE",
"313 60 CURVE SMOOTH"
);
}
);
width = 598;
}
);
leftKerningGroup = h;
rightKerningGroup = b;
unicode = 0062;
},
{
color = 6;
glyphname = c;
lastChange = "2023-09-29 08:46:29 +0000";
layers = (
{
anchors = (
{
name = bottom;
position = "{293, 0}";
},
{
name = top;
position = "{281, 520}";
}
);
layerId = m01;
paths = (
{
closed = 1;
nodes = (
"400 -10 OFFCURVE",
"500 58 OFFCURVE",
"503 170 CURVE",
"413 170 LINE",
"408 95 OFFCURVE",
"356 60 OFFCURVE",
"291 60 CURVE SMOOTH",
"186 60 OFFCURVE",
"140 141 OFFCURVE",
"140 260 CURVE SMOOTH",
"140 379 OFFCURVE",
"188 460 OFFCURVE",
"293 460 CURVE SMOOTH",
"357 460 OFFCURVE",
"408 427 OFFCURVE",
"412 357 CURVE",
"501 357 LINE",
"500 464 OFFCURVE",
"402 530 OFFCURVE",
"293 530 CURVE SMOOTH",
"134 530 OFFCURVE",
"45 416 OFFCURVE",
"45 260 CURVE SMOOTH",
"45 104 OFFCURVE",
"132 -10 OFFCURVE",
"291 -10 CURVE SMOOTH"
);
}
);
width = 544;
}
);
leftKerningGroup = o;
rightKerningGroup = c;
unicode = 0063;
},
{
color = 6;
glyphname = d;
lastChange = "2023-09-29 08:46:29 +0000";
layers = (
{
anchors = (
{
name = bottom;
position = "{299, 0}";
},
{
name = center;
position = "{299, 260}";
},
{
name = top;
position = "{299, 700}";
},
{
name = topright;
position = "{574, 520}";
}
);
layerId = m01;
paths = (
{
closed = 1;
nodes = (
"350 -10 OFFCURVE",
"414 30 OFFCURVE",
"445 106 CURVE",
"431 123 LINE",
"431 0 LINE",
"516 0 LINE",
"516 700 LINE",
"426 700 LINE",
"426 405 LINE",
"441 423 LINE",
"409 493 OFFCURVE",
"347 530 OFFCURVE",
"264 530 CURVE SMOOTH",
"123 530 OFFCURVE",
"45 412 OFFCURVE",
"45 261 CURVE SMOOTH",
"45 107 OFFCURVE",
"123 -10 OFFCURVE",
"264 -10 CURVE SMOOTH"
);
},
{
closed = 1;
nodes = (
"186 60 OFFCURVE",
"138 134 OFFCURVE",
"138 261 CURVE SMOOTH",
"138 377 OFFCURVE",
"181 460 OFFCURVE",
"285 460 CURVE SMOOTH",
"370 460 OFFCURVE",
"432 405 OFFCURVE",
"432 260 CURVE SMOOTH",
"432 115 OFFCURVE",
"370 60 OFFCURVE",
"285 60 CURVE SMOOTH"
);
}
);
width = 598;
}
);
leftKerningGroup = d;
rightKerningGroup = d;
unicode = 0064;
},
{
color = 3;
glyphname = dcaron;
lastChange = "2023-09-29 08:46:29 +0000";
layers = (
{
components = (
{
name = d;
}
);
layerId = m01;
paths = (
{
closed = 1;
nodes = (
"630 507 OFFCURVE",
"685 561 OFFCURVE",
"685 632 CURVE SMOOTH",
"685 676 OFFCURVE",
"658 710 OFFCURVE",
"614 710 CURVE SMOOTH",
"580 710 OFFCURVE",
"556 686 OFFCURVE",
"556 656 CURVE SMOOTH",
"556 623 OFFCURVE",
"580 600 OFFCURVE",
"611 600 CURVE SMOOTH",
"632 600 OFFCURVE",
"646 608 OFFCURVE",
"658 623 CURVE",
"635 611 LINE",
"634 575 OFFCURVE",
"600 551 OFFCURVE",
"560 541 CURVE",
"560 497 LINE"
);
}
);
width = 621;
}
);
leftKerningGroup = d;
rightKerningGroup = dcaron;
unicode = 010F;
},
{
color = 3;
glyphname = dcroat;
lastChange = "2023-09-29 08:46:29 +0000";
layers = (
{
components = (
{
name = d;
}
);
layerId = m01;
paths = (
{
closed = 1;
nodes = (
"572 566 LINE",
"572 630 LINE",
"304 630 LINE",
"304 566 LINE"
);
}
);
width = 596;
}
);
leftKerningGroup = d;
rightKerningGroup = d;
unicode = 0111;
},
{
color = 6;
glyphname = eth;
lastChange = "2023-09-29 08:46:29 +0000";
layers = (
{
layerId = m01;
paths = (
{
closed = 1;
nodes = (
"412 -10 OFFCURVE",
"490 105 OFFCURVE",
"490 301 CURVE SMOOTH",
"490 453 OFFCURVE",
"434 586 OFFCURVE",
"288 700 CURVE",
"196 700 LINE",
"362 563 OFFCURVE",
"403 471 OFFCURVE",
"413 343 CURVE",
"422 335 LINE",
"402 429 OFFCURVE",
"335 477 OFFCURVE",
"246 477 CURVE SMOOTH",
"125 477 OFFCURVE",
"44 390 OFFCURVE",
"44 237 CURVE SMOOTH",
"44 81 OFFCURVE",
"132 -10 OFFCURVE",
"262 -10 CURVE SMOOTH"
);
},
{
closed = 1;
nodes = (
"188 60 OFFCURVE",
"137 122 OFFCURVE",
"137 236 CURVE SMOOTH",
"137 350 OFFCURVE",
"184 407 OFFCURVE",
"260 407 CURVE SMOOTH",
"339 407 OFFCURVE",
"395 346 OFFCURVE",
"395 239 CURVE SMOOTH",
"395 124 OFFCURVE",
"343 60 OFFCURVE",
"265 60 CURVE SMOOTH"
);
},
{
closed = 1;
nodes = (
"511 630 LINE",
"494 688 LINE",
"186 568 LINE",
"203 510 LINE"
);
}
);
width = 543;
},
{
associatedMasterId = m01;
layerId = "E649E523-572D-4E92-878A-576F466F44C0";
name = "18 Nov 21, 12:33";
paths = (
{
closed = 1;
nodes = (
"214 60 OFFCURVE",
"163 122 OFFCURVE",
"163 216 CURVE SMOOTH",
"163 309 OFFCURVE",
"210 366 OFFCURVE",
"286 366 CURVE SMOOTH",
"365 366 OFFCURVE",
"421 305 OFFCURVE",
"421 219 CURVE SMOOTH",
"421 124 OFFCURVE",
"369 60 OFFCURVE",
"291 60 CURVE SMOOTH"
);
},
{
closed = 1;
nodes = (
"433 303 LINE",
"441 333 LINE",
"411 399 OFFCURVE",
"350 436 OFFCURVE",
"272 436 CURVE SMOOTH",
"151 436 OFFCURVE",
"70 349 OFFCURVE",
"70 217 CURVE SMOOTH",
"70 81 OFFCURVE",
"158 -10 OFFCURVE",
"288 -10 CURVE SMOOTH",
"444 -10 OFFCURVE",
"523 113 OFFCURVE",
"523 337 CURVE SMOOTH",
"523 527 LINE SMOOTH",
"523 636 OFFCURVE",
"483 663 OFFCURVE",
"395 663 CURVE SMOOTH",
"128 663 LINE",
"128 593 LINE",
"366 593 LINE SMOOTH",
"415 593 OFFCURVE",
"433 588 OFFCURVE",
"433 520 CURVE SMOOTH"
);
},
{
closed = 1;
nodes = (
"297 760 LINE",
"227 760 LINE",
"227 496 LINE",
"297 496 LINE"
);
}
);
width = 600;
},
{
associatedMasterId = m01;
layerId = "74F950F2-4C5F-451A-9318-8DBB2D6E14F0";
name = "Nov 19 21, 13:09";
paths = (
{
closed = 1;
nodes = (
"185 60 OFFCURVE",
"134 122 OFFCURVE",
"134 216 CURVE SMOOTH",
"134 309 OFFCURVE",
"181 366 OFFCURVE",
"257 366 CURVE SMOOTH",
"336 366 OFFCURVE",
"392 305 OFFCURVE",
"392 219 CURVE SMOOTH",
"392 124 OFFCURVE",
"340 60 OFFCURVE",
"262 60 CURVE SMOOTH"
);
},
{
closed = 1;
nodes = (
"213 700 LINE",
"354 567 OFFCURVE",
"406 453 OFFCURVE",
"406 303 CURVE",
"412 333 LINE",
"382 399 OFFCURVE",
"321 436 OFFCURVE",
"243 436 CURVE SMOOTH",
"122 436 OFFCURVE",
"41 349 OFFCURVE",
"41 217 CURVE SMOOTH",
"41 81 OFFCURVE",
"129 -10 OFFCURVE",
"259 -10 CURVE SMOOTH",
"409 -10 OFFCURVE",
"497 105 OFFCURVE",
"497 301 CURVE SMOOTH",
"497 453 OFFCURVE",
"431 586 OFFCURVE",
"305 700 CURVE"
);
},
{
closed = 1;
nodes = (
"203 494 LINE",
"531 594 LINE",
"511 658 LINE",
"183 558 LINE"
);
}
);
width = 574;
}
);
unicode = 00F0;
},
{
color = 6;
glyphname = e;
lastChange = "2023-09-29 08:46:29 +0000";
layers = (
{
anchors = (
{
name = bottom;
position = "{286, 0}";
},
{
name = ogonek;
position = "{356, 0}";
},
{
name = top;
position = "{278, 520}";
}
);
associatedMasterId = m01;
background = {
components = (
{
name = o;
transform = "{1, 0, 0, 1, -8, 0}";
}
);
};
layerId = "AC5447EC-0EDB-4C1A-8D5D-DEEAE53F10ED";
name = "Dec 6 21, 12:05";
paths = (
{
closed = 1;
nodes = (
"403 -10 OFFCURVE",
"490 67 OFFCURVE",
"493 170 CURVE",
"405 170 LINE",
"400 101 OFFCURVE",
"357 60 OFFCURVE",
"284 60 CURVE SMOOTH",
"186 60 OFFCURVE",
"131 131 OFFCURVE",
"131 260 CURVE SMOOTH",
"131 389 OFFCURVE",
"186 460 OFFCURVE",
"278 460 CURVE SMOOTH",
"359 460 OFFCURVE",
"407 405 OFFCURVE",
"413 314 CURVE",
"118 314 LINE",
"118 244 LINE",
"500 244 LINE",
"500 282 LINE SMOOTH",
"500 433 OFFCURVE",
"421 530 OFFCURVE",
"278 530 CURVE SMOOTH",
"134 530 OFFCURVE",
"41 425 OFFCURVE",
"41 260 CURVE SMOOTH",
"41 95 OFFCURVE",
"133 -10 OFFCURVE",
"284 -10 CURVE SMOOTH"
);
}
);
width = 544;
},
{
anchors = (
{
name = bottom;
position = "{289, 0}";
},
{
name = ogonek;
position = "{359, 0}";
},
{
name = top;
position = "{281, 520}";
}
);
layerId = m01;
paths = (
{
closed = 1;
nodes = (
"409 -10 OFFCURVE",
"499 67 OFFCURVE",
"502 170 CURVE",
"412 170 LINE",
"407 101 OFFCURVE",
"362 60 OFFCURVE",
"290 60 CURVE SMOOTH",
"191 60 OFFCURVE",
"136 131 OFFCURVE",
"136 260 CURVE SMOOTH",
"136 389 OFFCURVE",
"191 460 OFFCURVE",
"284 460 CURVE SMOOTH",
"366 460 OFFCURVE",
"413 405 OFFCURVE",
"419 314 CURVE",
"124 314 LINE",
"124 244 LINE",
"509 244 LINE",
"509 277 LINE SMOOTH",
"509 436 OFFCURVE",
"427 530 OFFCURVE",
"284 530 CURVE SMOOTH",
"140 530 OFFCURVE",
"44 425 OFFCURVE",
"44 260 CURVE SMOOTH",
"44 95 OFFCURVE",
"139 -10 OFFCURVE",
"290 -10 CURVE SMOOTH"
);
}
);
width = 555;
}
);
leftKerningGroup = o;
rightKerningGroup = e;
unicode = 0065;
},
{
color = 6;
glyphname = f;
lastChange = "2023-09-29 08:46:29 +0000";
layers = (
{
anchors = (
{
name = bottom;
position = "{177, 0}";
},
{
name = top;
position = "{177, 800}";
}
);
layerId = m01;
paths = (
{
closed = 1;
nodes = (
"207 0 LINE",
"207 557 LINE SMOOTH",
"207 625 OFFCURVE",
"225 630 OFFCURVE",
"274 630 CURVE SMOOTH",
"345 630 LINE",
"345 700 LINE",
"245 700 LINE SMOOTH",
"157 700 OFFCURVE",
"117 673 OFFCURVE",
"117 564 CURVE SMOOTH",
"117 0 LINE"
);
},
{
closed = 1;
nodes = (
"345 450 LINE",
"345 520 LINE",
"17 520 LINE",
"17 450 LINE"
);
}
);
width = 358;
}
);
leftKerningGroup = f;
rightKerningGroup = f;
unicode = 0066;
},
{
color = 6;
glyphname = g;
lastChange = "2023-09-29 08:46:29 +0000";
layers = (
{
anchors = (
{
name = bottom;
position = "{299, -257}";
},
{
name = top;
position = "{287, 520}";
}
);
guideLines = (
{
angle = 90;
position = "{453, 348}";
}
);
layerId = m01;
paths = (
{
closed = 1;
nodes = (
"347 -10 OFFCURVE",
"409 27 OFFCURVE",
"441 97 CURVE",
"426 115 LINE",
"426 0 LINE",
"516 -8 LINE",
"516 520 LINE",
"431 520 LINE",
"431 397 LINE",
"445 414 LINE",
"414 490 OFFCURVE",
"350 530 OFFCURVE",
"264 530 CURVE SMOOTH",
"123 530 OFFCURVE",
"45 413 OFFCURVE",
"45 259 CURVE SMOOTH",
"45 108 OFFCURVE",
"123 -10 OFFCURVE",
"264 -10 CURVE SMOOTH"
);
},
{
closed = 1;
nodes = (
"171 -84 LINE",
"171 -59 LINE",
"79 -59 LINE",
"79 -84 LINE"
);
},
{
closed = 1;
nodes = (
"416 -257 OFFCURVE",
"516 -199 OFFCURVE",
"516 -8 CURVE",
"426 0 LINE",
"426 -125 OFFCURVE",
"383 -187 OFFCURVE",
"283 -187 CURVE SMOOTH",
"201 -187 OFFCURVE",
"171 -145 OFFCURVE",
"171 -84 CURVE",
"79 -84 LINE",
"80 -186 OFFCURVE",
"140 -257 OFFCURVE",
"284 -257 CURVE SMOOTH"
);
},
{
closed = 1;
nodes = (
"181 60 OFFCURVE",
"138 143 OFFCURVE",
"138 259 CURVE SMOOTH",
"138 386 OFFCURVE",
"186 460 OFFCURVE",
"285 460 CURVE SMOOTH",
"370 460 OFFCURVE",
"432 405 OFFCURVE",
"432 260 CURVE SMOOTH",
"432 115 OFFCURVE",
"370 60 OFFCURVE",
"285 60 CURVE SMOOTH"
);
}
);
width = 598;
},
{
associatedMasterId = m01;
layerId = "49316BA9-CB1D-42F6-BB96-564A92E5C437";
name = "4 Oct 21, 14:16";
paths = (
{
closed = 1;
nodes = (
"343 -10 OFFCURVE",
"405 27 OFFCURVE",
"437 97 CURVE",
"422 115 LINE",
"422 -46 LINE",
"512 -44 LINE",
"512 520 LINE",
"427 520 LINE",
"427 397 LINE",
"441 414 LINE",
"410 490 OFFCURVE",
"346 530 OFFCURVE",
"260 530 CURVE SMOOTH",
"119 530 OFFCURVE",
"41 413 OFFCURVE",
"41 259 CURVE SMOOTH",
"41 108 OFFCURVE",
"119 -10 OFFCURVE",
"260 -10 CURVE SMOOTH"
);
},
{
closed = 1;
nodes = (
"428 115 OFFCURVE",
"366 60 OFFCURVE",
"281 60 CURVE SMOOTH",
"177 60 OFFCURVE",
"134 143 OFFCURVE",
"134 259 CURVE SMOOTH",
"134 386 OFFCURVE",
"182 460 OFFCURVE",
"281 460 CURVE SMOOTH",
"366 460 OFFCURVE",
"428 405 OFFCURVE",
"428 260 CURVE SMOOTH"
);
},
{
closed = 1;
nodes = (
"422 -132 OFFCURVE",
"390 -188 OFFCURVE",
"295 -188 CURVE SMOOTH",
"209 -188 OFFCURVE",
"169 -146 OFFCURVE",
"167 -85 CURVE",
"75 -85 LINE",
"78 -187 OFFCURVE",
"158 -258 OFFCURVE",
"293 -258 CURVE SMOOTH",
"423 -258 OFFCURVE",
"512 -196 OFFCURVE",
"512 -44 CURVE",
"422 -46 LINE"
);
}
);
width = 600;
},
{
associatedMasterId = m01;
layerId = "7083BD05-505D-430A-BE8D-799E60393C3A";
name = "5 Oct 21, 10:20";
paths = (
{
closed = 1;
nodes = (
"420 -258 OFFCURVE",
"515 -189 OFFCURVE",
"515 -65 CURVE SMOOTH",
"515 31 OFFCURVE",
"446 87 OFFCURVE",
"337 87 CURVE SMOOTH",
"184 87 LINE SMOOTH",
"154 87 OFFCURVE",
"137 102 OFFCURVE",
"137 124 CURVE SMOOTH",
"137 143 OFFCURVE",
"150 163 OFFCURVE",
"179 189 CURVE",
"121 211 LINE",
"73 167 OFFCURVE",
"56 137 OFFCURVE",
"56 100 CURVE SMOOTH",
"56 40 OFFCURVE",
"105 0 OFFCURVE",
"182 0 CURVE SMOOTH",
"318 0 LINE SMOOTH",
"394 0 OFFCURVE",
"425 -19 OFFCURVE",
"425 -77 CURVE SMOOTH",
"425 -151 OFFCURVE",
"368 -191 OFFCURVE",
"261 -191 CURVE SMOOTH",
"171 -191 OFFCURVE",
"120 -155 OFFCURVE",
"120 -93 CURVE SMOOTH",
"120 -52 OFFCURVE",
"142 -22 OFFCURVE",
"182 0 CURVE",
"119 23 LINE",
"54 -21 OFFCURVE",
"30 -57 OFFCURVE",
"30 -109 CURVE SMOOTH",
"30 -205 OFFCURVE",
"108 -258 OFFCURVE",
"249 -258 CURVE SMOOTH"
);
},
{
closed = 1;
nodes = (
"369 175 OFFCURVE",
"447 244 OFFCURVE",
"447 353 CURVE SMOOTH",
"447 462 OFFCURVE",
"369 530 OFFCURVE",
"244 530 CURVE SMOOTH",
"119 530 OFFCURVE",
"41 462 OFFCURVE",
"41 353 CURVE SMOOTH",
"41 244 OFFCURVE",
"119 175 OFFCURVE",
"244 175 CURVE SMOOTH"
);
},
{
closed = 1;
nodes = (
"173 242 OFFCURVE",
"131 283 OFFCURVE",
"131 353 CURVE SMOOTH",
"131 422 OFFCURVE",
"173 463 OFFCURVE",
"244 463 CURVE SMOOTH",
"315 463 OFFCURVE",
"357 422 OFFCURVE",
"357 353 CURVE SMOOTH",
"357 283 OFFCURVE",
"315 242 OFFCURVE",
"244 242 CURVE SMOOTH"
);
},
{
closed = 1;
nodes = (
"414 459 LINE",
"413 496 OFFCURVE",
"432 513 OFFCURVE",
"472 513 CURVE SMOOTH",
"482 513 OFFCURVE",
"489 512 OFFCURVE",
"503 510 CURVE",
"503 579 LINE",
"494 582 OFFCURVE",
"481 583 OFFCURVE",
"460 583 CURVE SMOOTH",
"390 583 OFFCURVE",
"353 544 OFFCURVE",
"353 470 CURVE"
);
}
);
width = 525;
},
{
associatedMasterId = m01;
layerId = "83D3DEA1-EF13-448A-BFA9-0E6D03C3DAE2";
name = "5 Oct 21, 10:51";
paths = (
{
closed = 1;
nodes = (
"419 -258 OFFCURVE",
"515 -190 OFFCURVE",
"515 -70 CURVE SMOOTH",
"515 29 OFFCURVE",
"449 87 OFFCURVE",
"317 87 CURVE SMOOTH",
"184 87 LINE SMOOTH",
"155 87 OFFCURVE",
"137 101 OFFCURVE",
"137 124 CURVE SMOOTH",
"137 143 OFFCURVE",
"150 163 OFFCURVE",
"179 189 CURVE",
"121 211 LINE",
"74 168 OFFCURVE",
"56 137 OFFCURVE",
"56 100 CURVE SMOOTH",
"56 39 OFFCURVE",
"106 0 OFFCURVE",
"182 0 CURVE SMOOTH",
"318 0 LINE SMOOTH",
"396 0 OFFCURVE",
"425 -20 OFFCURVE",
"425 -74 CURVE SMOOTH",
"425 -151 OFFCURVE",
"368 -191 OFFCURVE",
"261 -191 CURVE SMOOTH",
"171 -191 OFFCURVE",
"120 -155 OFFCURVE",
"120 -93 CURVE SMOOTH",
"120 -54 OFFCURVE",
"141 -23 OFFCURVE",
"182 0 CURVE",
"119 23 LINE",
"54 -21 OFFCURVE",
"30 -57 OFFCURVE",
"30 -109 CURVE SMOOTH",
"30 -205 OFFCURVE",
"108 -258 OFFCURVE",
"249 -258 CURVE SMOOTH"
);
},
{
closed = 1;
nodes = (
"369 175 OFFCURVE",
"447 244 OFFCURVE",
"447 353 CURVE SMOOTH",
"447 462 OFFCURVE",
"369 530 OFFCURVE",
"244 530 CURVE SMOOTH",
"119 530 OFFCURVE",
"41 462 OFFCURVE",
"41 353 CURVE SMOOTH",
"41 244 OFFCURVE",
"119 175 OFFCURVE",
"244 175 CURVE SMOOTH"
);
},
{
closed = 1;
nodes = (
"173 242 OFFCURVE",
"131 283 OFFCURVE",
"131 353 CURVE SMOOTH",
"131 422 OFFCURVE",
"173 463 OFFCURVE",
"244 463 CURVE SMOOTH",
"315 463 OFFCURVE",
"357 422 OFFCURVE",
"357 353 CURVE SMOOTH",
"357 283 OFFCURVE",
"315 242 OFFCURVE",
"244 242 CURVE SMOOTH"
);
},
{
closed = 1;
nodes = (
"374 437 LINE",
"505 510 LINE",
"469 579 LINE",
"338 501 LINE"
);
}
);
width = 525;
},
{
associatedMasterId = m01;
guideLines = (
{
angle = 90;
position = "{447, 348}";
}
);
layerId = "F4A7DB2A-FC23-4B75-BD2C-518750AC7E8E";
name = "Oct 5 21, 20:36";
paths = (
{
closed = 1;
nodes = (
"436 -258 OFFCURVE",
"522 -181 OFFCURVE",
"522 -76 CURVE SMOOTH",
"522 20 OFFCURVE",
"466 80 OFFCURVE",
"339 80 CURVE SMOOTH",
"203 80 LINE SMOOTH",
"152 80 OFFCURVE",
"127 96 OFFCURVE",
"127 125 CURVE SMOOTH",
"127 145 OFFCURVE",
"139 171 OFFCURVE",
"194 181 CURVE",
"169 225 LINE",
"90 211 OFFCURVE",
"44 166 OFFCURVE",
"44 115 CURVE SMOOTH",
"44 53 OFFCURVE",
"102 10 OFFCURVE",
"183 10 CURVE SMOOTH",
"319 10 LINE SMOOTH",
"396 10 OFFCURVE",
"434 -22 OFFCURVE",
"434 -87 CURVE SMOOTH",
"434 -164 OFFCURVE",
"363 -190 OFFCURVE",
"279 -190 CURVE SMOOTH",
"172 -190 OFFCURVE",
"129 -148 OFFCURVE",
"129 -90 CURVE SMOOTH",
"129 -20 OFFCURVE",
"170 10 OFFCURVE",
"234 10 CURVE",
"151 37 LINE",
"74 16 OFFCURVE",
"41 -34 OFFCURVE",
"41 -101 CURVE SMOOTH",
"41 -193 OFFCURVE",
"118 -258 OFFCURVE",
"274 -258 CURVE SMOOTH"
);
},
{
closed = 1;
nodes = (
"396 165 OFFCURVE",
"463 240 OFFCURVE",
"463 348 CURVE SMOOTH",
"463 456 OFFCURVE",
"386 530 OFFCURVE",
"264 530 CURVE SMOOTH",
"142 530 OFFCURVE",
"65 456 OFFCURVE",
"65 348 CURVE SMOOTH",
"65 240 OFFCURVE",
"122 165 OFFCURVE",
"264 165 CURVE SMOOTH"
);
},
{
closed = 1;
nodes = (
"196 232 OFFCURVE",
"155 279 OFFCURVE",
"155 348 CURVE SMOOTH",
"155 416 OFFCURVE",
"196 463 OFFCURVE",
"264 463 CURVE SMOOTH",
"332 463 OFFCURVE",
"373 416 OFFCURVE",
"373 348 CURVE SMOOTH",
"373 279 OFFCURVE",
"332 232 OFFCURVE",
"264 232 CURVE SMOOTH"
);
}
);
width = 525;
},
{
associatedMasterId = m01;
guideLines = (
{
angle = 90;
position = "{447, 348}";
}
);
layerId = "3CD3CF8F-C54C-41F9-B8BC-D006F4786E70";
name = "Oct 5 21, 20:41";
paths = (
{
closed = 1;
nodes = (
"436 -258 OFFCURVE",
"522 -181 OFFCURVE",
"522 -76 CURVE SMOOTH",
"522 20 OFFCURVE",
"466 80 OFFCURVE",
"339 80 CURVE SMOOTH",
"203 80 LINE SMOOTH",
"152 80 OFFCURVE",
"127 96 OFFCURVE",
"127 125 CURVE SMOOTH",
"127 145 OFFCURVE",
"139 171 OFFCURVE",
"194 181 CURVE",
"169 225 LINE",
"90 211 OFFCURVE",
"44 166 OFFCURVE",
"44 115 CURVE SMOOTH",
"44 53 OFFCURVE",
"102 10 OFFCURVE",
"183 10 CURVE SMOOTH",
"319 10 LINE SMOOTH",
"396 10 OFFCURVE",
"434 -22 OFFCURVE",
"434 -87 CURVE SMOOTH",
"434 -164 OFFCURVE",
"363 -190 OFFCURVE",
"279 -190 CURVE SMOOTH",
"172 -190 OFFCURVE",
"129 -148 OFFCURVE",
"129 -90 CURVE SMOOTH",
"129 -20 OFFCURVE",
"170 10 OFFCURVE",
"234 10 CURVE",
"151 37 LINE",
"74 16 OFFCURVE",
"41 -34 OFFCURVE",
"41 -101 CURVE SMOOTH",
"41 -193 OFFCURVE",
"118 -258 OFFCURVE",
"274 -258 CURVE SMOOTH"
);
},
{
closed = 1;
nodes = (
"396 165 OFFCURVE",
"463 240 OFFCURVE",
"463 348 CURVE SMOOTH",
"463 456 OFFCURVE",
"386 530 OFFCURVE",
"264 530 CURVE SMOOTH",
"142 530 OFFCURVE",
"65 456 OFFCURVE",
"65 348 CURVE SMOOTH",
"65 240 OFFCURVE",
"122 165 OFFCURVE",
"264 165 CURVE SMOOTH"
);
},
{
closed = 1;
nodes = (
"196 232 OFFCURVE",
"155 279 OFFCURVE",
"155 348 CURVE SMOOTH",
"155 416 OFFCURVE",
"196 463 OFFCURVE",
"264 463 CURVE SMOOTH",
"332 463 OFFCURVE",
"373 416 OFFCURVE",
"373 348 CURVE SMOOTH",
"373 279 OFFCURVE",
"332 232 OFFCURVE",
"264 232 CURVE SMOOTH"
);
},
{
closed = 1;
nodes = (
"425 457 LINE",
"476 504 OFFCURVE",
"497 549 OFFCURVE",
"497 607 CURVE",
"411 607 LINE",
"411 538 OFFCURVE",
"394 505 OFFCURVE",
"338 463 CURVE"
);
}
);
width = 525;
},
{
associatedMasterId = m01;
guideLines = (
{
angle = 90;
position = "{447, 348}";
}
);
layerId = "6E465704-33CA-48CA-B3C6-0BD9B6DFE1B6";
name = "Oct 7 21, 11:58";
paths = (
{
closed = 1;
nodes = (
"426 -258 OFFCURVE",
"499 -178 OFFCURVE",
"499 -73 CURVE SMOOTH",
"499 13 OFFCURVE",
"442 82 OFFCURVE",
"325 82 CURVE SMOOTH",
"193 82 LINE SMOOTH",
"152 82 OFFCURVE",
"127 92 OFFCURVE",
"127 121 CURVE SMOOTH",
"127 151 OFFCURVE",
"145 165 OFFCURVE",
"244 165 CURVE",
"196 210 LINE",
"60 211 OFFCURVE",
"44 146 OFFCURVE",
"44 109 CURVE SMOOTH",
"44 43 OFFCURVE",
"102 0 OFFCURVE",
"183 0 CURVE SMOOTH",
"316 0 LINE SMOOTH",
"380 0 OFFCURVE",
"409 -29 OFFCURVE",
"409 -84 CURVE SMOOTH",
"409 -151 OFFCURVE",
"351 -191 OFFCURVE",
"259 -191 CURVE SMOOTH",
"172 -191 OFFCURVE",
"131 -148 OFFCURVE",
"131 -90 CURVE SMOOTH",
"131 -30 OFFCURVE",
"170 0 OFFCURVE",
"234 0 CURVE",
"151 37 LINE",
"77 7 OFFCURVE",
"41 -44 OFFCURVE",
"41 -101 CURVE SMOOTH",
"41 -193 OFFCURVE",
"118 -258 OFFCURVE",
"254 -258 CURVE SMOOTH"
);
},
{
closed = 1;
nodes = (
"370 165 OFFCURVE",
"447 240 OFFCURVE",
"447 348 CURVE SMOOTH",
"447 456 OFFCURVE",
"370 530 OFFCURVE",
"244 530 CURVE SMOOTH",
"118 530 OFFCURVE",
"41 456 OFFCURVE",
"41 348 CURVE SMOOTH",
"41 240 OFFCURVE",
"118 165 OFFCURVE",
"244 165 CURVE SMOOTH"
);
},
{
closed = 1;
nodes = (
"172 232 OFFCURVE",
"131 279 OFFCURVE",
"131 348 CURVE SMOOTH",
"131 416 OFFCURVE",
"172 463 OFFCURVE",
"244 463 CURVE SMOOTH",
"316 463 OFFCURVE",
"357 416 OFFCURVE",
"357 348 CURVE SMOOTH",
"357 279 OFFCURVE",
"316 232 OFFCURVE",
"244 232 CURVE SMOOTH"
);
},
{
closed = 1;
nodes = (
"413 457 LINE",
"464 504 OFFCURVE",
"485 549 OFFCURVE",
"485 607 CURVE",
"399 607 LINE",
"399 538 OFFCURVE",
"382 505 OFFCURVE",
"326 463 CURVE"
);
}
);
width = 504;
},
{
associatedMasterId = m01;
guideLines = (
{
angle = 90;
position = "{447, 348}";
}
);
layerId = "15F81A93-547D-4D5E-8848-8D02AA29D00A";
name = "12 Oct 21, 11:11";
paths = (
{
closed = 1;
nodes = (
"426 -258 OFFCURVE",
"499 -178 OFFCURVE",
"499 -73 CURVE SMOOTH",
"499 13 OFFCURVE",
"436 82 OFFCURVE",
"319 82 CURVE SMOOTH",
"203 82 LINE SMOOTH",
"152 82 OFFCURVE",
"127 92 OFFCURVE",
"127 131 CURVE SMOOTH",
"127 151 OFFCURVE",
"143 171 OFFCURVE",
"178 186 CURVE",
"129 220 LINE",
"70 191 OFFCURVE",
"44 156 OFFCURVE",
"44 115 CURVE SMOOTH",
"44 53 OFFCURVE",
"102 0 OFFCURVE",
"183 0 CURVE SMOOTH",
"310 0 LINE SMOOTH",
"374 0 OFFCURVE",
"409 -29 OFFCURVE",
"409 -84 CURVE SMOOTH",
"409 -151 OFFCURVE",
"351 -191 OFFCURVE",
"259 -191 CURVE SMOOTH",
"172 -191 OFFCURVE",
"131 -148 OFFCURVE",
"131 -90 CURVE SMOOTH",
"131 -30 OFFCURVE",
"170 0 OFFCURVE",
"234 0 CURVE",
"151 37 LINE",
"77 7 OFFCURVE",
"41 -44 OFFCURVE",
"41 -101 CURVE SMOOTH",
"41 -193 OFFCURVE",
"118 -258 OFFCURVE",
"254 -258 CURVE SMOOTH"
);
},
{
closed = 1;
nodes = (
"370 165 OFFCURVE",
"447 240 OFFCURVE",
"447 348 CURVE SMOOTH",
"447 456 OFFCURVE",
"370 530 OFFCURVE",
"244 530 CURVE SMOOTH",
"118 530 OFFCURVE",
"41 456 OFFCURVE",
"41 348 CURVE SMOOTH",
"41 240 OFFCURVE",
"118 165 OFFCURVE",
"244 165 CURVE SMOOTH"
);
},
{
closed = 1;
nodes = (
"172 232 OFFCURVE",
"131 279 OFFCURVE",
"131 348 CURVE SMOOTH",
"131 416 OFFCURVE",
"172 463 OFFCURVE",
"244 463 CURVE SMOOTH",
"316 463 OFFCURVE",
"357 416 OFFCURVE",
"357 348 CURVE SMOOTH",
"357 279 OFFCURVE",
"316 232 OFFCURVE",
"244 232 CURVE SMOOTH"
);
},
{
closed = 1;
nodes = (
"413 457 LINE",
"464 504 OFFCURVE",
"485 549 OFFCURVE",
"485 607 CURVE",
"399 607 LINE",
"399 538 OFFCURVE",
"382 505 OFFCURVE",
"326 463 CURVE"
);
}
);
width = 504;
},
{
associatedMasterId = m01;
guideLines = (
{
angle = 90;
position = "{447, 348}";
}
);
layerId = "3FAB577B-46ED-47ED-8B6B-35AB0CA2277B";
name = "12 Oct 21, 11:12";
paths = (
{
closed = 1;
nodes = (
"343 -10 OFFCURVE",
"405 27 OFFCURVE",
"437 97 CURVE",
"422 115 LINE",
"422 -40 LINE",
"512 -38 LINE",
"512 520 LINE",
"427 520 LINE",
"427 397 LINE",
"441 414 LINE",
"410 490 OFFCURVE",
"346 530 OFFCURVE",
"260 530 CURVE SMOOTH",
"119 530 OFFCURVE",
"41 413 OFFCURVE",
"41 259 CURVE SMOOTH",
"41 108 OFFCURVE",
"119 -10 OFFCURVE",
"260 -10 CURVE SMOOTH"
);
},
{
closed = 1;
nodes = (
"428 115 OFFCURVE",
"366 60 OFFCURVE",
"281 60 CURVE SMOOTH",
"177 60 OFFCURVE",
"134 143 OFFCURVE",
"134 259 CURVE SMOOTH",
"134 386 OFFCURVE",
"182 460 OFFCURVE",
"281 460 CURVE SMOOTH",
"366 460 OFFCURVE",
"428 405 OFFCURVE",
"428 260 CURVE SMOOTH"
);
},
{
closed = 1;
nodes = (
"422 -126 OFFCURVE",
"390 -188 OFFCURVE",
"285 -188 CURVE SMOOTH",
"199 -188 OFFCURVE",
"167 -146 OFFCURVE",
"167 -85 CURVE",
"75 -85 LINE",
"76 -187 OFFCURVE",
"148 -258 OFFCURVE",
"283 -258 CURVE SMOOTH",
"423 -258 OFFCURVE",
"512 -190 OFFCURVE",
"512 -38 CURVE",
"422 -40 LINE"
);
},
{
closed = 1;
nodes = (
"75 -85 LINE",
"167 -85 LINE",
"167 -60 LINE",
"75 -60 LINE"
);
}
);
width = 590;
}
);
leftKerningGroup = g;
rightKerningGroup = u;
unicode = 0067;
},
{
color = 6;
glyphname = h;
lastChange = "2023-09-29 08:46:29 +0000";
layers = (
{
anchors = (
{
name = bottom;
position = "{296, 0}";
},
{
name = center;
position = "{296, 400}";
},
{
name = top;
position = "{127, 700}";
}
);
layerId = m01;
paths = (
{
closed = 1;
nodes = (
"172 0 LINE",
"172 276 LINE SMOOTH",
"172 410 OFFCURVE",
"237 457 OFFCURVE",
"311 457 CURVE SMOOTH",
"377 457 OFFCURVE",
"424 424 OFFCURVE",
"424 320 CURVE SMOOTH",
"424 0 LINE",
"514 0 LINE",
"514 340 LINE SMOOTH",
"514 472 OFFCURVE",
"441 530 OFFCURVE",
"328 530 CURVE SMOOTH",
"261 530 OFFCURVE",
"190 501 OFFCURVE",
"157 423 CURVE",
"172 415 LINE",
"172 700 LINE",
"82 700 LINE",
"82 0 LINE"
);
}
);
width = 590;
}
);
leftKerningGroup = h;
rightKerningGroup = n;
unicode = 0068;
},
{
color = 3;
glyphname = hbar;
lastChange = "2023-09-29 08:46:29 +0000";
layers = (
{
components = (
{
name = h;
transform = "{1, 0, 0, 1, -8, 0}";
}
);
layerId = m01;
paths = (
{
closed = 1;
nodes = (
"282 566 LINE",
"282 630 LINE",
"14 630 LINE",
"14 566 LINE"
);
}
);
width = 582;
}
);
leftKerningGroup = h;
rightKerningGroup = n;
unicode = 0127;
},
{
color = 10;
glyphname = i;
lastChange = "2023-09-29 08:46:29 +0000";
layers = (
{
anchors = (
{
name = bottom;
position = "{107, 0}";
}
);
components = (
{
name = idotless;
},
{
name = dotaccentcomb;
transform = "{1, 0, 0, 1, 18, 0}";
}
);
guideLines = (
{
angle = 90;
position = "{107, 520}";
}
);
layerId = m01;
width = 254;
},
{
associatedMasterId = m01;
layerId = "D83E515D-0F47-49F5-9D25-EB2D61D7DD06";
name = "Oct 7 21, 13:57";
paths = (
{
closed = 1;
nodes = (
"79 0 LINE",
"169 0 LINE",
"169 520 LINE",
"79 520 LINE"
);
},
{
closed = 1;
nodes = (
"78 580 LINE",
"170 580 LINE",
"170 690 LINE",
"78 690 LINE"
);
}
);
width = 248;
},
{
associatedMasterId = m01;
guideLines = (
{
angle = 90;
position = "{123, 520}";
}
);
layerId = "7FC07703-35E2-4067-9AA7-C64F303C1095";
name = "12 Oct 21, 11:08";
paths = (
{
closed = 1;
nodes = (
"78 0 LINE",
"168 0 LINE",
"168 520 LINE",
"78 520 LINE"
);
},
{
closed = 1;
nodes = (
"156 588 OFFCURVE",
"183 616 OFFCURVE",
"183 650 CURVE SMOOTH",
"183 683 OFFCURVE",
"156 710 OFFCURVE",
"123 710 CURVE SMOOTH",
"89 710 OFFCURVE",
"62 683 OFFCURVE",
"62 650 CURVE SMOOTH",
"62 616 OFFCURVE",
"89 588 OFFCURVE",
"123 588 CURVE SMOOTH"
);
}
);
width = 246;
}
);
leftKerningGroup = i;
rightKerningGroup = i;
unicode = 0069;
},
{
color = 6;
glyphname = idotless;
lastChange = "2023-09-29 08:46:29 +0000";
layers = (
{
anchors = (
{
name = bottom;
position = "{127, 0}";
},
{
name = ogonek;
position = "{172, 0}";
},
{
name = top;
position = "{127, 520}";
}
);
layerId = m01;
paths = (
{
closed = 1;
nodes = (
"172 0 LINE",
"172 520 LINE",
"82 520 LINE",
"82 0 LINE"
);
}
);
width = 254;
}
);
leftKerningGroup = i;
rightKerningGroup = i;
unicode = 0131;
},
{
color = 10;
glyphname = j;
lastChange = "2023-09-29 08:46:29 +0000";
layers = (
{
components = (
{
name = jdotless;
},
{
name = dotaccentcomb;
transform = "{1, 0, 0, 1, 18, 0}";
}
);
layerId = m01;
width = 254;
},
{
associatedMasterId = m01;
layerId = "2B9F483A-15A2-4AB1-8A73-ADBAB2CC97C8";
name = "12 Oct 21, 11:08";
paths = (
{
closed = 1;
nodes = (
"116 -258 OFFCURVE",
"168 -204 OFFCURVE",
"168 -102 CURVE SMOOTH",
"168 520 LINE",
"78 520 LINE",
"78 -95 LINE SMOOTH",
"78 -159 OFFCURVE",
"52 -188 OFFCURVE",
"-5 -188 CURVE SMOOTH",
"-20 -188 OFFCURVE",
"-34 -186 OFFCURVE",
"-50 -181 CURVE",
"-50 -246 LINE",
"-30 -254 OFFCURVE",
"-9 -258 OFFCURVE",
"18 -258 CURVE SMOOTH"
);
},
{
closed = 1;
nodes = (
"157 588 OFFCURVE",
"184 616 OFFCURVE",
"184 650 CURVE SMOOTH",
"184 683 OFFCURVE",
"157 710 OFFCURVE",
"124 710 CURVE SMOOTH",
"90 710 OFFCURVE",
"63 683 OFFCURVE",
"63 650 CURVE SMOOTH",
"63 616 OFFCURVE",
"90 588 OFFCURVE",
"124 588 CURVE SMOOTH"
);
}
);
width = 246;
}
);
leftKerningGroup = i;
rightKerningGroup = i;
unicode = 006A;
},
{
color = 6;
glyphname = jdotless;
lastChange = "2023-09-29 08:46:29 +0000";
layers = (
{
anchors = (
{
name = bottom;
position = "{127, -257}";
},
{
name = top;
position = "{127, 520}";
}
);
layerId = m01;
paths = (
{
closed = 1;
nodes = (
"44 -247 LINE SMOOTH",
"132 -247 OFFCURVE",
"172 -220 OFFCURVE",
"172 -111 CURVE SMOOTH",
"172 520 LINE",
"82 520 LINE",
"82 -104 LINE SMOOTH",
"82 -172 OFFCURVE",
"64 -177 OFFCURVE",
"15 -177 CURVE SMOOTH",
"-46 -177 LINE",
"-46 -247 LINE"
);
}
);
width = 254;
}
);
leftKerningGroup = i;
rightKerningGroup = i;
unicode = 0237;
},
{
color = 6;
glyphname = k;
lastChange = "2023-09-29 08:46:29 +0000";
layers = (
{
associatedMasterId = m01;
layerId = "BA3C45A6-AB2B-4264-9326-E04A8BD11DF6";
name = "28 Sep 21, 18:35";
paths = (
{
closed = 1;
nodes = (
"492 0 LINE",
"458.081 151.695 OFFCURVE",
"382 268 OFFCURVE",
"214 289 CURVE",
"367 316 OFFCURVE",
"447 395 OFFCURVE",
"507 520 CURVE",
"408 520 LINE",
"367 409 OFFCURVE",
"266 333 OFFCURVE",
"167 323 CURVE",
"164 249 LINE",
"286 239 OFFCURVE",
"353 166 OFFCURVE",
"398 0 CURVE"
);
},
{
closed = 1;
nodes = (
"168 0 LINE",
"168 700 LINE",
"78 700 LINE",
"78 0 LINE"
);
}
);
width = 516;
},
{
associatedMasterId = m01;
layerId = "EB398B9F-EE4E-4343-AE2D-FB1AFF0FE9C0";
name = "28 Sep 21, 20:12";
paths = (
{
closed = 1;
nodes = (
"482 0 LINE",
"456.87 155.944 OFFCURVE",
"380 269 OFFCURVE",
"219 287 CURVE",
"395 328 OFFCURVE",
"451.149 430.988 OFFCURVE",
"487 520 CURVE",
"382 520 LINE",
"355 435 OFFCURVE",
"289 349 OFFCURVE",
"167 340 CURVE",
"164 232 LINE",
"281 232 OFFCURVE",
"351 173 OFFCURVE",
"388 0 CURVE"
);
},
{
closed = 1;
nodes = (
"168 0 LINE",
"168 700 LINE",
"78 700 LINE",
"78 0 LINE"
);
}
);
width = 516;
},
{
anchors = (
{
name = bottom;
position = "{282, 0}";
},
{
name = top;
position = "{262, 800}";
}
);
layerId = m01;
paths = (
{
closed = 1;
nodes = (
"515 520 LINE",
"406 520 LINE",
"152 232 LINE",
"162 134 LINE"
);
},
{
closed = 1;
nodes = (
"172 0 LINE",
"172 700 LINE",
"82 700 LINE",
"82 0 LINE"
);
},
{
closed = 1;
nodes = (
"515 0 LINE",
"317 310 LINE",
"233 280 LINE",
"409 0 LINE"
);
}
);
width = 529;
},
{
associatedMasterId = m01;
layerId = "3EFA1705-9F86-4CE8-877F-DE1151016AD1";
name = "Oct 7 21, 13:53";
paths = (
{
closed = 1;
nodes = (
"511 520 LINE",
"402 520 LINE",
"148 232 LINE",
"158 134 LINE"
);
},
{
closed = 1;
nodes = (
"168 0 LINE",
"168 700 LINE",
"78 700 LINE",
"78 0 LINE"
);
},
{
closed = 1;
nodes = (
"511 0 LINE",
"313 310 LINE",
"231 280 LINE",
"407 0 LINE"
);
}
);
width = 516;
},
{
associatedMasterId = m01;
layerId = "EE7D839C-101C-4A62-BB58-D3DA43C283D3";
name = "12 Oct 21, 11:08";
paths = (
{
closed = 1;
nodes = (
"511 520 LINE",
"402 520 LINE",
"151 277 LINE",
"220 241 LINE"
);
},
{
closed = 1;
nodes = (
"168 0 LINE",
"168 700 LINE",
"78 700 LINE",
"78 0 LINE"
);
},
{
closed = 1;
nodes = (
"511 0 LINE",
"235 307 LINE",
"151 277 LINE",
"395 0 LINE"
);
}
);
width = 516;
}
);
leftKerningGroup = h;
rightKerningGroup = k;
unicode = 006B;
},
{
color = 6;
glyphname = l;
lastChange = "2023-09-29 08:46:29 +0000";
layers = (
{
anchors = (
{
name = bottom;
position = "{127, 0}";
},
{
name = center;
position = "{127, 400}";
},
{
name = top;
position = "{127, 700}";
},
{
name = topright;
position = "{230, 700}";
}
);
layerId = m01;
paths = (
{
closed = 1;
nodes = (
"172 0 LINE",
"172 700 LINE",
"82 700 LINE",
"82 0 LINE"
);
}
);
width = 254;
}
);
leftKerningGroup = l;
rightKerningGroup = l;
unicode = 006C;
},
{
color = 3;
glyphname = lcaron;
lastChange = "2023-09-29 08:46:29 +0000";
layers = (
{
components = (
{
name = l;
}
);
layerId = m01;
paths = (
{
closed = 1;
nodes = (
"298 507 OFFCURVE",
"353 561 OFFCURVE",
"353 632 CURVE SMOOTH",
"353 676 OFFCURVE",
"326 710 OFFCURVE",
"282 710 CURVE SMOOTH",
"248 710 OFFCURVE",
"224 686 OFFCURVE",
"224 656 CURVE SMOOTH",
"224 623 OFFCURVE",
"248 600 OFFCURVE",
"279 600 CURVE SMOOTH",
"300 600 OFFCURVE",
"314 608 OFFCURVE",
"326 623 CURVE",
"303 611 LINE",
"302 575 OFFCURVE",
"268 551 OFFCURVE",
"228 541 CURVE",
"228 497 LINE"
);
}
);
width = 289;
}
);
leftKerningGroup = l;
rightKerningGroup = dcaron;
unicode = 013E;
},
{
color = 3;
glyphname = lslash;
lastChange = "2023-09-29 08:46:29 +0000";
layers = (
{
components = (
{
name = l;
transform = "{1, 0, 0, 1, 33, 0}";
}
);
layerId = m01;
paths = (
{
closed = 1;
nodes = (
"281 396 LINE",
"281 460 LINE",
"35 360 LINE",
"35 296 LINE"
);
}
);
width = 312;
}
);
unicode = 0142;
},
{
color = 6;
glyphname = m;
lastChange = "2023-09-29 08:46:29 +0000";
layers = (
{
anchors = (
{
name = bottom;
position = "{443, 0}";
},
{
name = top;
position = "{443, 520}";
}
);
layerId = m01;
paths = (
{
closed = 1;
nodes = (
"490 0 LINE",
"490 301 LINE SMOOTH",
"490 420 OFFCURVE",
"555 457 OFFCURVE",
"617 457 CURVE SMOOTH",
"671 457 OFFCURVE",
"718 424 OFFCURVE",
"718 320 CURVE SMOOTH",
"718 0 LINE",
"808 0 LINE",
"808 340 LINE SMOOTH",
"808 472 OFFCURVE",
"735 530 OFFCURVE",
"634 530 CURVE SMOOTH",
"579 530 OFFCURVE",
"508 501 OFFCURVE",
"475 423 CURVE",
"485 415 LINE",
"485 425 LINE",
"400 425 LINE",
"400 0 LINE"
);
},
{
closed = 1;
nodes = (
"172 0 LINE",
"172 301 LINE SMOOTH",
"172 420 OFFCURVE",
"237 457 OFFCURVE",
"299 457 CURVE SMOOTH",
"353 457 OFFCURVE",
"400 424 OFFCURVE",
"400 320 CURVE SMOOTH",
"400 0 LINE",
"490 0 LINE",
"490 340 LINE SMOOTH",
"490 472 OFFCURVE",
"417 530 OFFCURVE",
"316 530 CURVE SMOOTH",
"261 530 OFFCURVE",
"190 501 OFFCURVE",
"157 423 CURVE",
"167 415 LINE",
"167 520 LINE",
"82 520 LINE",
"82 0 LINE"
);
}
);
width = 884;
}
);
leftKerningGroup = n;
rightKerningGroup = n;
unicode = 006D;
},
{
color = 6;
glyphname = n;
lastChange = "2023-09-29 08:46:29 +0000";
layers = (
{
anchors = (
{
name = bottom;
position = "{305, 0}";
},
{
name = top;
position = "{301, 520}";
}
);
layerId = m01;
paths = (
{
closed = 1;
nodes = (
"172 0 LINE",
"172 301 LINE SMOOTH",
"172 420 OFFCURVE",
"237 457 OFFCURVE",
"311 457 CURVE SMOOTH",
"377 457 OFFCURVE",
"424 424 OFFCURVE",
"424 320 CURVE SMOOTH",
"424 0 LINE",
"514 0 LINE",
"514 340 LINE SMOOTH",
"514 472 OFFCURVE",
"441 530 OFFCURVE",
"328 530 CURVE SMOOTH",
"261 530 OFFCURVE",
"190 501 OFFCURVE",
"157 423 CURVE",
"167 415 LINE",
"167 520 LINE",
"82 520 LINE",
"82 0 LINE"
);
}
);
width = 590;
}
);
leftKerningGroup = n;
rightKerningGroup = n;
unicode = 006E;
},
{
color = 6;
glyphname = o;
lastChange = "2023-09-29 08:46:29 +0000";
layers = (
{
anchors = (
{
name = bottom;
position = "{289, 0}";
},
{
name = center;
position = "{289, 260}";
},
{
name = ogonek;
position = "{518, 10}";
},
{
name = top;
position = "{289, 520}";
},
{
name = topright;
position = "{555, 520}";
}
);
layerId = m01;
paths = (
{
closed = 1;
nodes = (
"440 -10 OFFCURVE",
"534 104 OFFCURVE",
"534 260 CURVE SMOOTH",
"534 416 OFFCURVE",
"440 530 OFFCURVE",
"289 530 CURVE SMOOTH",
"138 530 OFFCURVE",
"44 416 OFFCURVE",
"44 260 CURVE SMOOTH",
"44 104 OFFCURVE",
"138 -10 OFFCURVE",
"289 -10 CURVE SMOOTH"
);
},
{
closed = 1;
nodes = (
"192 60 OFFCURVE",
"139 141 OFFCURVE",
"139 260 CURVE SMOOTH",
"139 379 OFFCURVE",
"192 460 OFFCURVE",
"289 460 CURVE SMOOTH",
"386 460 OFFCURVE",
"439 379 OFFCURVE",
"439 260 CURVE SMOOTH",
"439 141 OFFCURVE",
"386 60 OFFCURVE",
"289 60 CURVE SMOOTH"
);
}
);
width = 578;
}
);
leftKerningGroup = o;
rightKerningGroup = o;
unicode = 006F;
},
{
color = 3;
glyphname = odieresis;
lastChange = "2023-09-29 08:46:29 +0000";
layers = (
{
components = (
{
name = o;
},
{
name = dieresiscomb;
transform = "{1, 0, 0, 1, 3, 0}";
}
);
layerId = m01;
width = 578;
},
{
associatedMasterId = m01;
components = (
{
name = o;
}
);
layerId = "A5FC5774-557B-4930-B103-8449D95DBADB";
name = "12 Oct 21, 11:09";
paths = (
{
closed = 1;
nodes = (
"217 585 OFFCURVE",
"241 610 OFFCURVE",
"241 641 CURVE SMOOTH",
"241 671 OFFCURVE",
"217 695 OFFCURVE",
"187 695 CURVE SMOOTH",
"156 695 OFFCURVE",
"132 671 OFFCURVE",
"132 641 CURVE SMOOTH",
"132 610 OFFCURVE",
"156 585 OFFCURVE",
"187 585 CURVE SMOOTH"
);
},
{
closed = 1;
nodes = (
"417 585 OFFCURVE",
"441 610 OFFCURVE",
"441 641 CURVE SMOOTH",
"441 671 OFFCURVE",
"417 695 OFFCURVE",
"387 695 CURVE SMOOTH",
"356 695 OFFCURVE",
"332 671 OFFCURVE",
"332 641 CURVE SMOOTH",
"332 610 OFFCURVE",
"356 585 OFFCURVE",
"387 585 CURVE SMOOTH"
);
}
);
width = 572;
}
);
leftKerningGroup = o;
rightKerningGroup = o;
unicode = 00F6;
},
{
color = 3;
glyphname = oslash;
lastChange = "2023-09-29 08:46:29 +0000";
layers = (
{
anchors = (
{
name = top;
position = "{302, 520}";
}
);
components = (
{
name = o;
transform = "{1, 0, 0, 1, 0, 1}";
}
);
layerId = m01;
paths = (
{
closed = 1;
nodes = (
"126 -48 LINE",
"516 570 LINE",
"450 570 LINE",
"60 -48 LINE"
);
}
);
width = 578;
}
);
leftKerningGroup = o;
rightKerningGroup = o;
unicode = 00F8;
},
{
color = 6;
glyphname = oe;
lastChange = "2023-09-29 08:46:29 +0000";
layers = (
{
anchors = (
{
name = bottom;
position = "{303, 0}";
},
{
name = center;
position = "{289, 260}";
},
{
name = ogonek;
position = "{518, 10}";
},
{
name = top;
position = "{303, 520}";
},
{
name = topright;
position = "{555, 520}";
}
);
layerId = m01;
paths = (
{
closed = 1;
nodes = (
"411 -10 OFFCURVE",
"496 64 OFFCURVE",
"524 175 CURVE",
"524 344 LINE",
"496 455 OFFCURVE",
"411 530 OFFCURVE",
"289 530 CURVE SMOOTH",
"138 530 OFFCURVE",
"44 416 OFFCURVE",
"44 260 CURVE SMOOTH",
"44 104 OFFCURVE",
"138 -10 OFFCURVE",
"289 -10 CURVE SMOOTH"
);
},
{
closed = 1;
nodes = (
"192 60 OFFCURVE",
"139 141 OFFCURVE",
"139 260 CURVE SMOOTH",
"139 379 OFFCURVE",
"192 460 OFFCURVE",
"289 460 CURVE SMOOTH",
"386 460 OFFCURVE",
"439 379 OFFCURVE",
"439 260 CURVE SMOOTH",
"439 141 OFFCURVE",
"386 60 OFFCURVE",
"289 60 CURVE SMOOTH"
);
},
{
closed = 1;
nodes = (
"803 -10 OFFCURVE",
"893 67 OFFCURVE",
"896 170 CURVE",
"806 170 LINE",
"801 101 OFFCURVE",
"756 60 OFFCURVE",
"684 60 CURVE SMOOTH",
"587 60 OFFCURVE",
"530 131 OFFCURVE",
"530 260 CURVE SMOOTH",
"530 389 OFFCURVE",
"587 460 OFFCURVE",
"678 460 CURVE SMOOTH",
"760 460 OFFCURVE",
"807 405 OFFCURVE",
"813 314 CURVE",
"516 314 LINE",
"516 244 LINE",
"903 244 LINE",
"903 277 LINE SMOOTH",
"903 436 OFFCURVE",
"821 530 OFFCURVE",
"679 530 CURVE SMOOTH",
"566 530 OFFCURVE",
"484 467 OFFCURVE",
"451 354 CURVE",
"445 183 LINE",
"473 67 OFFCURVE",
"559 -10 OFFCURVE",
"685 -10 CURVE SMOOTH"
);
}
);
width = 949;
}
);
leftKerningGroup = o;
rightKerningGroup = e;
unicode = 0153;
},
{
color = 6;
glyphname = p;
lastChange = "2023-09-29 08:46:29 +0000";
layers = (
{
anchors = (
{
name = bottom;
position = "{299, 0}";
},
{
name = top;
position = "{299, 520}";
}
);
layerId = m01;
paths = (
{
closed = 1;
nodes = (
"172 -248 LINE",
"172 115 LINE",
"157 97 LINE",
"189 27 OFFCURVE",
"251 -10 OFFCURVE",
"334 -10 CURVE SMOOTH",
"475 -10 OFFCURVE",
"553 108 OFFCURVE",
"553 259 CURVE SMOOTH",
"553 413 OFFCURVE",
"475 530 OFFCURVE",
"334 530 CURVE SMOOTH",
"248 530 OFFCURVE",
"184 490 OFFCURVE",
"153 414 CURVE",
"167 397 LINE",
"167 520 LINE",
"82 520 LINE",
"82 -248 LINE"
);
},
{
closed = 1;
nodes = (
"228 60 OFFCURVE",
"166 115 OFFCURVE",
"166 260 CURVE SMOOTH",
"166 405 OFFCURVE",
"228 460 OFFCURVE",
"313 460 CURVE SMOOTH",
"412 460 OFFCURVE",
"460 386 OFFCURVE",
"460 259 CURVE SMOOTH",
"460 143 OFFCURVE",
"417 60 OFFCURVE",
"313 60 CURVE SMOOTH"
);
}
);
width = 598;
}
);
leftKerningGroup = n;
rightKerningGroup = b;
unicode = 0070;
},
{
color = 6;
glyphname = thorn;
lastChange = "2023-09-29 08:46:29 +0000";
layers = (
{
anchors = (
{
name = bottom;
position = "{304, 0}";
},
{
name = top;
position = "{304, 520}";
}
);
layerId = m01;
paths = (
{
closed = 1;
nodes = (
"172 -248 LINE",
"172 115 LINE",
"157 97 LINE",
"189 27 OFFCURVE",
"251 -10 OFFCURVE",
"334 -10 CURVE SMOOTH",
"475 -10 OFFCURVE",
"553 108 OFFCURVE",
"553 259 CURVE SMOOTH",
"553 413 OFFCURVE",
"475 530 OFFCURVE",
"334 530 CURVE SMOOTH",
"248 530 OFFCURVE",
"184 490 OFFCURVE",
"153 414 CURVE",
"172 397 LINE",
"172 700 LINE",
"82 700 LINE",
"82 -248 LINE"
);
},
{
closed = 1;
nodes = (
"228 60 OFFCURVE",
"166 115 OFFCURVE",
"166 260 CURVE SMOOTH",
"166 405 OFFCURVE",
"228 460 OFFCURVE",
"313 460 CURVE SMOOTH",
"412 460 OFFCURVE",
"460 386 OFFCURVE",
"460 259 CURVE SMOOTH",
"460 143 OFFCURVE",
"417 60 OFFCURVE",
"313 60 CURVE SMOOTH"
);
}
);
width = 598;
}
);
leftKerningGroup = h;
rightKerningGroup = b;
unicode = 00FE;
},
{
color = 6;
glyphname = q;
lastChange = "2023-09-29 08:46:29 +0000";
layers = (
{
anchors = (
{
name = bottom;
position = "{299, 0}";
},
{
name = top;
position = "{299, 520}";
}
);
layerId = m01;
paths = (
{
closed = 1;
nodes = (
"516 -248 LINE",
"516 520 LINE",
"431 520 LINE",
"431 397 LINE",
"445 414 LINE",
"414 490 OFFCURVE",
"350 530 OFFCURVE",
"264 530 CURVE SMOOTH",
"123 530 OFFCURVE",
"45 413 OFFCURVE",
"45 259 CURVE SMOOTH",
"45 108 OFFCURVE",
"123 -10 OFFCURVE",
"264 -10 CURVE SMOOTH",
"347 -10 OFFCURVE",
"409 27 OFFCURVE",
"441 97 CURVE",
"426 115 LINE",
"426 -248 LINE"
);
},
{
closed = 1;
nodes = (
"181 60 OFFCURVE",
"138 143 OFFCURVE",
"138 259 CURVE SMOOTH",
"138 386 OFFCURVE",
"186 460 OFFCURVE",
"285 460 CURVE SMOOTH",
"370 460 OFFCURVE",
"432 405 OFFCURVE",
"432 260 CURVE SMOOTH",
"432 115 OFFCURVE",
"370 60 OFFCURVE",
"285 60 CURVE SMOOTH"
);
}
);
width = 598;
}
);
leftKerningGroup = d;
rightKerningGroup = u;
unicode = 0071;
},
{
color = 6;
glyphname = r;
lastChange = "2023-09-29 08:46:29 +0000";
layers = (
{
anchors = (
{
name = bottom;
position = "{129, 0}";
},
{
name = top;
position = "{214, 520}";
}
);
layerId = m01;
paths = (
{
closed = 1;
nodes = (
"172 0 LINE",
"172 282 LINE SMOOTH",
"172 398 OFFCURVE",
"207 450 OFFCURVE",
"288 450 CURVE SMOOTH",
"343 450 LINE",
"343 525 LINE",
"293 525 LINE SMOOTH",
"231 525 OFFCURVE",
"184 496 OFFCURVE",
"167 431 CURVE",
"167 520 LINE",
"82 520 LINE",
"82 0 LINE"
);
}
);
width = 362;
},
{
associatedMasterId = m01;
layerId = "0E805B1E-27B7-42B5-93D8-3D9352BABCD5";
name = "12 Oct 21, 11:08";
paths = (
{
closed = 1;
nodes = (
"168 0 LINE",
"168 292 LINE SMOOTH",
"168 392 OFFCURVE",
"221 450 OFFCURVE",
"303 450 CURVE SMOOTH",
"325 450 OFFCURVE",
"337 446 OFFCURVE",
"351 440 CURVE",
"351 518 LINE",
"340 524 OFFCURVE",
"324 528 OFFCURVE",
"306 528 CURVE SMOOTH",
"240 528 OFFCURVE",
"186 495 OFFCURVE",
"163 434 CURVE",
"163 520 LINE",
"78 520 LINE",
"78 0 LINE"
);
}
);
width = 356;
}
);
leftKerningGroup = n;
rightKerningGroup = r;
unicode = 0072;
},
{
color = 6;
glyphname = s;
lastChange = "2023-09-29 08:46:29 +0000";
layers = (
{
anchors = (
{
name = bottom;
position = "{241, 0}";
},
{
name = top;
position = "{243, 520}";
}
);
background = {
paths = (
{
closed = 1;
nodes = (
"375 -10 OFFCURVE",
"449 54 OFFCURVE",
"449 154 CURVE SMOOTH",
"449 224 OFFCURVE",
"414 265 OFFCURVE",
"321 289 CURVE SMOOTH",
"219 315 LINE SMOOTH",
"183 324 OFFCURVE",
"147 344 OFFCURVE",
"147 382 CURVE SMOOTH",
"147 433 OFFCURVE",
"185 462 OFFCURVE",
"249 462 CURVE SMOOTH",
"319 462 OFFCURVE",
"350 426 OFFCURVE",
"350 386 CURVE",
"443 386 LINE",
"441 460 OFFCURVE",
"391 530 OFFCURVE",
"250 530 CURVE SMOOTH",
"134 530 OFFCURVE",
"58 467 OFFCURVE",
"58 377 CURVE SMOOTH",
"58 298 OFFCURVE",
"102 260 OFFCURVE",
"190 237 CURVE SMOOTH",
"295 210 LINE SMOOTH",
"340 198 OFFCURVE",
"360 179 OFFCURVE",
"360 141 CURVE SMOOTH",
"360 86 OFFCURVE",
"323 58 OFFCURVE",
"258 58 CURVE SMOOTH",
"189 58 OFFCURVE",
"144 90 OFFCURVE",
"144 148 CURVE",
"50 148 LINE",
"56 37 OFFCURVE",
"140 -10 OFFCURVE",
"257 -10 CURVE SMOOTH"
);
}
);
};
layerId = m01;
paths = (
{
closed = 1;
nodes = (
"363 -10 OFFCURVE",
"439 53 OFFCURVE",
"439 153 CURVE SMOOTH",
"439 225 OFFCURVE",
"404 265 OFFCURVE",
"311 289 CURVE SMOOTH",
"212 315 LINE SMOOTH",
"176 324 OFFCURVE",
"140 340 OFFCURVE",
"140 388 CURVE SMOOTH",
"140 433 OFFCURVE",
"179 462 OFFCURVE",
"243 462 CURVE SMOOTH",
"313 462 OFFCURVE",
"342 426 OFFCURVE",
"346 382 CURVE",
"436 382 LINE",
"433 460 OFFCURVE",
"375 530 OFFCURVE",
"244 530 CURVE SMOOTH",
"128 530 OFFCURVE",
"51 464 OFFCURVE",
"51 380 CURVE SMOOTH",
"51 298 OFFCURVE",
"95 260 OFFCURVE",
"183 237 CURVE SMOOTH",
"285 210 LINE SMOOTH",
"330 198 OFFCURVE",
"350 173 OFFCURVE",
"350 136 CURVE SMOOTH",
"350 84 OFFCURVE",
"311 58 OFFCURVE",
"246 58 CURVE SMOOTH",
"178 58 OFFCURVE",
"134 90 OFFCURVE",
"134 148 CURVE",
"40 148 LINE",
"46 37 OFFCURVE",
"129 -10 OFFCURVE",
"245 -10 CURVE SMOOTH"
);
}
);
width = 484;
},
{
associatedMasterId = m01;
layerId = "3832F2DF-B9BD-427B-8CCC-513D0EE9BD6A";
name = "4 Oct 21, 15:37";
paths = (
{
closed = 1;
nodes = (
"365 -10 OFFCURVE",
"439 54 OFFCURVE",
"439 154 CURVE SMOOTH",
"439 224 OFFCURVE",
"404 265 OFFCURVE",
"311 289 CURVE SMOOTH",
"209 315 LINE SMOOTH",
"173 324 OFFCURVE",
"137 344 OFFCURVE",
"137 382 CURVE SMOOTH",
"137 433 OFFCURVE",
"175 462 OFFCURVE",
"239 462 CURVE SMOOTH",
"309 462 OFFCURVE",
"340 426 OFFCURVE",
"340 386 CURVE",
"433 386 LINE",
"431 460 OFFCURVE",
"381 530 OFFCURVE",
"240 530 CURVE SMOOTH",
"124 530 OFFCURVE",
"48 467 OFFCURVE",
"48 377 CURVE SMOOTH",
"48 298 OFFCURVE",
"92 260 OFFCURVE",
"180 237 CURVE SMOOTH",
"285 210 LINE SMOOTH",
"330 198 OFFCURVE",
"350 179 OFFCURVE",
"350 141 CURVE SMOOTH",
"350 86 OFFCURVE",
"313 58 OFFCURVE",
"248 58 CURVE SMOOTH",
"179 58 OFFCURVE",
"134 90 OFFCURVE",
"134 148 CURVE",
"40 148 LINE",
"46 37 OFFCURVE",
"130 -10 OFFCURVE",
"247 -10 CURVE SMOOTH"
);
}
);
width = 484;
}
);
leftKerningGroup = s;
rightKerningGroup = s;
unicode = 0073;
},
{
color = 6;
glyphname = germandbls;
lastChange = "2023-09-29 08:46:29 +0000";
layers = (
{
anchors = (
{
name = bottom;
position = "{341, 0}";
},
{
name = top;
position = "{341, 520}";
}
);
guideLines = (
{
position = "{56, 148}";
}
);
layerId = m01;
paths = (
{
closed = 1;
nodes = (
"541 -10 OFFCURVE",
"618 52 OFFCURVE",
"618 141 CURVE SMOOTH",
"618 214 OFFCURVE",
"567 249 OFFCURVE",
"490 292 CURVE SMOOTH",
"452 313 LINE SMOOTH",
"420 331 OFFCURVE",
"394 346 OFFCURVE",
"394 375 CURVE SMOOTH",
"394 396 OFFCURVE",
"410 414 OFFCURVE",
"425 432 CURVE SMOOTH",
"454 469 OFFCURVE",
"495 501 OFFCURVE",
"495 566 CURVE SMOOTH",
"495 630 OFFCURVE",
"449 710 OFFCURVE",
"313 710 CURVE SMOOTH",
"217 710 OFFCURVE",
"117 673 OFFCURVE",
"117 534 CURVE SMOOTH",
"117 520 LINE",
"17 520 LINE",
"17 450 LINE",
"117 450 LINE",
"117 0 LINE",
"207 0 LINE",
"207 527 LINE SMOOTH",
"207 601 OFFCURVE",
"243 640 OFFCURVE",
"312 640 CURVE SMOOTH",
"371 640 OFFCURVE",
"406 611 OFFCURVE",
"406 561 CURVE SMOOTH",
"406 521 OFFCURVE",
"383 503 OFFCURVE",
"363 479 CURVE SMOOTH",
"338 449 OFFCURVE",
"308 420 OFFCURVE",
"308 368 CURVE SMOOTH",
"308 316 OFFCURVE",
"341 280 OFFCURVE",
"396 250 CURVE SMOOTH",
"456 217 LINE SMOOTH",
"505 190 OFFCURVE",
"529 173 OFFCURVE",
"529 135 CURVE SMOOTH",
"529 83 OFFCURVE",
"489 58 OFFCURVE",
"447 58 CURVE SMOOTH",
"406 58 OFFCURVE",
"359 80 OFFCURVE",
"359 139 CURVE",
"268 139 LINE",
"269 27 OFFCURVE",
"357 -10 OFFCURVE",
"446 -10 CURVE SMOOTH"
);
}
);
width = 641;
},
{
anchors = (
{
name = bottom;
position = "{347, 0}";
},
{
name = top;
position = "{347, 520}";
}
);
associatedMasterId = m01;
layerId = "C044416E-160E-4E11-9FE9-2CC019CFFEBB";
name = "Nov 22 21, 13:23";
paths = (
{
closed = 1;
nodes = (
"331 640 LINE",
"410 640 OFFCURVE",
"432 616 OFFCURVE",
"432 576 CURVE SMOOTH",
"432 487 OFFCURVE",
"338 495 OFFCURVE",
"338 381 CURVE SMOOTH",
"338 330 OFFCURVE",
"365 290 OFFCURVE",
"429 246 CURVE SMOOTH",
"458 226 LINE SMOOTH",
"505 193 OFFCURVE",
"521 169 OFFCURVE",
"521 132 CURVE SMOOTH",
"521 85 OFFCURVE",
"490 55 OFFCURVE",
"441 55 CURVE SMOOTH",
"391 55 OFFCURVE",
"355 89 OFFCURVE",
"355 139 CURVE",
"268 139 LINE",
"268 47 OFFCURVE",
"337 -14 OFFCURVE",
"441 -14 CURVE SMOOTH",
"538 -14 OFFCURVE",
"611 52 OFFCURVE",
"611 139 CURVE SMOOTH",
"611 202 OFFCURVE",
"584 241 OFFCURVE",
"502 299 CURVE SMOOTH",
"478 316 LINE SMOOTH",
"445 339 OFFCURVE",
"428 364 OFFCURVE",
"428 389 CURVE SMOOTH",
"428 446 OFFCURVE",
"524 467 OFFCURVE",
"524 580 CURVE SMOOTH",
"524 659 OFFCURVE",
"465 710 OFFCURVE",
"332 710 CURVE"
);
},
{
closed = 1;
nodes = (
"33 450 LINE",
"161 450 LINE",
"161 520 LINE",
"33 520 LINE"
);
},
{
closed = 1;
nodes = (
"223 710 OFFCURVE",
"133 673 OFFCURVE",
"133 534 CURVE SMOOTH",
"133 0 LINE",
"223 0 LINE",
"223 527 LINE SMOOTH",
"223 625 OFFCURVE",
"291 640 OFFCURVE",
"330 640 CURVE SMOOTH",
"331 640 LINE",
"332 710 LINE",
"331 710 LINE SMOOTH"
);
}
);
width = 647;
},
{
anchors = (
{
name = bottom;
position = "{327, 0}";
},
{
name = top;
position = "{327, 520}";
}
);
associatedMasterId = m01;
layerId = "3494C931-E7DD-405C-9A13-7DB81C945312";
name = "Nov 23 21, 09:19";
paths = (
{
closed = 1;
nodes = (
"443 312 LINE SMOOTH",
"410 328 OFFCURVE",
"389 340 OFFCURVE",
"389 379 CURVE SMOOTH",
"389 436 OFFCURVE",
"484 477 OFFCURVE",
"484 570 CURVE SMOOTH",
"484 639 OFFCURVE",
"435 710 OFFCURVE",
"307 710 CURVE SMOOTH",
"203 710 OFFCURVE",
"113 673 OFFCURVE",
"113 534 CURVE SMOOTH",
"113 520 LINE",
"13 520 LINE",
"13 450 LINE",
"113 450 LINE",
"113 0 LINE",
"203 0 LINE",
"203 527 LINE SMOOTH",
"203 625 OFFCURVE",
"271 640 OFFCURVE",
"306 640 CURVE SMOOTH",
"380 640 OFFCURVE",
"392 586 OFFCURVE",
"392 556 CURVE SMOOTH",
"392 467 OFFCURVE",
"299 451 OFFCURVE",
"299 357 CURVE SMOOTH",
"299 295 OFFCURVE",
"333 276 OFFCURVE",
"406 239 CURVE SMOOTH",
"442 221 LINE SMOOTH",
"492 196 OFFCURVE",
"508 173 OFFCURVE",
"508 136 CURVE SMOOTH",
"508 84 OFFCURVE",
"469 58 OFFCURVE",
"427 58 CURVE SMOOTH",
"386 58 OFFCURVE",
"342 80 OFFCURVE",
"342 138 CURVE",
"248 138 LINE",
"249 27 OFFCURVE",
"337 -10 OFFCURVE",
"426 -10 CURVE SMOOTH",
"521 -10 OFFCURVE",
"597 53 OFFCURVE",
"597 153 CURVE SMOOTH",
"597 225 OFFCURVE",
"555 258 OFFCURVE",
"476 296 CURVE SMOOTH"
);
}
);
width = 638;
}
);
leftKerningGroup = f;
unicode = 00DF;
},
{
color = 6;
glyphname = t;
lastChange = "2023-09-29 08:46:29 +0000";
layers = (
{
anchors = (
{
name = bottom;
position = "{220, 0}";
},
{
name = center;
position = "{179, 260}";
},
{
name = top;
position = "{179, 520}";
},
{
name = topright;
position = "{330, 520}";
}
);
layerId = m01;
paths = (
{
closed = 1;
nodes = (
"345 0 LINE",
"345 70 LINE",
"274 70 LINE SMOOTH",
"225 70 OFFCURVE",
"207 75 OFFCURVE",
"207 143 CURVE SMOOTH",
"207 649 LINE",
"117 649 LINE",
"117 136 LINE SMOOTH",
"117 27 OFFCURVE",
"157 0 OFFCURVE",
"245 0 CURVE SMOOTH"
);
},
{
closed = 1;
nodes = (
"345 450 LINE",
"345 520 LINE",
"17 520 LINE",
"17 450 LINE"
);
}
);
width = 378;
},
{
associatedMasterId = m01;
layerId = "E066315F-6C93-439C-9D72-F6EBD09EB180";
name = "12 Oct 21, 11:08";
paths = (
{
closed = 1;
nodes = (
"278 -10 OFFCURVE",
"304 -8 OFFCURVE",
"338 2 CURVE",
"338 67 LINE",
"319 62 OFFCURVE",
"305 60 OFFCURVE",
"287 60 CURVE SMOOTH",
"238 60 OFFCURVE",
"200 75 OFFCURVE",
"200 153 CURVE SMOOTH",
"200 649 LINE",
"110 649 LINE",
"110 146 LINE SMOOTH",
"110 27 OFFCURVE",
"170 -10 OFFCURVE",
"258 -10 CURVE SMOOTH"
);
},
{
closed = 1;
nodes = (
"338 450 LINE",
"338 520 LINE",
"10 520 LINE",
"10 450 LINE"
);
}
);
width = 348;
}
);
leftKerningGroup = t;
rightKerningGroup = t;
unicode = 0074;
},
{
color = 3;
glyphname = tcaron;
lastChange = "2023-09-29 08:46:29 +0000";
layers = (
{
components = (
{
name = t;
}
);
layerId = m01;
paths = (
{
closed = 1;
nodes = (
"331 577 OFFCURVE",
"386 631 OFFCURVE",
"386 702 CURVE SMOOTH",
"386 746 OFFCURVE",
"359 780 OFFCURVE",
"315 780 CURVE SMOOTH",
"281 780 OFFCURVE",
"257 756 OFFCURVE",
"257 726 CURVE SMOOTH",
"257 693 OFFCURVE",
"281 670 OFFCURVE",
"312 670 CURVE SMOOTH",
"333 670 OFFCURVE",
"347 678 OFFCURVE",
"359 693 CURVE",
"336 681 LINE",
"335 645 OFFCURVE",
"301 621 OFFCURVE",
"261 611 CURVE",
"261 567 LINE"
);
}
);
width = 373;
}
);
leftKerningGroup = t;
rightKerningGroup = t;
unicode = 0165;
},
{
color = 6;
glyphname = u;
lastChange = "2023-09-29 08:46:29 +0000";
layers = (
{
anchors = (
{
name = bottom;
position = "{295, 0}";
},
{
name = ogonek;
position = "{508, 0}";
},
{
name = top;
position = "{295, 520}";
},
{
name = topright;
position = "{566, 520}";
}
);
layerId = m01;
paths = (
{
closed = 1;
nodes = (
"329 -10 OFFCURVE",
"400 19 OFFCURVE",
"433 97 CURVE",
"423 105 LINE",
"423 0 LINE",
"508 0 LINE",
"508 520 LINE",
"418 520 LINE",
"418 219 LINE SMOOTH",
"418 100 OFFCURVE",
"353 63 OFFCURVE",
"279 63 CURVE SMOOTH",
"213 63 OFFCURVE",
"166 96 OFFCURVE",
"166 200 CURVE SMOOTH",
"166 520 LINE",
"76 520 LINE",
"76 180 LINE SMOOTH",
"76 48 OFFCURVE",
"149 -10 OFFCURVE",
"262 -10 CURVE SMOOTH"
);
}
);
width = 590;
}
);
leftKerningGroup = u;
rightKerningGroup = u;
unicode = 0075;
},
{
color = 6;
glyphname = v;
lastChange = "2023-09-29 08:46:29 +0000";
layers = (
{
anchors = (
{
name = bottom;
position = "{258, 0}";
},
{
name = top;
position = "{258, 520}";
}
);
layerId = m01;
paths = (
{
closed = 1;
nodes = (
"310 0 LINE",
"501 520 LINE",
"410 520 LINE",
"253 64 LINE",
"259 65 LINE",
"108 520 LINE",
"14 520 LINE",
"200 0 LINE"
);
}
);
width = 512;
}
);
leftKerningGroup = v;
rightKerningGroup = v;
unicode = 0076;
},
{
color = 6;
glyphname = w;
lastChange = "2023-09-29 08:46:29 +0000";
layers = (
{
anchors = (
{
name = bottom;
position = "{378, 0}";
},
{
name = top;
position = "{378, 520}";
}
);
layerId = m01;
paths = (
{
closed = 1;
nodes = (
"276 0 LINE",
"387 479 LINE",
"371 479 LINE",
"481 0 LINE",
"590 0 LINE",
"733 520 LINE",
"645 520 LINE",
"525 33 LINE",
"543 33 LINE",
"432 520 LINE",
"328 520 LINE",
"215 33 LINE",
"233 33 LINE",
"114 520 LINE",
"22 520 LINE",
"165 0 LINE"
);
}
);
width = 755;
}
);
leftKerningGroup = w;
rightKerningGroup = w;
unicode = 0077;
},
{
color = 6;
glyphname = x;
lastChange = "2023-09-29 08:46:29 +0000";
layers = (
{
anchors = (
{
name = bottom;
position = "{257, 0}";
},
{
name = top;
position = "{257, 520}";
}
);
layerId = m01;
paths = (
{
closed = 1;
nodes = (
"117 0 LINE",
"272 238 LINE",
"230 240 LINE",
"390 0 LINE",
"496 0 LINE",
"316 262 LINE",
"489 520 LINE",
"390 520 LINE",
"240 286 LINE",
"280 284 LINE",
"127 520 LINE",
"21 520 LINE",
"195 262 LINE",
"18 0 LINE"
);
}
);
width = 512;
}
);
unicode = 0078;
},
{
color = 6;
glyphname = y;
lastChange = "2023-09-29 08:46:29 +0000";
layers = (
{
anchors = (
{
name = bottom;
position = "{257, 0}";
},
{
name = top;
position = "{257, 520}";
}
);
layerId = m01;
paths = (
{
closed = 1;
nodes = (
"179 -247 LINE",
"507 520 LINE",
"414 520 LINE",
"228 59 LINE",
"272 58 LINE",
"108 520 LINE",
"13 520 LINE",
"225 -36 LINE",
"218 47 LINE",
"82 -247 LINE"
);
}
);
width = 512;
},
{
associatedMasterId = m01;
layerId = "72577D31-480E-4D82-9DBB-9EEBFB7D2138";
name = "21 Oct 21, 11:54";
paths = (
{
closed = 1;
nodes = (
"281 0 LINE",
"462 520 LINE",
"371 520 LINE",
"222 54 LINE",
"253 55 LINE",
"100 520 LINE",
"5 520 LINE",
"196 0 LINE"
);
},
{
closed = 1;
nodes = (
"135 -175 OFFCURVE",
"117 -180 OFFCURVE",
"68 -180 CURVE SMOOTH",
"17 -180 LINE",
"17 -250 LINE",
"85 -250 LINE SMOOTH",
"173 -250 OFFCURVE",
"203 -223 OFFCURVE",
"240 -114 CURVE SMOOTH",
"281 0 LINE",
"196 0 LINE",
"159 -107 LINE SMOOTH"
);
}
);
width = 467;
}
);
leftKerningGroup = y;
rightKerningGroup = y;
unicode = 0079;
},
{
color = 6;
glyphname = z;
lastChange = "2023-09-29 08:46:29 +0000";
layers = (
{
anchors = (
{
name = bottom;
position = "{226, 0}";
},
{
name = center;
position = "{226, 260}";
},
{
name = top;
position = "{226, 520}";
}
);
background = {
components = (
{
name = n;
transform = "{1, 0, 0, 1, -40, 0}";
}
);
};
layerId = m01;
paths = (
{
closed = 1;
nodes = (
"410 0 LINE",
"410 70 LINE",
"147 70 LINE",
"410 460 LINE",
"410 520 LINE",
"42 520 LINE",
"42 450 LINE",
"305 450 LINE",
"42 60 LINE",
"42 0 LINE"
);
}
);
width = 452;
}
);
leftKerningGroup = z;
rightKerningGroup = z;
unicode = 007A;
},
{
color = 6;
glyphname = f_f;
lastChange = "2023-09-29 08:46:29 +0000";
layers = (
{
anchors = (
{
name = bottom_1;
position = "{177, 0}";
},
{
name = bottom_2;
position = "{523, 0}";
},
{
name = top_1;
position = "{177, 800}";
},
{
name = top_2;
position = "{523, 800}";
}
);
layerId = m01;
paths = (
{
closed = 1;
nodes = (
"207 0 LINE",
"207 557 LINE SMOOTH",
"207 625 OFFCURVE",
"225 630 OFFCURVE",
"274 630 CURVE SMOOTH",
"345 630 LINE",
"345 700 LINE",
"245 700 LINE SMOOTH",
"157 700 OFFCURVE",
"117 673 OFFCURVE",
"117 564 CURVE SMOOTH",
"117 0 LINE"
);
},
{
closed = 1;
nodes = (
"345 450 LINE",
"345 520 LINE",
"17 520 LINE",
"17 450 LINE"
);
},
{
closed = 1;
nodes = (
"488 0 LINE",
"488 557 LINE SMOOTH",
"488 625 OFFCURVE",
"506 630 OFFCURVE",
"555 630 CURVE SMOOTH",
"626 630 LINE",
"626 700 LINE",
"526 700 LINE SMOOTH",
"438 700 OFFCURVE",
"398 673 OFFCURVE",
"398 564 CURVE SMOOTH",
"398 0 LINE"
);
},
{
closed = 1;
nodes = (
"626 450 LINE",
"626 520 LINE",
"298 520 LINE",
"298 450 LINE"
);
}
);
width = 639;
}
);
leftKerningGroup = f;
rightKerningGroup = f;
},
{
color = 6;
glyphname = f_f_i;
lastChange = "2023-09-29 08:46:29 +0000";
layers = (
{
anchors = (
{
name = bottom_1;
position = "{177, 0}";
},
{
name = bottom_2;
position = "{523, 0}";
},
{
name = bottom_3;
position = "{819, 0}";
},
{
name = ogonek_2;
position = "{874, 0}";
},
{
name = top_1;
position = "{177, 800}";
},
{
name = top_2;
position = "{523, 800}";
},
{
name = top_3;
position = "{829, 700}";
}
);
guideLines = (
{
position = "{601, 268}";
showMeasurement = 1;
}
);
layerId = m01;
paths = (
{
closed = 1;
nodes = (
"207 0 LINE",
"207 557 LINE SMOOTH",
"207 625 OFFCURVE",
"225 630 OFFCURVE",
"274 630 CURVE SMOOTH",
"345 630 LINE",
"345 700 LINE",
"245 700 LINE SMOOTH",
"157 700 OFFCURVE",
"117 673 OFFCURVE",
"117 564 CURVE SMOOTH",
"117 0 LINE"
);
},
{
closed = 1;
nodes = (
"345 450 LINE",
"345 520 LINE",
"17 520 LINE",
"17 450 LINE"
);
},
{
closed = 1;
nodes = (
"488 0 LINE",
"488 557 LINE SMOOTH",
"488 625 OFFCURVE",
"506 630 OFFCURVE",
"555 630 CURVE SMOOTH",
"616 630 LINE",
"616 700 LINE",
"526 700 LINE SMOOTH",
"438 700 OFFCURVE",
"398 673 OFFCURVE",
"398 564 CURVE SMOOTH",
"398 0 LINE"
);
},
{
closed = 1;
nodes = (
"718 450 LINE",
"718 520 LINE",
"298 520 LINE",
"298 450 LINE"
);
},
{
closed = 1;
nodes = (
"769 0 LINE",
"769 520 LINE",
"679 520 LINE",
"679 0 LINE"
);
},
{
closed = 1;
nodes = (
"756 583 OFFCURVE",
"782 607 OFFCURVE",
"782 642 CURVE SMOOTH",
"782 676 OFFCURVE",
"756 700 OFFCURVE",
"724 700 CURVE SMOOTH",
"691 700 OFFCURVE",
"665 676 OFFCURVE",
"665 642 CURVE SMOOTH",
"665 607 OFFCURVE",
"691 583 OFFCURVE",
"724 583 CURVE SMOOTH"
);
}
);
width = 851;
}
);
leftKerningGroup = f;
rightKerningGroup = i;
},
{
color = 6;
glyphname = f_i;
lastChange = "2023-09-29 08:46:29 +0000";
layers = (
{
anchors = (
{
name = bottom_1;
position = "{177, 0}";
},
{
name = bottom_2;
position = "{473, 0}";
},
{
name = ogonek_2;
position = "{528, 0}";
},
{
name = top_1;
position = "{177, 800}";
},
{
name = top_2;
position = "{483, 700}";
}
);
layerId = m01;
paths = (
{
closed = 1;
nodes = (
"207 0 LINE",
"207 557 LINE SMOOTH",
"207 625 OFFCURVE",
"225 630 OFFCURVE",
"274 630 CURVE SMOOTH",
"335 630 LINE",
"335 700 LINE",
"245 700 LINE SMOOTH",
"157 700 OFFCURVE",
"117 673 OFFCURVE",
"117 564 CURVE SMOOTH",
"117 0 LINE"
);
},
{
closed = 1;
nodes = (
"437 450 LINE",
"437 520 LINE",
"17 520 LINE",
"17 450 LINE"
);
},
{
closed = 1;
nodes = (
"488 0 LINE",
"488 520 LINE",
"398 520 LINE",
"398 0 LINE"
);
},
{
closed = 1;
nodes = (
"475 583 OFFCURVE",
"501 607 OFFCURVE",
"501 642 CURVE SMOOTH",
"501 676 OFFCURVE",
"475 700 OFFCURVE",
"443 700 CURVE SMOOTH",
"410 700 OFFCURVE",
"384 676 OFFCURVE",
"384 642 CURVE SMOOTH",
"384 607 OFFCURVE",
"410 583 OFFCURVE",
"443 583 CURVE SMOOTH"
);
}
);
width = 570;
}
);
leftKerningGroup = f;
rightKerningGroup = i;
},
{
color = 6;
glyphname = f_t;
lastChange = "2023-09-29 08:46:29 +0000";
layers = (
{
anchors = (
{
name = bottom;
position = "{563, 0}";
},
{
name = center;
position = "{522, 260}";
},
{
name = top;
position = "{522, 520}";
},
{
name = topright;
position = "{673, 520}";
}
);
layerId = m01;
paths = (
{
closed = 1;
nodes = (
"207 0 LINE",
"207 557 LINE SMOOTH",
"207 625 OFFCURVE",
"225 630 OFFCURVE",
"274 630 CURVE SMOOTH",
"345 630 LINE",
"345 700 LINE",
"245 700 LINE SMOOTH",
"157 700 OFFCURVE",
"117 673 OFFCURVE",
"117 564 CURVE SMOOTH",
"117 0 LINE"
);
},
{
closed = 1;
nodes = (
"345 450 LINE",
"345 520 LINE",
"17 520 LINE",
"17 450 LINE"
);
},
{
closed = 1;
nodes = (
"648 0 LINE",
"648 70 LINE",
"577 70 LINE SMOOTH",
"528 70 OFFCURVE",
"510 75 OFFCURVE",
"510 143 CURVE SMOOTH",
"510 649 LINE",
"420 649 LINE",
"420 136 LINE SMOOTH",
"420 27 OFFCURVE",
"460 0 OFFCURVE",
"548 0 CURVE SMOOTH"
);
},
{
closed = 1;
nodes = (
"648 450 LINE",
"648 520 LINE",
"320 520 LINE",
"320 450 LINE"
);
}
);
width = 681;
}
);
leftKerningGroup = f;
rightKerningGroup = t;
},
{
color = 6;
glyphname = t_t;
lastChange = "2023-09-29 08:46:29 +0000";
layers = (
{
anchors = (
{
name = bottom;
position = "{563, 0}";
},
{
name = center;
position = "{522, 260}";
},
{
name = top;
position = "{522, 520}";
},
{
name = topright;
position = "{673, 520}";
}
);
layerId = m01;
paths = (
{
closed = 1;
nodes = (
"345 0 LINE",
"345 70 LINE",
"274 70 LINE SMOOTH",
"225 70 OFFCURVE",
"207 75 OFFCURVE",
"207 143 CURVE SMOOTH",
"207 649 LINE",
"117 649 LINE",
"117 136 LINE SMOOTH",
"117 27 OFFCURVE",
"157 0 OFFCURVE",
"245 0 CURVE SMOOTH"
);
},
{
closed = 1;
nodes = (
"345 450 LINE",
"345 520 LINE",
"17 520 LINE",
"17 450 LINE"
);
},
{
closed = 1;
nodes = (
"653 0 LINE",
"653 70 LINE",
"582 70 LINE SMOOTH",
"533 70 OFFCURVE",
"515 75 OFFCURVE",
"515 143 CURVE SMOOTH",
"515 649 LINE",
"425 649 LINE",
"425 136 LINE SMOOTH",
"425 27 OFFCURVE",
"465 0 OFFCURVE",
"553 0 CURVE SMOOTH"
);
},
{
closed = 1;
nodes = (
"653 450 LINE",
"653 520 LINE",
"325 520 LINE",
"325 450 LINE"
);
}
);
width = 686;
}
);
leftKerningGroup = t;
rightKerningGroup = t;
},
{
color = 6;
glyphname = ordfeminine;
lastChange = "2023-09-29 08:46:29 +0000";
layers = (
{
layerId = m01;
paths = (
{
closed = 1;
nodes = (
"232 318 OFFCURVE",
"279 347 OFFCURVE",
"299 398 CURVE",
"288 393 LINE",
"288 324 LINE",
"347 324 LINE",
"347 580 LINE SMOOTH",
"347 660 OFFCURVE",
"295 706 OFFCURVE",
"206 706 CURVE SMOOTH",
"117 706 OFFCURVE",
"56 657 OFFCURVE",
"54 587 CURVE",
"126 587 LINE",
"127 622 OFFCURVE",
"160 648 OFFCURVE",
"206 648 CURVE SMOOTH",
"253 648 OFFCURVE",
"281 622 OFFCURVE",
"281 571 CURVE SMOOTH",
"281 477 LINE SMOOTH",
"281 414 OFFCURVE",
"246 377 OFFCURVE",
"189 377 CURVE SMOOTH",
"149 377 OFFCURVE",
"127 398 OFFCURVE",
"127 427 CURVE SMOOTH",
"127 474 OFFCURVE",
"180 499 OFFCURVE",
"321 509 CURVE",
"319 565 LINE",
"133 547 OFFCURVE",
"54 504 OFFCURVE",
"54 422 CURVE SMOOTH",
"54 359 OFFCURVE",
"101 318 OFFCURVE",
"171 318 CURVE SMOOTH"
);
}
);
width = 415;
}
);
unicode = 00AA;
},
{
color = 6;
glyphname = ordmasculine;
lastChange = "2023-09-29 08:46:29 +0000";
layers = (
{
layerId = m01;
paths = (
{
closed = 1;
nodes = (
"329 318 OFFCURVE",
"397 400 OFFCURVE",
"397 512 CURVE SMOOTH",
"397 624 OFFCURVE",
"329 706 OFFCURVE",
"221 706 CURVE SMOOTH",
"113 706 OFFCURVE",
"45 624 OFFCURVE",
"45 512 CURVE SMOOTH",
"45 400 OFFCURVE",
"113 318 OFFCURVE",
"221 318 CURVE SMOOTH"
);
},
{
closed = 1;
nodes = (
"156 380 OFFCURVE",
"118 431 OFFCURVE",
"118 512 CURVE SMOOTH",
"118 593 OFFCURVE",
"156 644 OFFCURVE",
"221 644 CURVE SMOOTH",
"286 644 OFFCURVE",
"324 593 OFFCURVE",
"324 512 CURVE SMOOTH",
"324 431 OFFCURVE",
"286 380 OFFCURVE",
"221 380 CURVE SMOOTH"
);
}
);
width = 442;
}
);
unicode = 00BA;
},
{
color = 6;
glyphname = zero;
lastChange = "2023-09-29 08:46:29 +0000";
layers = (
{
layerId = m01;
paths = (
{
closed = 1;
nodes = (
"480 -10 OFFCURVE",
"568 124 OFFCURVE",
"568 350 CURVE SMOOTH",
"568 576 OFFCURVE",
"480 710 OFFCURVE",
"311 710 CURVE SMOOTH",
"142 710 OFFCURVE",
"54 576 OFFCURVE",
"54 350 CURVE SMOOTH",
"54 124 OFFCURVE",
"142 -10 OFFCURVE",
"311 -10 CURVE SMOOTH"
);
},
{
closed = 1;
nodes = (
"203 62 OFFCURVE",
"149 159 OFFCURVE",
"149 350 CURVE SMOOTH",
"149 541 OFFCURVE",
"203 638 OFFCURVE",
"311 638 CURVE SMOOTH",
"419 638 OFFCURVE",
"473 541 OFFCURVE",
"473 350 CURVE SMOOTH",
"473 159 OFFCURVE",
"419 62 OFFCURVE",
"311 62 CURVE SMOOTH"
);
}
);
width = 622;
}
);
unicode = 0030;
},
{
color = 6;
glyphname = one;
lastChange = "2023-09-29 08:46:29 +0000";
layers = (
{
layerId = m01;
paths = (
{
closed = 1;
nodes = (
"291 0 LINE",
"291 700 LINE",
"199 700 LINE",
"199 0 LINE"
);
},
{
closed = 1;
nodes = (
"199 607 LINE",
"199 700 LINE",
"23 551 LINE",
"23 448 LINE"
);
}
);
width = 383;
}
);
unicode = 0031;
},
{
color = 6;
glyphname = two;
lastChange = "2023-09-29 08:46:29 +0000";
layers = (
{
guideLines = (
{
position = "{130, 502}";
}
);
layerId = m01;
paths = (
{
closed = 1;
nodes = (
"475 0 LINE",
"475 72 LINE",
"165 72 LINE",
"379 324 LINE SMOOTH",
"451 408 OFFCURVE",
"475 461 OFFCURVE",
"475 521 CURVE SMOOTH",
"475 634 OFFCURVE",
"387 710 OFFCURVE",
"256 710 CURVE SMOOTH",
"129 710 OFFCURVE",
"46 638 OFFCURVE",
"39 523 CURVE",
"129 523 LINE",
"135 597 OFFCURVE",
"180 638 OFFCURVE",
"256 638 CURVE SMOOTH",
"334 638 OFFCURVE",
"380 594 OFFCURVE",
"380 519 CURVE SMOOTH",
"380 471 OFFCURVE",
"361 436 OFFCURVE",
"288 348 CURVE SMOOTH",
"52 62 LINE",
"52 0 LINE"
);
}
);
width = 526;
},
{
associatedMasterId = m01;
background = {
components = (
{
name = J;
transform = "{1, 0, 0, -1, 22, 700}";
}
);
};
guideLines = (
{
position = "{120, 502}";
}
);
layerId = "307D8CDF-BB27-48D4-B287-6F8F8F09DCB0";
name = "14 Oct 21, 14:39";
paths = (
{
closed = 1;
nodes = (
"475 0 LINE",
"475 72 LINE",
"156 72 LINE",
"382 312 LINE SMOOTH",
"443 377 OFFCURVE",
"475 446 OFFCURVE",
"475 518 CURVE SMOOTH",
"475 633 OFFCURVE",
"389 710 OFFCURVE",
"254 710 CURVE SMOOTH",
"119 710 OFFCURVE",
"30 632 OFFCURVE",
"30 513 CURVE",
"120 513 LINE",
"120 589 OFFCURVE",
"173 640 OFFCURVE",
"252 640 CURVE SMOOTH",
"335 640 OFFCURVE",
"382 594 OFFCURVE",
"382 515 CURVE SMOOTH",
"382 456 OFFCURVE",
"356 407 OFFCURVE",
"286 331 CURVE SMOOTH",
"37 62 LINE",
"37 0 LINE"
);
}
);
width = 505;
},
{
associatedMasterId = m01;
guideLines = (
{
position = "{120, 502}";
}
);
layerId = "E4BDB812-E3C0-4CD5-A101-843511ADEBDF";
name = "Oct 14 21, 16:59";
paths = (
{
closed = 1;
nodes = (
"466 0 LINE",
"466 72 LINE",
"134 72 LINE",
"138 105 OFFCURVE",
"159 145 OFFCURVE",
"274 247 CURVE SMOOTH",
"359 322 LINE SMOOTH",
"426 382 OFFCURVE",
"466 441 OFFCURVE",
"466 526 CURVE SMOOTH",
"466 642 OFFCURVE",
"388 710 OFFCURVE",
"253 710 CURVE SMOOTH",
"114 710 OFFCURVE",
"34 632 OFFCURVE",
"30 513 CURVE",
"120 513 LINE",
"124 589 OFFCURVE",
"168 640 OFFCURVE",
"251 640 CURVE SMOOTH",
"335 640 OFFCURVE",
"373 592 OFFCURVE",
"373 523 CURVE SMOOTH",
"373 462 OFFCURVE",
"340 412 OFFCURVE",
"264 347 CURVE SMOOTH",
"206 297 LINE SMOOTH",
"93 200 OFFCURVE",
"36 134 OFFCURVE",
"27 0 CURVE"
);
}
);
width = 486;
}
);
unicode = 0032;
},
{
color = 6;
glyphname = three;
lastChange = "2023-09-29 08:46:29 +0000";
layers = (
{
associatedMasterId = m01;
background = {
components = (
{
name = J;
transform = "{1, 0, 0, 1, 35, 0}";
}
);
};
layerId = "1C4A0B90-0E70-49EB-893C-BADA1DE89DE2";
name = "14 Oct 21, 12:11";
paths = (
{
closed = 1;
nodes = (
"417 -10 OFFCURVE",
"496 68 OFFCURVE",
"496 207 CURVE SMOOTH",
"496 310 OFFCURVE",
"451 353 OFFCURVE",
"363 377 CURVE",
"448 403 OFFCURVE",
"496 455 OFFCURVE",
"496 527 CURVE SMOOTH",
"496 636 OFFCURVE",
"411 710 OFFCURVE",
"277 710 CURVE SMOOTH",
"133 710 OFFCURVE",
"50 632 OFFCURVE",
"50 499 CURVE",
"140 499 LINE",
"140 588 OFFCURVE",
"186 635 OFFCURVE",
"273 635 CURVE SMOOTH",
"355 635 OFFCURVE",
"405 590 OFFCURVE",
"405 520 CURVE SMOOTH",
"405 448 OFFCURVE",
"349 406 OFFCURVE",
"263 406 CURVE SMOOTH",
"216 406 LINE",
"216 334 LINE",
"263 334 LINE SMOOTH",
"358 334 OFFCURVE",
"405 309 OFFCURVE",
"405 207 CURVE SMOOTH",
"405 113 OFFCURVE",
"363 65 OFFCURVE",
"274 65 CURVE SMOOTH",
"184 65 OFFCURVE",
"140 113 OFFCURVE",
"140 210 CURVE SMOOTH",
"140 282 LINE",
"50 282 LINE",
"50 211 LINE SMOOTH",
"50 66 OFFCURVE",
"127 -10 OFFCURVE",
"274 -10 CURVE SMOOTH"
);
}
);
width = 536;
},
{
associatedMasterId = m01;
background = {
components = (
{
name = J;
transform = "{1, 0, 0, 1, 35, 0}";
}
);
};
guideLines = (
{
position = "{42, 282}";
}
);
layerId = "BB3F242C-0474-4A11-9D5E-A8E0507EF21C";
name = "14 Oct 21, 12:13";
paths = (
{
closed = 1;
nodes = (
"417 -10 OFFCURVE",
"496 72 OFFCURVE",
"496 218 CURVE SMOOTH",
"496 361 OFFCURVE",
"417 422 OFFCURVE",
"281 422 CURVE",
"279 384 LINE",
"496 636 LINE",
"496 700 LINE",
"70 700 LINE",
"70 628 LINE",
"395 628 LINE",
"211 409 LINE",
"211 358 LINE",
"263 358 LINE SMOOTH",
"362 358 OFFCURVE",
"405 321 OFFCURVE",
"405 218 CURVE SMOOTH",
"405 115 OFFCURVE",
"362 65 OFFCURVE",
"272 65 CURVE SMOOTH",
"185 65 OFFCURVE",
"140 112 OFFCURVE",
"140 207 CURVE SMOOTH",
"140 282 LINE",
"50 282 LINE",
"50 208 LINE SMOOTH",
"50 65 OFFCURVE",
"127 -10 OFFCURVE",
"269 -10 CURVE SMOOTH"
);
}
);
width = 536;
},
{
background = {
components = (
{
name = J;
transform = "{1, 0, 0, 1, 35, 0}";
}
);
};
guideLines = (
{
position = "{187, 232}";
},
{
angle = 180;
position = "{113, 513}";
}
);
layerId = m01;
paths = (
{
closed = 1;
nodes = (
"408 -10 OFFCURVE",
"500 75 OFFCURVE",
"500 194 CURVE SMOOTH",
"500 287 OFFCURVE",
"437 345 OFFCURVE",
"360 358 CURVE",
"450 386 OFFCURVE",
"490 448 OFFCURVE",
"490 525 CURVE SMOOTH",
"490 635 OFFCURVE",
"407 710 OFFCURVE",
"279 710 CURVE SMOOTH",
"154 710 OFFCURVE",
"61 639 OFFCURVE",
"53 523 CURVE",
"144 523 LINE",
"150 600 OFFCURVE",
"203 637 OFFCURVE",
"274 637 CURVE SMOOTH",
"350 637 OFFCURVE",
"395 593 OFFCURVE",
"395 516 CURVE SMOOTH",
"395 445 OFFCURVE",
"352 391 OFFCURVE",
"247 391 CURVE SMOOTH",
"202 391 LINE",
"202 321 LINE",
"257 321 LINE SMOOTH",
"352 321 OFFCURVE",
"405 272 OFFCURVE",
"405 193 CURVE SMOOTH",
"405 111 OFFCURVE",
"354 63 OFFCURVE",
"275 63 CURVE SMOOTH",
"198 63 OFFCURVE",
"141 106 OFFCURVE",
"136 200 CURVE",
"46 200 LINE",
"50 67 OFFCURVE",
"147 -10 OFFCURVE",
"274 -10 CURVE SMOOTH"
);
}
);
width = 556;
},
{
associatedMasterId = m01;
background = {
components = (
{
name = J;
transform = "{1, 0, 0, 1, 35, 0}";
}
);
};
guideLines = (
{
position = "{169, 232}";
},
{
angle = 180;
position = "{95, 513}";
}
);
layerId = "BDB373D6-658F-4715-9F7B-E528AA9C05EE";
name = "Oct 14 21, 15:28";
paths = (
{
closed = 1;
nodes = (
"417 -10 OFFCURVE",
"502 70 OFFCURVE",
"502 199 CURVE SMOOTH",
"502 305 OFFCURVE",
"438 369 OFFCURVE",
"332 371 CURVE",
"336 367 LINE",
"438 385 OFFCURVE",
"492 441 OFFCURVE",
"492 526 CURVE SMOOTH",
"492 636 OFFCURVE",
"405 710 OFFCURVE",
"274 710 CURVE SMOOTH",
"138 710 OFFCURVE",
"50 633 OFFCURVE",
"50 513 CURVE",
"140 513 LINE",
"140 593 OFFCURVE",
"190 640 OFFCURVE",
"273 640 CURVE SMOOTH",
"353 640 OFFCURVE",
"399 598 OFFCURVE",
"399 524 CURVE SMOOTH",
"399 448 OFFCURVE",
"350 401 OFFCURVE",
"270 401 CURVE SMOOTH",
"240 401 LINE",
"240 329 LINE",
"268 329 LINE SMOOTH",
"365 329 OFFCURVE",
"409 289 OFFCURVE",
"409 203 CURVE SMOOTH",
"409 111 OFFCURVE",
"363 60 OFFCURVE",
"272 60 CURVE SMOOTH",
"183 60 OFFCURVE",
"140 109 OFFCURVE",
"140 210 CURVE SMOOTH",
"140 252 LINE",
"50 252 LINE",
"50 201 LINE SMOOTH",
"50 65 OFFCURVE",
"129 -10 OFFCURVE",
"272 -10 CURVE SMOOTH"
);
}
);
width = 536;
},
{
associatedMasterId = m01;
background = {
components = (
{
name = J;
transform = "{1, 0, 0, 1, 35, 0}";
}
);
};
guideLines = (
{
position = "{169, 232}";
},
{
angle = 180;
position = "{95, 513}";
}
);
layerId = "DB158FCD-3DE1-4FF3-8633-086087753369";
name = "Oct 14 21, 16:36";
paths = (
{
closed = 1;
nodes = (
"417 -10 OFFCURVE",
"502 70 OFFCURVE",
"502 189 CURVE SMOOTH",
"502 295 OFFCURVE",
"438 349 OFFCURVE",
"332 361 CURVE",
"336 357 LINE",
"438 375 OFFCURVE",
"492 441 OFFCURVE",
"492 531 CURVE SMOOTH",
"492 636 OFFCURVE",
"405 710 OFFCURVE",
"274 710 CURVE SMOOTH",
"138 710 OFFCURVE",
"50 633 OFFCURVE",
"50 513 CURVE",
"140 513 LINE",
"140 593 OFFCURVE",
"190 640 OFFCURVE",
"273 640 CURVE SMOOTH",
"353 640 OFFCURVE",
"399 598 OFFCURVE",
"399 519 CURVE SMOOTH",
"399 448 OFFCURVE",
"350 391 OFFCURVE",
"270 391 CURVE SMOOTH",
"230 391 LINE",
"230 319 LINE",
"268 319 LINE SMOOTH",
"355 319 OFFCURVE",
"409 279 OFFCURVE",
"409 193 CURVE SMOOTH",
"409 111 OFFCURVE",
"363 60 OFFCURVE",
"272 60 CURVE SMOOTH",
"183 60 OFFCURVE",
"140 109 OFFCURVE",
"140 190 CURVE SMOOTH",
"140 212 LINE",
"50 212 LINE",
"50 181 LINE SMOOTH",
"50 65 OFFCURVE",
"129 -10 OFFCURVE",
"272 -10 CURVE SMOOTH"
);
}
);
width = 536;
}
);
unicode = 0033;
},
{
color = 6;
glyphname = four;
lastChange = "2023-09-29 08:46:29 +0000";
layers = (
{
layerId = m01;
paths = (
{
closed = 1;
nodes = (
"453 0 LINE",
"453 214 LINE",
"545 214 LINE",
"545 284 LINE",
"453 284 LINE",
"453 700 LINE",
"336 700 LINE",
"33 268 LINE",
"33 214 LINE",
"366 214 LINE",
"366 0 LINE"
);
},
{
closed = 1;
nodes = (
"389 654 LINE",
"366 659 LINE",
"366 284 LINE",
"132 284 LINE"
);
}
);
width = 583;
},
{
associatedMasterId = m01;
layerId = "FBB8914F-D97D-4567-A84F-47603558685F";
name = "14 Oct 21, 12:50";
paths = (
{
closed = 1;
nodes = (
"511 240 LINE",
"511 312 LINE",
"105 312 LINE",
"198 439 LINE SMOOTH",
"236 493 OFFCURVE",
"248 540 OFFCURVE",
"248 635 CURVE SMOOTH",
"248 700 LINE",
"154 700 LINE",
"154 622 LINE SMOOTH",
"154 530 OFFCURVE",
"145 496 OFFCURVE",
"106 443 CURVE SMOOTH",
"10 309 LINE",
"10 240 LINE"
);
},
{
closed = 1;
nodes = (
"419 0 LINE",
"419 520 LINE",
"325 520 LINE",
"325 0 LINE"
);
}
);
width = 524;
},
{
associatedMasterId = m01;
layerId = "DB5C9D90-92BB-41BA-94D5-299187046A03";
name = "Oct 14 21, 15:29";
paths = (
{
closed = 1;
nodes = (
"415 0 LINE",
"415 227 LINE",
"507 227 LINE",
"507 299 LINE",
"415 299 LINE",
"415 700 LINE",
"298 700 LINE",
"5 283 LINE",
"5 227 LINE",
"325 227 LINE",
"325 0 LINE"
);
},
{
closed = 1;
nodes = (
"325 614 LINE",
"325 299 LINE",
"106 299 LINE"
);
}
);
width = 520;
}
);
unicode = 0034;
},
{
color = 6;
glyphname = five;
lastChange = "2023-09-29 08:46:29 +0000";
layers = (
{
background = {
components = (
{
name = three;
transform = "{1, 0, 0, 1, 39, 0}";
}
);
};
layerId = m01;
paths = (
{
closed = 1;
nodes = (
"421 -10 OFFCURVE",
"517 84 OFFCURVE",
"517 222 CURVE SMOOTH",
"517 348 OFFCURVE",
"432 436 OFFCURVE",
"309 436 CURVE SMOOTH",
"227 436 OFFCURVE",
"168 400 OFFCURVE",
"124 324 CURVE",
"165 304 LINE",
"195 343 OFFCURVE",
"240 366 OFFCURVE",
"290 366 CURVE SMOOTH",
"373 366 OFFCURVE",
"424 311 OFFCURVE",
"424 219 CURVE SMOOTH",
"424 120 OFFCURVE",
"370 60 OFFCURVE",
"281 60 CURVE SMOOTH",
"198 60 OFFCURVE",
"139 117 OFFCURVE",
"138 199 CURVE",
"47 199 LINE",
"52 76 OFFCURVE",
"147 -10 OFFCURVE",
"279 -10 CURVE SMOOTH"
);
},
{
closed = 1;
nodes = (
"165 304 LINE",
"147 324 LINE",
"173 700 LINE",
"90 700 LINE",
"69 304 LINE"
);
},
{
closed = 1;
nodes = (
"482 628 LINE",
"482 700 LINE",
"94 700 LINE",
"94 628 LINE"
);
}
);
width = 560;
},
{
associatedMasterId = m01;
background = {
components = (
{
name = three;
transform = "{1, 0, 0, 1, 39, 0}";
}
);
};
layerId = "B72DE92D-0C5D-43A0-8DDB-DE755472A8A7";
name = "Oct 14 21, 16:41";
paths = (
{
closed = 1;
nodes = (
"449 -10 OFFCURVE",
"536 80 OFFCURVE",
"536 230 CURVE SMOOTH",
"536 364 OFFCURVE",
"456 451 OFFCURVE",
"329 451 CURVE SMOOTH",
"264 451 OFFCURVE",
"215 428 OFFCURVE",
"179 382 CURVE",
"183 358 LINE",
"209 628 LINE",
"526 628 LINE",
"526 700 LINE",
"129 700 LINE",
"95 321 LINE",
"179 321 LINE",
"215 362 OFFCURVE",
"257 381 OFFCURVE",
"311 381 CURVE SMOOTH",
"399 381 OFFCURVE",
"443 328 OFFCURVE",
"443 227 CURVE SMOOTH",
"443 119 OFFCURVE",
"394 60 OFFCURVE",
"306 60 CURVE SMOOTH",
"224 60 OFFCURVE",
"182 100 OFFCURVE",
"182 193 CURVE SMOOTH",
"182 217 LINE",
"92 217 LINE",
"92 193 LINE SMOOTH",
"92 54 OFFCURVE",
"169 -10 OFFCURVE",
"306 -10 CURVE SMOOTH"
);
}
);
width = 600;
}
);
unicode = 0035;
},
{
color = 6;
glyphname = six;
lastChange = "2023-09-29 08:46:29 +0000";
layers = (
{
background = {
paths = (
{
closed = 1;
nodes = (
"112 710 OFFCURVE",
"50 541 OFFCURVE",
"50 337 CURVE SMOOTH",
"50 113 OFFCURVE",
"126 -10 OFFCURVE",
"294 -10 CURVE SMOOTH",
"433 -10 OFFCURVE",
"526 81 OFFCURVE",
"526 215 CURVE SMOOTH",
"526 348 OFFCURVE",
"443 436 OFFCURVE",
"317 436 CURVE SMOOTH",
"242 436 OFFCURVE",
"183 406 OFFCURVE",
"148 347 CURVE",
"146 536 OFFCURVE",
"199 638 OFFCURVE",
"307 638 CURVE SMOOTH",
"370 638 OFFCURVE",
"430 603 OFFCURVE",
"430 533 CURVE SMOOTH",
"430 523 LINE",
"520 523 LINE",
"520 533 LINE SMOOTH",
"520 647 OFFCURVE",
"422 710 OFFCURVE",
"308 710 CURVE SMOOTH"
);
},
{
closed = 1;
nodes = (
"384 366 OFFCURVE",
"433 309 OFFCURVE",
"433 214 CURVE SMOOTH",
"433 124 OFFCURVE",
"379 62 OFFCURVE",
"290 62 CURVE SMOOTH",
"198 62 OFFCURVE",
"155 129 OFFCURVE",
"155 218 CURVE SMOOTH",
"155 308 OFFCURVE",
"214 366 OFFCURVE",
"300 366 CURVE SMOOTH"
);
}
);
};
layerId = m01;
paths = (
{
closed = 1;
nodes = (
"441 -10 OFFCURVE",
"531 79 OFFCURVE",
"531 217 CURVE SMOOTH",
"531 350 OFFCURVE",
"449 436 OFFCURVE",
"322 436 CURVE SMOOTH",
"247 436 OFFCURVE",
"187 404 OFFCURVE",
"153 347 CURVE",
"151 535 OFFCURVE",
"212 640 OFFCURVE",
"323 640 CURVE SMOOTH",
"395 640 OFFCURVE",
"441 598 OFFCURVE",
"441 533 CURVE SMOOTH",
"441 523 LINE",
"531 523 LINE",
"531 533 LINE SMOOTH",
"531 642 OFFCURVE",
"453 710 OFFCURVE",
"327 710 CURVE SMOOTH",
"153 710 OFFCURVE",
"55 575 OFFCURVE",
"55 337 CURVE SMOOTH",
"55 109 OFFCURVE",
"140 -10 OFFCURVE",
"303 -10 CURVE SMOOTH"
);
},
{
closed = 1;
nodes = (
"214 60 OFFCURVE",
"160 122 OFFCURVE",
"160 219 CURVE SMOOTH",
"160 308 OFFCURVE",
"218 366 OFFCURVE",
"305 366 CURVE SMOOTH",
"390 366 OFFCURVE",
"438 311 OFFCURVE",
"438 216 CURVE SMOOTH",
"438 120 OFFCURVE",
"385 60 OFFCURVE",
"300 60 CURVE SMOOTH"
);
}
);
width = 587;
},
{
associatedMasterId = m01;
guideLines = (
{
position = "{536, 499}";
}
);
layerId = "F4BF5EAE-8C5A-40C7-B380-2DEDBD26CA61";
name = "14 Oct 21, 14:06";
paths = (
{
closed = 1;
nodes = (
"447 -10 OFFCURVE",
"536 79 OFFCURVE",
"536 217 CURVE SMOOTH",
"536 353 OFFCURVE",
"452 436 OFFCURVE",
"322 436 CURVE SMOOTH",
"243 436 OFFCURVE",
"183 406 OFFCURVE",
"140 345 CURVE",
"140 543 OFFCURVE",
"197 640 OFFCURVE",
"313 640 CURVE SMOOTH",
"398 640 OFFCURVE",
"441 589 OFFCURVE",
"446 509 CURVE",
"536 509 LINE",
"531 633 OFFCURVE",
"456 710 OFFCURVE",
"317 710 CURVE SMOOTH",
"144 710 OFFCURVE",
"54 591 OFFCURVE",
"50 357 CURVE SMOOTH",
"46 110 OFFCURVE",
"129 -10 OFFCURVE",
"303 -10 CURVE SMOOTH"
);
},
{
closed = 1;
nodes = (
"213 60 OFFCURVE",
"155 125 OFFCURVE",
"155 221 CURVE SMOOTH",
"155 310 OFFCURVE",
"215 366 OFFCURVE",
"305 366 CURVE SMOOTH",
"393 366 OFFCURVE",
"443 313 OFFCURVE",
"443 216 CURVE SMOOTH",
"443 120 OFFCURVE",
"393 60 OFFCURVE",
"305 60 CURVE SMOOTH"
);
}
);
width = 600;
}
);
unicode = 0036;
},
{
color = 6;
glyphname = seven;
lastChange = "2023-09-29 08:46:29 +0000";
layers = (
{
layerId = m01;
paths = (
{
closed = 1;
nodes = (
"207 0 LINE",
"480 631 LINE",
"480 700 LINE",
"10 700 LINE",
"10 628 LINE",
"393 628 LINE",
"107 0 LINE"
);
}
);
width = 505;
},
{
associatedMasterId = m01;
layerId = "1D40E33A-68BA-46C0-9E79-5AB620B5DDC4";
name = "14 Oct 21, 12:44";
paths = (
{
closed = 1;
nodes = (
"238 0 LINE",
"490 638 LINE",
"490 700 LINE",
"20 700 LINE",
"20 628 LINE",
"396 628 LINE",
"140 0 LINE"
);
}
);
width = 510;
}
);
unicode = 0037;
},
{
color = 6;
glyphname = eight;
lastChange = "2023-09-29 08:46:29 +0000";
layers = (
{
layerId = m01;
paths = (
{
closed = 1;
nodes = (
"431 -10 OFFCURVE",
"529 70 OFFCURVE",
"529 184 CURVE SMOOTH",
"529 264 OFFCURVE",
"488 324 OFFCURVE",
"401 354 CURVE",
"478 380 OFFCURVE",
"524 443 OFFCURVE",
"524 520 CURVE SMOOTH",
"524 629 OFFCURVE",
"431 709 OFFCURVE",
"293 709 CURVE SMOOTH",
"155 709 OFFCURVE",
"62 629 OFFCURVE",
"62 520 CURVE SMOOTH",
"62 443 OFFCURVE",
"108 380 OFFCURVE",
"185 354 CURVE",
"98 324 OFFCURVE",
"57 264 OFFCURVE",
"57 184 CURVE SMOOTH",
"57 70 OFFCURVE",
"155 -10 OFFCURVE",
"293 -10 CURVE SMOOTH"
);
},
{
closed = 1;
nodes = (
"213 60 OFFCURVE",
"152 109 OFFCURVE",
"152 191 CURVE SMOOTH",
"152 270 OFFCURVE",
"206 320 OFFCURVE",
"293 320 CURVE SMOOTH",
"380 320 OFFCURVE",
"434 270 OFFCURVE",
"434 191 CURVE SMOOTH",
"434 109 OFFCURVE",
"373 60 OFFCURVE",
"293 60 CURVE SMOOTH"
);
},
{
closed = 1;
nodes = (
"206 388 OFFCURVE",
"157 438 OFFCURVE",
"157 513 CURVE SMOOTH",
"157 589 OFFCURVE",
"213 639 OFFCURVE",
"293 639 CURVE SMOOTH",
"373 639 OFFCURVE",
"429 589 OFFCURVE",
"429 513 CURVE SMOOTH",
"429 438 OFFCURVE",
"380 388 OFFCURVE",
"293 388 CURVE SMOOTH"
);
}
);
width = 586;
},
{
associatedMasterId = m01;
layerId = "5935C813-572F-4AD4-9C2A-91B4DFAF441E";
name = "Oct 14 21, 16:48";
paths = (
{
closed = 1;
nodes = (
"398 -10 OFFCURVE",
"494 64 OFFCURVE",
"494 187 CURVE SMOOTH",
"494 277 OFFCURVE",
"440 336 OFFCURVE",
"360 356 CURVE",
"438 380 OFFCURVE",
"489 437 OFFCURVE",
"489 520 CURVE SMOOTH",
"489 637 OFFCURVE",
"394 710 OFFCURVE",
"267 710 CURVE SMOOTH",
"140 710 OFFCURVE",
"45 637 OFFCURVE",
"45 520 CURVE SMOOTH",
"45 437 OFFCURVE",
"96 380 OFFCURVE",
"174 356 CURVE",
"94 336 OFFCURVE",
"40 277 OFFCURVE",
"40 187 CURVE SMOOTH",
"40 64 OFFCURVE",
"136 -10 OFFCURVE",
"267 -10 CURVE SMOOTH"
);
},
{
closed = 1;
nodes = (
"188 60 OFFCURVE",
"131 105 OFFCURVE",
"131 189 CURVE SMOOTH",
"131 274 OFFCURVE",
"188 318 OFFCURVE",
"267 318 CURVE SMOOTH",
"346 318 OFFCURVE",
"403 274 OFFCURVE",
"403 189 CURVE SMOOTH",
"403 105 OFFCURVE",
"346 60 OFFCURVE",
"267 60 CURVE SMOOTH"
);
},
{
closed = 1;
nodes = (
"193 390 OFFCURVE",
"136 436 OFFCURVE",
"136 518 CURVE SMOOTH",
"136 598 OFFCURVE",
"191 640 OFFCURVE",
"267 640 CURVE SMOOTH",
"343 640 OFFCURVE",
"398 598 OFFCURVE",
"398 518 CURVE SMOOTH",
"398 436 OFFCURVE",
"341 390 OFFCURVE",
"267 390 CURVE SMOOTH"
);
}
);
width = 534;
}
);
unicode = 0038;
},
{
color = 6;
glyphname = nine;
lastChange = "2023-09-29 08:46:29 +0000";
layers = (
{
background = {
paths = (
{
closed = 1;
nodes = (
"157 710 OFFCURVE",
"64 619 OFFCURVE",
"64 483 CURVE SMOOTH",
"64 350 OFFCURVE",
"146 264 OFFCURVE",
"273 264 CURVE SMOOTH",
"350 264 OFFCURVE",
"409 297 OFFCURVE",
"442 353 CURVE",
"444 164 OFFCURVE",
"388 60 OFFCURVE",
"272 60 CURVE SMOOTH",
"198 60 OFFCURVE",
"154 104 OFFCURVE",
"154 167 CURVE SMOOTH",
"154 177 LINE",
"64 177 LINE",
"64 167 LINE SMOOTH",
"64 60 OFFCURVE",
"140 -10 OFFCURVE",
"268 -10 CURVE SMOOTH",
"440 -10 OFFCURVE",
"536 114 OFFCURVE",
"540 343 CURVE SMOOTH",
"544 578 OFFCURVE",
"464 710 OFFCURVE",
"297 710 CURVE SMOOTH"
);
},
{
closed = 1;
nodes = (
"382 638 OFFCURVE",
"435 571 OFFCURVE",
"435 481 CURVE SMOOTH",
"435 392 OFFCURVE",
"377 334 OFFCURVE",
"290 334 CURVE SMOOTH",
"205 334 OFFCURVE",
"157 389 OFFCURVE",
"157 484 CURVE SMOOTH",
"157 576 OFFCURVE",
"211 638 OFFCURVE",
"295 638 CURVE SMOOTH"
);
}
);
};
layerId = m01;
paths = (
{
closed = 1;
nodes = (
"437 -10 OFFCURVE",
"529 123 OFFCURVE",
"529 363 CURVE SMOOTH",
"529 594 OFFCURVE",
"448 710 OFFCURVE",
"285 710 CURVE SMOOTH",
"146 710 OFFCURVE",
"53 619 OFFCURVE",
"53 485 CURVE SMOOTH",
"53 352 OFFCURVE",
"136 264 OFFCURVE",
"262 264 CURVE SMOOTH",
"338 264 OFFCURVE",
"396 295 OFFCURVE",
"431 353 CURVE",
"433 161 OFFCURVE",
"378 60 OFFCURVE",
"272 60 CURVE SMOOTH",
"200 60 OFFCURVE",
"149 105 OFFCURVE",
"149 167 CURVE SMOOTH",
"149 177 LINE",
"59 177 LINE",
"59 167 LINE SMOOTH",
"59 62 OFFCURVE",
"146 -10 OFFCURVE",
"271 -10 CURVE SMOOTH"
);
},
{
closed = 1;
nodes = (
"195 334 OFFCURVE",
"146 391 OFFCURVE",
"146 486 CURVE SMOOTH",
"146 579 OFFCURVE",
"203 640 OFFCURVE",
"289 640 CURVE SMOOTH",
"373 640 OFFCURVE",
"424 580 OFFCURVE",
"424 482 CURVE SMOOTH",
"424 393 OFFCURVE",
"366 334 OFFCURVE",
"279 334 CURVE SMOOTH"
);
}
);
width = 584;
},
{
associatedMasterId = m01;
layerId = "036F5DD5-57DB-4C4E-88BD-C6D592B8D978";
name = "14 Oct 21, 14:08";
paths = (
{
closed = 1;
nodes = (
"450 -10 OFFCURVE",
"532 104 OFFCURVE",
"536 343 CURVE SMOOTH",
"540 597 OFFCURVE",
"452 710 OFFCURVE",
"283 710 CURVE SMOOTH",
"139 710 OFFCURVE",
"50 625 OFFCURVE",
"50 487 CURVE SMOOTH",
"50 351 OFFCURVE",
"134 264 OFFCURVE",
"264 264 CURVE SMOOTH",
"344 264 OFFCURVE",
"403 294 OFFCURVE",
"446 355 CURVE",
"446 150 OFFCURVE",
"397 60 OFFCURVE",
"285 60 CURVE SMOOTH",
"199 60 OFFCURVE",
"155 112 OFFCURVE",
"150 191 CURVE",
"60 191 LINE",
"65 68 OFFCURVE",
"141 -10 OFFCURVE",
"281 -10 CURVE SMOOTH"
);
},
{
closed = 1;
nodes = (
"192 334 OFFCURVE",
"143 392 OFFCURVE",
"143 488 CURVE SMOOTH",
"143 584 OFFCURVE",
"193 640 OFFCURVE",
"281 640 CURVE SMOOTH",
"372 640 OFFCURVE",
"431 580 OFFCURVE",
"431 483 CURVE SMOOTH",
"431 394 OFFCURVE",
"371 334 OFFCURVE",
"281 334 CURVE SMOOTH"
);
}
);
width = 600;
}
);
unicode = 0039;
},
{
color = 6;
glyphname = zero.dnom;
lastChange = "2023-09-29 08:46:29 +0000";
layers = (
{
layerId = m01;
paths = (
{
closed = 1;
nodes = (
"268 -6 OFFCURVE",
"325 67 OFFCURVE",
"325 188 CURVE SMOOTH",
"325 309 OFFCURVE",
"268 382 OFFCURVE",
"178 382 CURVE SMOOTH",
"88 382 OFFCURVE",
"31 309 OFFCURVE",
"31 188 CURVE SMOOTH",
"31 67 OFFCURVE",
"88 -6 OFFCURVE",
"178 -6 CURVE SMOOTH"
);
},
{
closed = 1;
nodes = (
"127 51 OFFCURVE",
"99 94 OFFCURVE",
"99 188 CURVE SMOOTH",
"99 282 OFFCURVE",
"127 325 OFFCURVE",
"178 325 CURVE SMOOTH",
"229 325 OFFCURVE",
"257 282 OFFCURVE",
"257 188 CURVE SMOOTH",
"257 94 OFFCURVE",
"229 51 OFFCURVE",
"178 51 CURVE SMOOTH"
);
}
);
width = 356;
}
);
leftKerningGroup = zero.dnom;
rightKerningGroup = zero.dnom;
},
{
color = 6;
glyphname = one.dnom;
lastChange = "2023-09-29 08:46:29 +0000";
layers = (
{
layerId = m01;
paths = (
{
closed = 1;
nodes = (
"185 0 LINE",
"185 376 LINE",
"121 376 LINE",
"17 286 LINE",
"17 213 LINE",
"121 310 LINE",
"121 0 LINE"
);
}
);
width = 238;
}
);
leftKerningGroup = zero.dnom;
rightKerningGroup = zero.dnom;
},
{
color = 6;
glyphname = two.dnom;
lastChange = "2023-09-29 08:46:29 +0000";
layers = (
{
layerId = m01;
paths = (
{
closed = 1;
nodes = (
"283 0 LINE",
"283 53 LINE",
"84 53 LINE",
"91 30 LINE",
"211 152 LINE SMOOTH",
"261 203 OFFCURVE",
"278 236 OFFCURVE",
"278 275 CURVE SMOOTH",
"278 340 OFFCURVE",
"228 382 OFFCURVE",
"153 382 CURVE SMOOTH",
"75 382 OFFCURVE",
"26 334 OFFCURVE",
"24 266 CURVE",
"90 266 LINE",
"91 307 OFFCURVE",
"113 329 OFFCURVE",
"153 329 CURVE SMOOTH",
"192 329 OFFCURVE",
"212 309 OFFCURVE",
"212 274 CURVE SMOOTH",
"212 244 OFFCURVE",
"197 223 OFFCURVE",
"163 187 CURVE SMOOTH",
"33 49 LINE",
"33 0 LINE"
);
}
);
width = 311;
}
);
leftKerningGroup = zero.dnom;
rightKerningGroup = zero.dnom;
},
{
color = 6;
glyphname = three.dnom;
lastChange = "2023-09-29 08:46:29 +0000";
layers = (
{
layerId = m01;
paths = (
{
closed = 1;
nodes = (
"238 -6 OFFCURVE",
"291 41 OFFCURVE",
"291 107 CURVE SMOOTH",
"291 152 OFFCURVE",
"265 181 OFFCURVE",
"217 194 CURVE",
"260 208 OFFCURVE",
"283 237 OFFCURVE",
"283 277 CURVE SMOOTH",
"283 338 OFFCURVE",
"230 382 OFFCURVE",
"157 382 CURVE SMOOTH",
"83 382 OFFCURVE",
"31 337 OFFCURVE",
"29 271 CURVE",
"95 271 LINE",
"96 309 OFFCURVE",
"120 329 OFFCURVE",
"157 329 CURVE SMOOTH",
"195 329 OFFCURVE",
"217 309 OFFCURVE",
"217 274 CURVE SMOOTH",
"217 239 OFFCURVE",
"194 218 OFFCURVE",
"155 218 CURVE SMOOTH",
"128 218 LINE",
"128 166 LINE",
"155 166 LINE SMOOTH",
"200 166 OFFCURVE",
"225 146 OFFCURVE",
"225 107 CURVE SMOOTH",
"225 69 OFFCURVE",
"202 47 OFFCURVE",
"161 47 CURVE SMOOTH",
"118 47 OFFCURVE",
"94 69 OFFCURVE",
"93 116 CURVE",
"27 116 LINE",
"29 41 OFFCURVE",
"81 -6 OFFCURVE",
"161 -6 CURVE SMOOTH"
);
}
);
width = 322;
}
);
leftKerningGroup = zero.dnom;
rightKerningGroup = zero.dnom;
},
{
color = 6;
glyphname = four.dnom;
lastChange = "2023-09-29 08:46:29 +0000";
layers = (
{
layerId = m01;
paths = (
{
closed = 1;
nodes = (
"265 0 LINE",
"265 111 LINE",
"323 111 LINE",
"323 161 LINE",
"265 161 LINE",
"265 376 LINE",
"178 376 LINE",
"22 149 LINE",
"22 111 LINE",
"205 111 LINE",
"205 0 LINE"
);
},
{
closed = 1;
nodes = (
"219 352 LINE",
"205 354 LINE",
"205 161 LINE",
"50 161 LINE",
"66 126 LINE"
);
}
);
width = 346;
}
);
leftKerningGroup = zero.dnom;
rightKerningGroup = zero.dnom;
},
{
color = 6;
glyphname = five.dnom;
lastChange = "2023-09-29 08:46:29 +0000";
layers = (
{
layerId = m01;
paths = (
{
closed = 1;
nodes = (
"236 -6 OFFCURVE",
"289 46 OFFCURVE",
"289 122 CURVE SMOOTH",
"289 190 OFFCURVE",
"244 240 OFFCURVE",
"177 240 CURVE SMOOTH",
"132 240 OFFCURVE",
"97 219 OFFCURVE",
"79 181 CURVE",
"107 165 LINE",
"120 179 OFFCURVE",
"137 187 OFFCURVE",
"161 187 CURVE SMOOTH",
"203 187 OFFCURVE",
"223 163 OFFCURVE",
"223 122 CURVE SMOOTH",
"223 75 OFFCURVE",
"199 47 OFFCURVE",
"158 47 CURVE SMOOTH",
"121 47 OFFCURVE",
"95 70 OFFCURVE",
"94 108 CURVE",
"28 108 LINE",
"30 41 OFFCURVE",
"83 -6 OFFCURVE",
"158 -6 CURVE SMOOTH"
);
},
{
closed = 1;
nodes = (
"107 165 LINE",
"98 190 LINE",
"109 346 LINE",
"84 320 LINE",
"275 320 LINE",
"275 376 LINE",
"52 376 LINE",
"38 165 LINE"
);
}
);
width = 316;
}
);
leftKerningGroup = zero.dnom;
rightKerningGroup = zero.dnom;
},
{
color = 6;
glyphname = six.dnom;
lastChange = "2023-09-29 08:46:29 +0000";
layers = (
{
layerId = m01;
paths = (
{
closed = 1;
nodes = (
"247 -6 OFFCURVE",
"298 44 OFFCURVE",
"298 119 CURVE SMOOTH",
"298 187 OFFCURVE",
"253 235 OFFCURVE",
"183 235 CURVE SMOOTH",
"138 235 OFFCURVE",
"103 215 OFFCURVE",
"87 181 CURVE",
"100 155 LINE",
"91 269 OFFCURVE",
"116 329 OFFCURVE",
"177 329 CURVE SMOOTH",
"212 329 OFFCURVE",
"231 311 OFFCURVE",
"232 274 CURVE",
"298 274 LINE",
"297 339 OFFCURVE",
"251 382 OFFCURVE",
"178 382 CURVE SMOOTH",
"84 382 OFFCURVE",
"32 309 OFFCURVE",
"32 181 CURVE SMOOTH",
"32 58 OFFCURVE",
"80 -6 OFFCURVE",
"170 -6 CURVE SMOOTH"
);
},
{
closed = 1;
nodes = (
"130 47 OFFCURVE",
"106 71 OFFCURVE",
"106 116 CURVE SMOOTH",
"106 160 OFFCURVE",
"130 183 OFFCURVE",
"171 183 CURVE SMOOTH",
"212 183 OFFCURVE",
"232 161 OFFCURVE",
"232 117 CURVE SMOOTH",
"232 70 OFFCURVE",
"210 47 OFFCURVE",
"170 47 CURVE SMOOTH"
);
}
);
width = 330;
}
);
leftKerningGroup = zero.dnom;
rightKerningGroup = zero.dnom;
},
{
color = 6;
glyphname = seven.dnom;
lastChange = "2023-09-29 08:46:29 +0000";
layers = (
{
layerId = m01;
paths = (
{
closed = 1;
nodes = (
"131 0 LINE",
"263 329 LINE",
"263 376 LINE",
"11 376 LINE",
"11 323 LINE",
"241 323 LINE",
"220 375 LINE",
"58 0 LINE"
);
}
);
width = 281;
}
);
leftKerningGroup = zero.dnom;
rightKerningGroup = zero.dnom;
},
{
color = 6;
glyphname = eight.dnom;
lastChange = "2023-09-29 08:46:29 +0000";
layers = (
{
layerId = m01;
paths = (
{
closed = 1;
nodes = (
"242 -6 OFFCURVE",
"293 34 OFFCURVE",
"293 98 CURVE SMOOTH",
"293 141 OFFCURVE",
"269 173 OFFCURVE",
"224 190 CURVE",
"265 204 OFFCURVE",
"290 235 OFFCURVE",
"290 277 CURVE SMOOTH",
"290 339 OFFCURVE",
"237 382 OFFCURVE",
"163 382 CURVE SMOOTH",
"89 382 OFFCURVE",
"36 339 OFFCURVE",
"36 277 CURVE SMOOTH",
"36 235 OFFCURVE",
"61 204 OFFCURVE",
"102 190 CURVE",
"57 173 OFFCURVE",
"33 141 OFFCURVE",
"33 98 CURVE SMOOTH",
"33 34 OFFCURVE",
"84 -6 OFFCURVE",
"163 -6 CURVE SMOOTH"
);
},
{
closed = 1;
nodes = (
"121 47 OFFCURVE",
"99 68 OFFCURVE",
"99 105 CURVE SMOOTH",
"99 143 OFFCURVE",
"123 164 OFFCURVE",
"163 164 CURVE SMOOTH",
"203 164 OFFCURVE",
"227 143 OFFCURVE",
"227 105 CURVE SMOOTH",
"227 68 OFFCURVE",
"205 47 OFFCURVE",
"163 47 CURVE SMOOTH"
);
},
{
closed = 1;
nodes = (
"125 217 OFFCURVE",
"102 237 OFFCURVE",
"102 273 CURVE SMOOTH",
"102 309 OFFCURVE",
"124 329 OFFCURVE",
"163 329 CURVE SMOOTH",
"202 329 OFFCURVE",
"224 309 OFFCURVE",
"224 273 CURVE SMOOTH",
"224 237 OFFCURVE",
"201 217 OFFCURVE",
"163 217 CURVE SMOOTH"
);
}
);
width = 326;
}
);
leftKerningGroup = zero.dnom;
rightKerningGroup = zero.dnom;
},
{
color = 6;
glyphname = nine.dnom;
lastChange = "2023-09-29 08:46:29 +0000";
layers = (
{
layerId = m01;
paths = (
{
closed = 1;
nodes = (
"248 -6 OFFCURVE",
"296 64 OFFCURVE",
"296 195 CURVE SMOOTH",
"296 318 OFFCURVE",
"248 382 OFFCURVE",
"158 382 CURVE SMOOTH",
"81 382 OFFCURVE",
"30 332 OFFCURVE",
"30 259 CURVE SMOOTH",
"30 189 OFFCURVE",
"77 141 OFFCURVE",
"145 141 CURVE SMOOTH",
"189 141 OFFCURVE",
"223 161 OFFCURVE",
"239 195 CURVE",
"228 221 LINE",
"237 99 OFFCURVE",
"216 47 OFFCURVE",
"157 47 CURVE SMOOTH",
"122 47 OFFCURVE",
"102 65 OFFCURVE",
"101 102 CURVE",
"35 102 LINE",
"36 37 OFFCURVE",
"83 -6 OFFCURVE",
"156 -6 CURVE SMOOTH"
);
},
{
closed = 1;
nodes = (
"118 193 OFFCURVE",
"96 216 OFFCURVE",
"96 260 CURVE SMOOTH",
"96 306 OFFCURVE",
"118 329 OFFCURVE",
"158 329 CURVE SMOOTH",
"198 329 OFFCURVE",
"222 305 OFFCURVE",
"222 259 CURVE SMOOTH",
"222 216 OFFCURVE",
"199 193 OFFCURVE",
"158 193 CURVE SMOOTH"
);
}
);
width = 328;
}
);
leftKerningGroup = zero.dnom;
rightKerningGroup = zero.dnom;
},
{
color = 6;
glyphname = fraction;
lastChange = "2023-09-29 08:46:29 +0000";
layers = (
{
layerId = m01;
paths = (
{
closed = 1;
nodes = (
"-80 0 LINE",
"337 700 LINE",
"260 700 LINE",
"-157 0 LINE"
);
}
);
width = 180;
}
);
unicode = 2044;
},
{
color = 6;
glyphname = .notdef;
lastChange = "2023-09-29 08:46:29 +0000";
layers = (
{
layerId = m01;
paths = (
{
closed = 1;
nodes = (
"552 0 LINE",
"552 700 LINE",
"45 700 LINE",
"45 0 LINE"
);
},
{
closed = 1;
nodes = (
"139 628 LINE",
"458 628 LINE",
"458 72 LINE",
"139 72 LINE"
);
}
);
width = 597;
}
);
},
{
color = 6;
glyphname = period;
lastChange = "2023-09-29 08:46:29 +0000";
layers = (
{
layerId = m01;
paths = (
{
closed = 1;
nodes = (
"151 -10 OFFCURVE",
"180 15 OFFCURVE",
"180 54 CURVE SMOOTH",
"180 90 OFFCURVE",
"151 116 OFFCURVE",
"117 116 CURVE SMOOTH",
"82 116 OFFCURVE",
"53 90 OFFCURVE",
"53 54 CURVE SMOOTH",
"53 15 OFFCURVE",
"82 -10 OFFCURVE",
"117 -10 CURVE SMOOTH"
);
}
);
width = 233;
},
{
associatedMasterId = m01;
layerId = "41AF2D8E-C6F7-4AEC-B79F-C0F6B158B3B5";
name = "Oct 7 21, 14:00";
paths = (
{
closed = 1;
nodes = (
"133 112 LINE",
"28 112 LINE",
"28 0 LINE",
"133 0 LINE"
);
}
);
width = 161;
}
);
leftKerningGroup = period;
rightKerningGroup = period;
unicode = 002E;
},
{
color = 6;
glyphname = comma;
lastChange = "2023-09-29 08:46:29 +0000";
layers = (
{
associatedMasterId = m01;
layerId = "FAC7283D-9F81-4E2C-8FDC-01C2C6D6127E";
name = "Oct 7 21, 13:59";
paths = (
{
closed = 1;
nodes = (
"127 -111 OFFCURVE",
"153 -41 OFFCURVE",
"153 21 CURVE",
"82 24 LINE",
"128 16 LINE",
"103 14 LINE",
"102 -39 OFFCURVE",
"81 -73 OFFCURVE",
"28 -104 CURVE",
"28 -160 LINE"
);
},
{
closed = 1;
nodes = (
"153 111 LINE",
"48 111 LINE",
"48 0 LINE",
"121 0 LINE",
"153 21 LINE"
);
}
);
width = 171;
},
{
associatedMasterId = m01;
layerId = "73BFB8B8-4D07-45AA-8984-483F3E3DEAE5";
name = "3 Nov 21, 14:51";
paths = (
{
closed = 1;
nodes = (
"127 -111 OFFCURVE",
"153 -41 OFFCURVE",
"153 21 CURVE",
"82 24 LINE",
"128 16 LINE",
"103 14 LINE",
"102 -39 OFFCURVE",
"81 -73 OFFCURVE",
"28 -104 CURVE",
"28 -160 LINE"
);
},
{
closed = 1;
nodes = (
"153 111 LINE",
"48 111 LINE",
"48 0 LINE",
"121 0 LINE",
"153 21 LINE"
);
}
);
width = 173;
},
{
associatedMasterId = m01;
layerId = "C1EC4034-2CFE-4A7E-905C-B9378FCA848A";
name = "3 Nov 21, 14:52";
paths = (
{
closed = 1;
nodes = (
"127 -111 OFFCURVE",
"153 -41 OFFCURVE",
"153 21 CURVE",
"82 24 LINE",
"128 16 LINE",
"103 14 LINE",
"102 -39 OFFCURVE",
"81 -73 OFFCURVE",
"28 -104 CURVE",
"28 -160 LINE"
);
},
{
closed = 1;
nodes = (
"153 111 LINE",
"48 111 LINE",
"48 0 LINE",
"121 0 LINE",
"153 21 LINE"
);
}
);
width = 173;
},
{
layerId = m01;
paths = (
{
closed = 1;
nodes = (
"144 -138 OFFCURVE",
"192 -74 OFFCURVE",
"192 21 CURVE SMOOTH",
"192 77 OFFCURVE",
"165 112 OFFCURVE",
"118 112 CURVE SMOOTH",
"80 112 OFFCURVE",
"54 88 OFFCURVE",
"54 52 CURVE SMOOTH",
"54 15 OFFCURVE",
"80 -10 OFFCURVE",
"115 -10 CURVE SMOOTH",
"134 -10 OFFCURVE",
"151 -2 OFFCURVE",
"163 13 CURVE",
"138 10 LINE",
"137 -58 OFFCURVE",
"114 -94 OFFCURVE",
"64 -124 CURVE",
"64 -178 LINE"
);
}
);
width = 245;
},
{
associatedMasterId = m01;
layerId = "F6D7EF7B-0994-46EB-A6E5-A40F58047F85";
name = "3 Nov 21, 14:54";
paths = (
{
closed = 1;
nodes = (
"155 -111 OFFCURVE",
"181 -41 OFFCURVE",
"181 21 CURVE SMOOTH",
"181 82 OFFCURVE",
"153 113 OFFCURVE",
"111 113 CURVE SMOOTH",
"75 113 OFFCURVE",
"50 88 OFFCURVE",
"50 53 CURVE SMOOTH",
"50 18 OFFCURVE",
"75 -7 OFFCURVE",
"110 -7 CURVE SMOOTH",
"131 -7 OFFCURVE",
"147 1 OFFCURVE",
"156 16 CURVE",
"131 14 LINE",
"130 -39 OFFCURVE",
"109 -73 OFFCURVE",
"56 -104 CURVE",
"56 -160 LINE"
);
}
);
width = 231;
},
{
associatedMasterId = m01;
background = {
components = (
{
name = period;
transform = "{1, 0, 0, 1, 34, 0}";
},
{
name = period;
transform = "{1, 0, 0, 1, 34, -117}";
}
);
};
layerId = "4E73279F-0CE3-4824-A81E-CB43966CCBE7";
name = "Nov 5 21, 10:59";
paths = (
{
closed = 1;
nodes = (
"82 -127 LINE SMOOTH",
"158 -127 OFFCURVE",
"181 -101 OFFCURVE",
"181 -32 CURVE SMOOTH",
"181 17 LINE SMOOTH",
"181 75 OFFCURVE",
"159 107 OFFCURVE",
"115 107 CURVE SMOOTH",
"79 107 OFFCURVE",
"54 83 OFFCURVE",
"54 48 CURVE SMOOTH",
"54 14 OFFCURVE",
"78 -10 OFFCURVE",
"112 -10 CURVE SMOOTH",
"132 -10 OFFCURVE",
"148 -2 OFFCURVE",
"157 12 CURVE",
"136 10 LINE",
"136 -40 LINE SMOOTH",
"136 -76 OFFCURVE",
"120 -89 OFFCURVE",
"90 -89 CURVE SMOOTH",
"66 -89 LINE",
"66 -127 LINE"
);
}
);
width = 231;
}
);
leftKerningGroup = period;
rightKerningGroup = period;
unicode = 002C;
},
{
color = 6;
glyphname = exclam;
lastChange = "2023-09-29 08:46:29 +0000";
layers = (
{
layerId = m01;
paths = (
{
closed = 1;
nodes = (
"161 194 LINE",
"168 327 OFFCURVE",
"176 459 OFFCURVE",
"176 592 CURVE SMOOTH",
"176 700 LINE",
"86 700 LINE",
"86 592 LINE SMOOTH",
"86 459 OFFCURVE",
"94 327 OFFCURVE",
"101 194 CURVE"
);
},
{
closed = 1;
nodes = (
"164 -10 OFFCURVE",
"193 15 OFFCURVE",
"193 53 CURVE SMOOTH",
"193 88 OFFCURVE",
"164 114 OFFCURVE",
"131 114 CURVE SMOOTH",
"97 114 OFFCURVE",
"68 88 OFFCURVE",
"68 53 CURVE SMOOTH",
"68 15 OFFCURVE",
"97 -10 OFFCURVE",
"131 -10 CURVE SMOOTH"
);
}
);
width = 262;
}
);
unicode = 0021;
},
{
color = 6;
glyphname = question;
lastChange = "2023-09-29 08:46:29 +0000";
layers = (
{
layerId = m01;
paths = (
{
closed = 1;
nodes = (
"276 186 LINE",
"276 232 LINE SMOOTH",
"276 277 OFFCURVE",
"290 308 OFFCURVE",
"326 341 CURVE SMOOTH",
"367 379 LINE SMOOTH",
"405 413 OFFCURVE",
"453 449 OFFCURVE",
"453 528 CURVE SMOOTH",
"453 634 OFFCURVE",
"362 710 OFFCURVE",
"234 710 CURVE SMOOTH",
"107 710 OFFCURVE",
"24 638 OFFCURVE",
"17 523 CURVE",
"107 523 LINE",
"113 597 OFFCURVE",
"158 638 OFFCURVE",
"234 638 CURVE SMOOTH",
"310 638 OFFCURVE",
"358 594 OFFCURVE",
"358 526 CURVE SMOOTH",
"358 470 OFFCURVE",
"325 446 OFFCURVE",
"289 415 CURVE SMOOTH",
"247 378 LINE SMOOTH",
"202 339 OFFCURVE",
"186 302 OFFCURVE",
"186 239 CURVE SMOOTH",
"186 186 LINE"
);
},
{
closed = 1;
nodes = (
"269 -10 OFFCURVE",
"296 17 OFFCURVE",
"296 53 CURVE SMOOTH",
"296 87 OFFCURVE",
"268 114 OFFCURVE",
"234 114 CURVE SMOOTH",
"199 114 OFFCURVE",
"171 87 OFFCURVE",
"171 53 CURVE SMOOTH",
"171 17 OFFCURVE",
"198 -10 OFFCURVE",
"234 -10 CURVE SMOOTH"
);
}
);
width = 479;
}
);
unicode = 003F;
},
{
color = 6;
glyphname = bullet;
lastChange = "2023-09-29 08:46:29 +0000";
layers = (
{
layerId = m01;
paths = (
{
closed = 1;
nodes = (
"261 238 OFFCURVE",
"312 286 OFFCURVE",
"312 355 CURVE SMOOTH",
"312 423 OFFCURVE",
"261 471 OFFCURVE",
"197 471 CURVE SMOOTH",
"132 471 OFFCURVE",
"80 423 OFFCURVE",
"80 355 CURVE SMOOTH",
"80 286 OFFCURVE",
"132 238 OFFCURVE",
"197 238 CURVE SMOOTH"
);
}
);
width = 392;
}
);
unicode = 2022;
},
{
color = 6;
glyphname = asterisk;
lastChange = "2023-09-29 08:46:29 +0000";
layers = (
{
layerId = m01;
paths = (
{
closed = 1;
nodes = (
"338 413 LINE",
"309 452 LINE SMOOTH",
"276 496 OFFCURVE",
"248 512 OFFCURVE",
"222 539 CURVE",
"198 521 LINE",
"216 487 OFFCURVE",
"222 457 OFFCURVE",
"254 412 CURVE SMOOTH",
"282 373 LINE"
);
},
{
closed = 1;
nodes = (
"166 411 LINE SMOOTH",
"198 456 OFFCURVE",
"205 488 OFFCURVE",
"223 522 CURVE",
"198 538 LINE",
"171 511 OFFCURVE",
"144 496 OFFCURVE",
"112 453 CURVE SMOOTH",
"83 413 LINE",
"138 372 LINE"
);
},
{
closed = 1;
nodes = (
"214 545 LINE",
"181 561 OFFCURVE",
"158 581 OFFCURVE",
"105 599 CURVE SMOOTH",
"60 615 LINE",
"38 550 LINE",
"83 535 LINE SMOOTH",
"137 517 OFFCURVE",
"168 522 OFFCURVE",
"206 515 CURVE"
);
},
{
closed = 1;
nodes = (
"225 530 LINE",
"231 568 OFFCURVE",
"244 595 OFFCURVE",
"244 653 CURVE SMOOTH",
"244 700 LINE",
"176 700 LINE",
"176 653 LINE SMOOTH",
"176 595 OFFCURVE",
"189 568 OFFCURVE",
"195 530 CURVE"
);
},
{
closed = 1;
nodes = (
"252 522 OFFCURVE",
"283 519 OFFCURVE",
"337 536 CURVE SMOOTH",
"382 550 LINE",
"361 615 LINE",
"316 600 LINE SMOOTH",
"262 582 OFFCURVE",
"239 561 OFFCURVE",
"205 544 CURVE",
"215 516 LINE"
);
}
);
width = 421;
}
);
unicode = 002A;
},
{
color = 6;
glyphname = numbersign;
lastChange = "2023-09-29 08:46:29 +0000";
layers = (
{
guideLines = (
{
angle = 254.7449;
position = "{101, 464}";
}
);
layerId = m01;
paths = (
{
closed = 1;
nodes = (
"365 0 LINE",
"565 700 LINE",
"491 700 LINE",
"291 0 LINE"
);
},
{
closed = 1;
nodes = (
"-17 199 LINE",
"582 199 LINE",
"525 179 LINE",
"549 267 LINE",
"40 267 LINE",
"16 179 LINE"
);
},
{
closed = 1;
nodes = (
"140 0 LINE",
"340 700 LINE",
"266 700 LINE",
"66 0 LINE"
);
},
{
closed = 1;
nodes = (
"49 440 LINE",
"648 440 LINE",
"591 420 LINE",
"615 508 LINE",
"106 508 LINE",
"82 420 LINE"
);
}
);
width = 635;
}
);
unicode = 0023;
},
{
color = 6;
glyphname = slash;
lastChange = "2023-09-29 08:46:29 +0000";
layers = (
{
layerId = m01;
paths = (
{
closed = 1;
nodes = (
"98 -150 LINE",
"445 760 LINE",
"361 760 LINE",
"14 -150 LINE"
);
}
);
width = 459;
}
);
unicode = 002F;
},
{
color = 6;
glyphname = backslash;
lastChange = "2023-09-29 08:46:29 +0000";
layers = (
{
layerId = m01;
paths = (
{
closed = 1;
nodes = (
"445 -150 LINE",
"98 760 LINE",
"14 760 LINE",
"361 -150 LINE"
);
}
);
width = 459;
}
);
unicode = 005C;
},
{
color = 6;
glyphname = hyphen;
lastChange = "2023-09-29 08:46:29 +0000";
layers = (
{
layerId = m01;
paths = (
{
closed = 1;
nodes = (
"331 290 LINE",
"331 360 LINE",
"53 360 LINE",
"53 290 LINE"
);
}
);
width = 384;
}
);
leftKerningGroup = hyphen;
rightKerningGroup = hyphen;
unicode = 002D;
},
{
color = 6;
glyphname = endash;
lastChange = "2023-09-29 08:46:29 +0000";
layers = (
{
layerId = m01;
paths = (
{
closed = 1;
nodes = (
"531 290 LINE",
"531 360 LINE",
"53 360 LINE",
"53 290 LINE"
);
}
);
width = 584;
}
);
leftKerningGroup = hyphen;
rightKerningGroup = hyphen;
unicode = 2013;
},
{
color = 6;
glyphname = emdash;
lastChange = "2023-09-29 08:46:29 +0000";
layers = (
{
layerId = m01;
paths = (
{
closed = 1;
nodes = (
"1033 290 LINE",
"1033 360 LINE",
"53 360 LINE",
"53 290 LINE"
);
}
);
width = 1086;
}
);
leftKerningGroup = hyphen;
rightKerningGroup = hyphen;
unicode = 2014;
},
{
color = 6;
glyphname = underscore;
lastChange = "2023-09-29 08:46:29 +0000";
layers = (
{
layerId = m01;
paths = (
{
closed = 1;
nodes = (
"503 -126 LINE",
"503 -56 LINE",
"25 -56 LINE",
"25 -126 LINE"
);
}
);
width = 528;
}
);
unicode = 005F;
},
{
color = 6;
glyphname = parenleft;
lastChange = "2023-09-29 08:46:29 +0000";
layers = (
{
layerId = m01;
paths = (
{
closed = 1;
nodes = (
"134 305 LINE",
"134 481 OFFCURVE",
"193 620 OFFCURVE",
"327 760 CURVE",
"238 760 LINE",
"111 643 OFFCURVE",
"44 485 OFFCURVE",
"44 305 CURVE"
);
},
{
closed = 1;
nodes = (
"327 -150 LINE",
"193 -10 OFFCURVE",
"134 129 OFFCURVE",
"134 305 CURVE",
"44 305 LINE",
"44 125 OFFCURVE",
"111 -33 OFFCURVE",
"238 -150 CURVE"
);
}
);
width = 325;
}
);
unicode = 0028;
},
{
color = 6;
glyphname = braceleft;
lastChange = "2023-09-29 08:46:29 +0000";
layers = (
{
layerId = m01;
paths = (
{
closed = 1;
nodes = (
"337 -150 LINE",
"337 -88 LINE",
"234 -88 OFFCURVE",
"220 -76 OFFCURVE",
"220 8 CURVE SMOOTH",
"220 191 LINE SMOOTH",
"220 260 OFFCURVE",
"195 293 OFFCURVE",
"134 305 CURVE",
"195 317 OFFCURVE",
"220 350 OFFCURVE",
"220 419 CURVE SMOOTH",
"220 602 LINE SMOOTH",
"220 686 OFFCURVE",
"234 698 OFFCURVE",
"337 698 CURVE",
"337 760 LINE",
"273 760 LINE SMOOTH",
"181 760 OFFCURVE",
"136 716 OFFCURVE",
"136 624 CURVE SMOOTH",
"136 431 LINE SMOOTH",
"136 364 OFFCURVE",
"116 340 OFFCURVE",
"52 340 CURVE SMOOTH",
"32 340 LINE",
"32 270 LINE",
"52 270 LINE SMOOTH",
"116 270 OFFCURVE",
"136 246 OFFCURVE",
"136 179 CURVE SMOOTH",
"136 -14 LINE SMOOTH",
"136 -106 OFFCURVE",
"181 -150 OFFCURVE",
"273 -150 CURVE SMOOTH"
);
}
);
width = 360;
}
);
unicode = 007B;
},
{
color = 6;
glyphname = bracketleft;
lastChange = "2023-09-29 08:46:29 +0000";
layers = (
{
layerId = m01;
paths = (
{
closed = 1;
nodes = (
"281 -150 LINE",
"281 -88 LINE",
"174 -88 LINE",
"174 698 LINE",
"281 698 LINE",
"281 760 LINE",
"90 760 LINE",
"90 -150 LINE"
);
}
);
width = 306;
}
);
unicode = 005B;
},
{
color = 6;
glyphname = quotesinglbase;
lastChange = "2023-09-29 08:46:29 +0000";
layers = (
{
layerId = m01;
paths = (
{
closed = 1;
nodes = (
"140 -118 OFFCURVE",
"185 -57 OFFCURVE",
"185 19 CURVE SMOOTH",
"185 74 OFFCURVE",
"161 104 OFFCURVE",
"116 104 CURVE SMOOTH",
"80 104 OFFCURVE",
"56 81 OFFCURVE",
"56 48 CURVE SMOOTH",
"56 14 OFFCURVE",
"79 -10 OFFCURVE",
"113 -10 CURVE SMOOTH",
"132 -10 OFFCURVE",
"147 -3 OFFCURVE",
"158 11 CURVE",
"135 10 LINE",
"134 -40 OFFCURVE",
"114 -72 OFFCURVE",
"61 -99 CURVE",
"61 -150 LINE"
);
}
);
width = 239;
}
);
leftKerningGroup = period;
rightKerningGroup = period;
unicode = 201A;
},
{
color = 6;
glyphname = quotedblbase;
lastChange = "2023-09-29 08:46:29 +0000";
layers = (
{
layerId = m01;
paths = (
{
closed = 1;
nodes = (
"140 -118 OFFCURVE",
"185 -57 OFFCURVE",
"185 19 CURVE SMOOTH",
"185 74 OFFCURVE",
"161 104 OFFCURVE",
"116 104 CURVE SMOOTH",
"80 104 OFFCURVE",
"56 81 OFFCURVE",
"56 48 CURVE SMOOTH",
"56 14 OFFCURVE",
"79 -10 OFFCURVE",
"113 -10 CURVE SMOOTH",
"132 -10 OFFCURVE",
"147 -3 OFFCURVE",
"158 11 CURVE",
"135 10 LINE",
"134 -40 OFFCURVE",
"114 -72 OFFCURVE",
"61 -99 CURVE",
"61 -150 LINE"
);
},
{
closed = 1;
nodes = (
"307 -118 OFFCURVE",
"352 -57 OFFCURVE",
"352 19 CURVE SMOOTH",
"352 74 OFFCURVE",
"328 104 OFFCURVE",
"283 104 CURVE SMOOTH",
"247 104 OFFCURVE",
"223 81 OFFCURVE",
"223 48 CURVE SMOOTH",
"223 14 OFFCURVE",
"246 -10 OFFCURVE",
"280 -10 CURVE SMOOTH",
"299 -10 OFFCURVE",
"314 -3 OFFCURVE",
"325 11 CURVE",
"302 10 LINE",
"301 -40 OFFCURVE",
"281 -72 OFFCURVE",
"228 -99 CURVE",
"228 -150 LINE"
);
}
);
width = 406;
}
);
leftKerningGroup = period;
rightKerningGroup = period;
unicode = 201E;
},
{
color = 6;
glyphname = quotedblleft;
lastChange = "2023-09-29 08:46:29 +0000";
layers = (
{
layerId = m01;
paths = (
{
closed = 1;
nodes = (
"94 678 OFFCURVE",
"49 617 OFFCURVE",
"49 541 CURVE SMOOTH",
"49 486 OFFCURVE",
"73 456 OFFCURVE",
"118 456 CURVE SMOOTH",
"154 456 OFFCURVE",
"178 479 OFFCURVE",
"178 512 CURVE SMOOTH",
"178 546 OFFCURVE",
"155 570 OFFCURVE",
"121 570 CURVE SMOOTH",
"102 570 OFFCURVE",
"87 563 OFFCURVE",
"76 549 CURVE",
"99 550 LINE",
"100 600 OFFCURVE",
"120 632 OFFCURVE",
"173 659 CURVE",
"173 710 LINE"
);
},
{
closed = 1;
nodes = (
"261 678 OFFCURVE",
"216 617 OFFCURVE",
"216 541 CURVE SMOOTH",
"216 486 OFFCURVE",
"240 456 OFFCURVE",
"285 456 CURVE SMOOTH",
"321 456 OFFCURVE",
"345 479 OFFCURVE",
"345 512 CURVE SMOOTH",
"345 546 OFFCURVE",
"322 570 OFFCURVE",
"288 570 CURVE SMOOTH",
"269 570 OFFCURVE",
"254 563 OFFCURVE",
"243 549 CURVE",
"266 550 LINE",
"267 600 OFFCURVE",
"287 632 OFFCURVE",
"340 659 CURVE",
"340 710 LINE"
);
}
);
width = 400;
}
);
leftKerningGroup = quoteleft;
rightKerningGroup = quoteleft;
unicode = 201C;
},
{
color = 6;
glyphname = quotedblright;
lastChange = "2023-09-29 08:46:29 +0000";
layers = (
{
layerId = m01;
paths = (
{
closed = 1;
nodes = (
"310 488 OFFCURVE",
"355 549 OFFCURVE",
"355 625 CURVE SMOOTH",
"355 680 OFFCURVE",
"331 710 OFFCURVE",
"286 710 CURVE SMOOTH",
"250 710 OFFCURVE",
"226 687 OFFCURVE",
"226 654 CURVE SMOOTH",
"226 620 OFFCURVE",
"249 596 OFFCURVE",
"283 596 CURVE SMOOTH",
"302 596 OFFCURVE",
"317 603 OFFCURVE",
"328 617 CURVE",
"305 616 LINE",
"304 566 OFFCURVE",
"284 534 OFFCURVE",
"231 507 CURVE",
"231 456 LINE"
);
},
{
closed = 1;
nodes = (
"143 488 OFFCURVE",
"188 549 OFFCURVE",
"188 625 CURVE SMOOTH",
"188 680 OFFCURVE",
"164 710 OFFCURVE",
"119 710 CURVE SMOOTH",
"83 710 OFFCURVE",
"59 687 OFFCURVE",
"59 654 CURVE SMOOTH",
"59 620 OFFCURVE",
"82 596 OFFCURVE",
"116 596 CURVE SMOOTH",
"135 596 OFFCURVE",
"150 603 OFFCURVE",
"161 617 CURVE",
"138 616 LINE",
"137 566 OFFCURVE",
"117 534 OFFCURVE",
"64 507 CURVE",
"64 456 LINE"
);
}
);
width = 397;
}
);
leftKerningGroup = quoteright;
rightKerningGroup = quoteright;
unicode = 201D;
},
{
color = 6;
glyphname = quoteleft;
lastChange = "2023-09-29 08:46:29 +0000";
layers = (
{
layerId = m01;
paths = (
{
closed = 1;
nodes = (
"94 678 OFFCURVE",
"49 617 OFFCURVE",
"49 541 CURVE SMOOTH",
"49 486 OFFCURVE",
"73 456 OFFCURVE",
"118 456 CURVE SMOOTH",
"154 456 OFFCURVE",
"178 479 OFFCURVE",
"178 512 CURVE SMOOTH",
"178 546 OFFCURVE",
"155 570 OFFCURVE",
"121 570 CURVE SMOOTH",
"102 570 OFFCURVE",
"87 563 OFFCURVE",
"76 549 CURVE",
"99 550 LINE",
"100 600 OFFCURVE",
"120 632 OFFCURVE",
"173 659 CURVE",
"173 710 LINE"
);
}
);
width = 233;
}
);
leftKerningGroup = quoteleft;
rightKerningGroup = quoteleft;
unicode = 2018;
},
{
color = 6;
glyphname = quoteright;
lastChange = "2023-09-29 08:46:29 +0000";
layers = (
{
layerId = m01;
paths = (
{
closed = 1;
nodes = (
"143 488 OFFCURVE",
"188 549 OFFCURVE",
"188 625 CURVE SMOOTH",
"188 680 OFFCURVE",
"164 710 OFFCURVE",
"119 710 CURVE SMOOTH",
"83 710 OFFCURVE",
"59 687 OFFCURVE",
"59 654 CURVE SMOOTH",
"59 620 OFFCURVE",
"82 596 OFFCURVE",
"116 596 CURVE SMOOTH",
"135 596 OFFCURVE",
"150 603 OFFCURVE",
"161 617 CURVE",
"138 616 LINE",
"137 566 OFFCURVE",
"117 534 OFFCURVE",
"64 507 CURVE",
"64 456 LINE"
);
}
);
width = 230;
}
);
leftKerningGroup = quoteright;
rightKerningGroup = quoteright;
unicode = 2019;
},
{
color = 6;
glyphname = guillemetleft;
lastChange = "2023-09-29 08:46:29 +0000";
layers = (
{
layerId = m01;
paths = (
{
closed = 1;
nodes = (
"587 92 LINE",
"342 279 LINE",
"342 241 LINE",
"587 428 LINE",
"587 520 LINE",
"299 295 LINE",
"299 225 LINE",
"587 0 LINE"
);
},
{
closed = 1;
nodes = (
"337 92 LINE",
"92 279 LINE",
"92 241 LINE",
"337 428 LINE",
"337 520 LINE",
"49 295 LINE",
"49 225 LINE",
"337 0 LINE"
);
}
);
width = 642;
}
);
leftKerningGroup = guilsinglleft;
rightKerningGroup = guilsinglleft;
unicode = 00AB;
},
{
color = 6;
glyphname = guillemetright;
lastChange = "2023-09-29 08:46:29 +0000";
layers = (
{
layerId = m01;
paths = (
{
closed = 1;
nodes = (
"593 225 LINE",
"593 295 LINE",
"305 520 LINE",
"305 428 LINE",
"550 241 LINE",
"550 279 LINE",
"305 92 LINE",
"305 0 LINE"
);
},
{
closed = 1;
nodes = (
"343 225 LINE",
"343 295 LINE",
"55 520 LINE",
"55 428 LINE",
"300 241 LINE",
"300 279 LINE",
"55 92 LINE",
"55 0 LINE"
);
}
);
width = 642;
}
);
leftKerningGroup = guilsinglright;
rightKerningGroup = guilsinglright;
unicode = 00BB;
},
{
color = 6;
glyphname = guilsinglleft;
lastChange = "2023-09-29 08:46:29 +0000";
layers = (
{
layerId = m01;
paths = (
{
closed = 1;
nodes = (
"337 92 LINE",
"92 279 LINE",
"92 241 LINE",
"337 428 LINE",
"337 520 LINE",
"49 295 LINE",
"49 225 LINE",
"337 0 LINE"
);
}
);
width = 392;
}
);
leftKerningGroup = guilsinglleft;
rightKerningGroup = guilsinglleft;
unicode = 2039;
},
{
color = 6;
glyphname = guilsinglright;
lastChange = "2023-09-29 08:46:29 +0000";
layers = (
{
layerId = m01;
paths = (
{
closed = 1;
nodes = (
"343 225 LINE",
"343 295 LINE",
"55 520 LINE",
"55 428 LINE",
"300 241 LINE",
"300 279 LINE",
"55 92 LINE",
"55 0 LINE"
);
}
);
width = 392;
}
);
leftKerningGroup = guilsinglright;
rightKerningGroup = guilsinglright;
unicode = 203A;
},
{
color = 6;
glyphname = quotesingle;
lastChange = "2023-09-29 08:46:29 +0000";
layers = (
{
layerId = m01;
paths = (
{
closed = 1;
nodes = (
"128 465 LINE",
"141 545 OFFCURVE",
"148 583 OFFCURVE",
"148 638 CURVE SMOOTH",
"148 700 LINE",
"58 700 LINE",
"58 638 LINE SMOOTH",
"58 583 OFFCURVE",
"65 545 OFFCURVE",
"78 465 CURVE"
);
}
);
width = 206;
}
);
leftKerningGroup = quotesingle;
rightKerningGroup = quotesingle;
unicode = 0027;
},
{
color = 6;
glyphname = florin;
lastChange = "2023-09-29 08:46:29 +0000";
layers = (
{
associatedMasterId = m01;
layerId = "FE5B6154-F5AD-49F1-847A-91BACAFF6B70";
name = "20 Dec 21, 13:17";
paths = (
{
closed = 1;
nodes = (
"207 0 LINE",
"207 557 LINE SMOOTH",
"207 625 OFFCURVE",
"225 630 OFFCURVE",
"274 630 CURVE SMOOTH",
"345 630 LINE",
"345 700 LINE",
"245 700 LINE SMOOTH",
"157 700 OFFCURVE",
"117 673 OFFCURVE",
"117 564 CURVE SMOOTH",
"117 0 LINE"
);
},
{
closed = 1;
nodes = (
"117 453 LINE",
"117 -104 LINE SMOOTH",
"117 -172 OFFCURVE",
"99 -177 OFFCURVE",
"50 -177 CURVE SMOOTH",
"-21 -177 LINE",
"-21 -247 LINE",
"79 -247 LINE SMOOTH",
"167 -247 OFFCURVE",
"207 -220 OFFCURVE",
"207 -111 CURVE SMOOTH",
"207 453 LINE"
);
}
);
width = 600;
},
{
associatedMasterId = m01;
layerId = "BD6971C9-AC7B-4142-856C-05DDCD7EC3FF";
name = "20 Dec 21, 13:21";
paths = (
{
closed = 1;
nodes = (
"207 0 LINE",
"207 557 LINE SMOOTH",
"207 625 OFFCURVE",
"225 630 OFFCURVE",
"274 630 CURVE SMOOTH",
"345 630 LINE",
"345 700 LINE",
"245 700 LINE SMOOTH",
"157 700 OFFCURVE",
"117 673 OFFCURVE",
"117 564 CURVE SMOOTH",
"117 0 LINE"
);
}
);
width = 600;
},
{
layerId = m01;
paths = (
{
closed = 1;
nodes = (
"132 -104 LINE SMOOTH",
"120 -172 OFFCURVE",
"101 -177 OFFCURVE",
"52 -177 CURVE SMOOTH",
"-17 -177 LINE",
"-30 -247 LINE",
"70 -247 LINE SMOOTH",
"158 -247 OFFCURVE",
"202 -220 OFFCURVE",
"222 -111 CURVE SMOOTH",
"342 557 LINE SMOOTH",
"354 625 OFFCURVE",
"373 630 OFFCURVE",
"422 630 CURVE SMOOTH",
"492 630 LINE",
"504 700 LINE",
"404 700 LINE SMOOTH",
"316 700 OFFCURVE",
"272 673 OFFCURVE",
"252 564 CURVE SMOOTH"
);
},
{
closed = 1;
nodes = (
"435 346 LINE",
"435 416 LINE",
"107 416 LINE",
"107 346 LINE"
);
}
);
width = 474;
}
);
unicode = 0192;
},
{
color = 6;
glyphname = at;
lastChange = "2023-09-29 08:46:29 +0000";
layers = (
{
layerId = m01;
paths = (
{
closed = 1;
nodes = (
"612 -175 OFFCURVE",
"699 -157 OFFCURVE",
"784 -121 CURVE",
"784 -49 LINE",
"702 -82 OFFCURVE",
"613 -101 OFFCURVE",
"508 -101 CURVE SMOOTH",
"267 -101 OFFCURVE",
"130 58 OFFCURVE",
"130 261 CURVE SMOOTH",
"130 464 OFFCURVE",
"268 636 OFFCURVE",
"495 636 CURVE SMOOTH",
"714 636 OFFCURVE",
"841 488 OFFCURVE",
"841 316 CURVE SMOOTH",
"841 181 OFFCURVE",
"793 103 OFFCURVE",
"719 103 CURVE SMOOTH",
"680 103 OFFCURVE",
"666 121 OFFCURVE",
"666 150 CURVE SMOOTH",
"666 345 LINE SMOOTH",
"666 459 OFFCURVE",
"606 515 OFFCURVE",
"480 515 CURVE SMOOTH",
"376 515 OFFCURVE",
"297 452 OFFCURVE",
"295 363 CURVE",
"378 363 LINE",
"380 412 OFFCURVE",
"424 449 OFFCURVE",
"482 449 CURVE SMOOTH",
"549 449 OFFCURVE",
"583 418 OFFCURVE",
"583 353 CURVE SMOOTH",
"583 328 LINE",
"349 299 OFFCURVE",
"295 237 OFFCURVE",
"295 156 CURVE SMOOTH",
"295 78 OFFCURVE",
"353 25 OFFCURVE",
"443 25 CURVE SMOOTH",
"505 25 OFFCURVE",
"559 49 OFFCURVE",
"590 95 CURVE",
"600 67 OFFCURVE",
"627 34 OFFCURVE",
"704 34 CURVE SMOOTH",
"835 34 OFFCURVE",
"928 140 OFFCURVE",
"928 320 CURVE SMOOTH",
"928 530 OFFCURVE",
"761 710 OFFCURVE",
"497 710 CURVE SMOOTH",
"223 710 OFFCURVE",
"41 505 OFFCURVE",
"41 261 CURVE SMOOTH",
"41 12 OFFCURVE",
"208 -175 OFFCURVE",
"500 -175 CURVE SMOOTH"
);
},
{
closed = 1;
nodes = (
"412 91 OFFCURVE",
"381 118 OFFCURVE",
"381 160 CURVE SMOOTH",
"381 208 OFFCURVE",
"419 248 OFFCURVE",
"583 267 CURVE",
"583 225 LINE SMOOTH",
"583 142 OFFCURVE",
"538 91 OFFCURVE",
"464 91 CURVE SMOOTH"
);
}
);
width = 974;
}
);
unicode = 0040;
},
{
color = 6;
glyphname = ampersand;
lastChange = "2023-09-29 08:46:29 +0000";
layers = (
{
layerId = m01;
paths = (
{
closed = 1;
nodes = (
"650 0 LINE",
"272 394 LINE",
"204 458 OFFCURVE",
"184 501 OFFCURVE",
"184 540 CURVE SMOOTH",
"184 601 OFFCURVE",
"225 637 OFFCURVE",
"283 637 CURVE SMOOTH",
"341 637 OFFCURVE",
"382 601 OFFCURVE",
"382 542 CURVE SMOOTH",
"382 487 OFFCURVE",
"353 448 OFFCURVE",
"262 392 CURVE",
"304 342 LINE",
"429 407 OFFCURVE",
"475 463 OFFCURVE",
"475 543 CURVE SMOOTH",
"475 645 OFFCURVE",
"397 710 OFFCURVE",
"283 710 CURVE SMOOTH",
"171 710 OFFCURVE",
"89 643 OFFCURVE",
"89 542 CURVE SMOOTH",
"89 485 OFFCURVE",
"111 444 OFFCURVE",
"196 355 CURVE SMOOTH",
"535 0 LINE"
);
},
{
closed = 1;
nodes = (
"464 -10 OFFCURVE",
"553 152 OFFCURVE",
"632 390 CURVE",
"542 390 LINE",
"491 206 OFFCURVE",
"413 63 OFFCURVE",
"272 63 CURVE SMOOTH",
"194 63 OFFCURVE",
"146 110 OFFCURVE",
"146 180 CURVE SMOOTH",
"146 242 OFFCURVE",
"182 288 OFFCURVE",
"254 321 CURVE",
"210 372 LINE",
"109 334 OFFCURVE",
"51 265 OFFCURVE",
"51 177 CURVE SMOOTH",
"51 68 OFFCURVE",
"140 -10 OFFCURVE",
"269 -10 CURVE SMOOTH"
);
}
);
width = 662;
},
{
associatedMasterId = m01;
layerId = "9A65B710-8127-489D-843C-AC753DC27117";
name = "Nov 19 21, 12:12";
paths = (
{
closed = 1;
nodes = (
"178 369 LINE",
"77 334 OFFCURVE",
"19 265 OFFCURVE",
"19 177 CURVE SMOOTH",
"19 68 OFFCURVE",
"108 -10 OFFCURVE",
"232 -10 CURVE SMOOTH",
"313 -10 OFFCURVE",
"378 24 OFFCURVE",
"434 100 CURVE",
"374 153 LINE",
"331 90 OFFCURVE",
"290 63 OFFCURVE",
"235 63 CURVE SMOOTH",
"162 63 OFFCURVE",
"114 110 OFFCURVE",
"114 180 CURVE SMOOTH",
"114 242 OFFCURVE",
"150 288 OFFCURVE",
"222 318 CURVE"
);
},
{
closed = 1;
nodes = (
"164 355 CURVE SMOOTH",
"503 0 LINE",
"618 0 LINE",
"240 394 LINE",
"172 458 OFFCURVE",
"152 501 OFFCURVE",
"152 540 CURVE SMOOTH",
"152 601 OFFCURVE",
"193 637 OFFCURVE",
"251 637 CURVE SMOOTH",
"309 637 OFFCURVE",
"350 601 OFFCURVE",
"350 542 CURVE SMOOTH",
"350 487 OFFCURVE",
"321 448 OFFCURVE",
"230 392 CURVE",
"272 342 LINE",
"397 407 OFFCURVE",
"443 463 OFFCURVE",
"443 543 CURVE SMOOTH",
"443 645 OFFCURVE",
"365 710 OFFCURVE",
"251 710 CURVE SMOOTH",
"139 710 OFFCURVE",
"57 643 OFFCURVE",
"57 542 CURVE SMOOTH",
"57 485 OFFCURVE",
"79 444 OFFCURVE"
);
},
{
closed = 1;
nodes = (
"622 390 LINE",
"525 390 LINE",
"388 163 LINE",
"444 110 LINE"
);
}
);
width = 632;
},
{
associatedMasterId = m01;
layerId = "38C034B6-008C-4147-B23D-B5E5D732F65D";
name = "Nov 19 21, 15:37";
paths = (
{
closed = 1;
nodes = (
"57 485 OFFCURVE",
"79 444 OFFCURVE",
"164 355 CURVE SMOOTH",
"503 0 LINE",
"618 0 LINE",
"240 394 LINE",
"172 458 OFFCURVE",
"152 501 OFFCURVE",
"152 540 CURVE SMOOTH",
"152 601 OFFCURVE",
"193 637 OFFCURVE",
"251 637 CURVE SMOOTH",
"309 637 OFFCURVE",
"350 601 OFFCURVE",
"350 542 CURVE SMOOTH",
"350 487 OFFCURVE",
"321 448 OFFCURVE",
"230 392 CURVE",
"272 342 LINE",
"397 407 OFFCURVE",
"443 463 OFFCURVE",
"443 543 CURVE SMOOTH",
"443 645 OFFCURVE",
"365 710 OFFCURVE",
"251 710 CURVE SMOOTH",
"139 710 OFFCURVE",
"57 643 OFFCURVE",
"57 542 CURVE SMOOTH"
);
},
{
closed = 1;
nodes = (
"580 142 OFFCURVE",
"580 390 CURVE",
"494 360 LINE",
"494 186 OFFCURVE",
"421 63 OFFCURVE",
"260 63 CURVE SMOOTH",
"162 63 OFFCURVE",
"114 110 OFFCURVE",
"114 180 CURVE SMOOTH",
"114 242 OFFCURVE",
"150 288 OFFCURVE",
"222 321 CURVE",
"178 372 LINE",
"77 334 OFFCURVE",
"19 265 OFFCURVE",
"19 177 CURVE SMOOTH",
"19 68 OFFCURVE",
"108 -10 OFFCURVE",
"237 -10 CURVE SMOOTH",
"452 -10 OFFCURVE"
);
},
{
closed = 1;
nodes = (
"494 360 LINE",
"580 390 LINE",
"580 411 LINE",
"494 411 LINE"
);
}
);
width = 632;
}
);
unicode = 0026;
},
{
color = 6;
glyphname = paragraph;
lastChange = "2023-09-29 08:46:29 +0000";
layers = (
{
layerId = m01;
paths = (
{
closed = 1;
nodes = (
"322 321 LINE",
"322 700 LINE",
"238 700 LINE SMOOTH",
"116 700 OFFCURVE",
"18 642 OFFCURVE",
"18 516 CURVE SMOOTH",
"18 386 OFFCURVE",
"116 321 OFFCURVE",
"226 321 CURVE SMOOTH"
);
},
{
closed = 1;
nodes = (
"332 -150 LINE",
"332 700 LINE",
"251 700 LINE",
"251 -150 LINE"
);
},
{
closed = 1;
nodes = (
"488 -150 LINE",
"488 700 LINE",
"407 700 LINE",
"407 -150 LINE"
);
},
{
closed = 1;
nodes = (
"564 628 LINE",
"564 700 LINE",
"277 700 LINE",
"277 628 LINE"
);
}
);
width = 600;
}
);
unicode = 00B6;
},
{
color = 6;
glyphname = section;
lastChange = "2023-09-29 08:46:29 +0000";
layers = (
{
layerId = m01;
paths = (
{
closed = 1;
nodes = (
"431 152 OFFCURVE",
"474 206 OFFCURVE",
"474 274 CURVE SMOOTH",
"474 344 OFFCURVE",
"430 401 OFFCURVE",
"357 427 CURVE SMOOTH",
"220 476 LINE SMOOTH",
"173 493 OFFCURVE",
"155 516 OFFCURVE",
"155 557 CURVE SMOOTH",
"155 605 OFFCURVE",
"193 635 OFFCURVE",
"256 635 CURVE SMOOTH",
"325 635 OFFCURVE",
"359 606 OFFCURVE",
"374 534 CURVE",
"464 534 LINE",
"456 648 OFFCURVE",
"385 710 OFFCURVE",
"262 710 CURVE SMOOTH",
"145 710 OFFCURVE",
"63 643 OFFCURVE",
"63 547 CURVE SMOOTH",
"63 476 OFFCURVE",
"101 426 OFFCURVE",
"175 400 CURVE SMOOTH",
"306 354 LINE SMOOTH",
"358 336 OFFCURVE",
"384 307 OFFCURVE",
"384 265 CURVE SMOOTH",
"384 219 OFFCURVE",
"356 184 OFFCURVE",
"309 169 CURVE",
"356 128 LINE"
);
},
{
closed = 1;
nodes = (
"382 -150 OFFCURVE",
"464 -83 OFFCURVE",
"464 13 CURVE SMOOTH",
"464 84 OFFCURVE",
"426 134 OFFCURVE",
"352 160 CURVE SMOOTH",
"221 206 LINE SMOOTH",
"169 224 OFFCURVE",
"143 253 OFFCURVE",
"143 295 CURVE SMOOTH",
"143 341 OFFCURVE",
"171 376 OFFCURVE",
"218 391 CURVE",
"171 432 LINE",
"96 408 OFFCURVE",
"53 354 OFFCURVE",
"53 286 CURVE SMOOTH",
"53 217 OFFCURVE",
"97 159 OFFCURVE",
"170 133 CURVE SMOOTH",
"307 84 LINE SMOOTH",
"354 67 OFFCURVE",
"372 44 OFFCURVE",
"372 3 CURVE SMOOTH",
"372 -45 OFFCURVE",
"334 -75 OFFCURVE",
"271 -75 CURVE SMOOTH",
"202 -75 OFFCURVE",
"168 -46 OFFCURVE",
"153 26 CURVE",
"63 26 LINE",
"71 -88 OFFCURVE",
"142 -150 OFFCURVE",
"265 -150 CURVE SMOOTH"
);
}
);
width = 526;
},
{
associatedMasterId = m01;
layerId = "67FB9386-9F46-4FBE-8CB7-4ED2BCF6862A";
name = "18 Nov 21, 13:38";
paths = (
{
closed = 1;
nodes = (
"415 142 OFFCURVE",
"486 201 OFFCURVE",
"486 282 CURVE SMOOTH",
"486 353 OFFCURVE",
"442 404 OFFCURVE",
"351 437 CURVE SMOOTH",
"253 473 LINE SMOOTH",
"199 492 OFFCURVE",
"179 515 OFFCURVE",
"179 557 CURVE SMOOTH",
"179 605 OFFCURVE",
"217 635 OFFCURVE",
"280 635 CURVE SMOOTH",
"349 635 OFFCURVE",
"383 606 OFFCURVE",
"398 534 CURVE",
"488 534 LINE",
"480 648 OFFCURVE",
"409 710 OFFCURVE",
"286 710 CURVE SMOOTH",
"169 710 OFFCURVE",
"87 643 OFFCURVE",
"87 547 CURVE SMOOTH",
"87 477 OFFCURVE",
"124 429 OFFCURVE",
"199 402 CURVE SMOOTH",
"318 360 LINE SMOOTH",
"371 342 OFFCURVE",
"396 313 OFFCURVE",
"396 271 CURVE SMOOTH",
"396 216 OFFCURVE",
"356 183 OFFCURVE",
"291 183 CURVE",
"318 142 LINE"
);
},
{
closed = 1;
nodes = (
"160 418 OFFCURVE",
"89 359 OFFCURVE",
"89 278 CURVE SMOOTH",
"89 207 OFFCURVE",
"133 156 OFFCURVE",
"224 123 CURVE SMOOTH",
"331 84 LINE SMOOTH",
"378 67 OFFCURVE",
"396 44 OFFCURVE",
"396 3 CURVE SMOOTH",
"396 -45 OFFCURVE",
"358 -75 OFFCURVE",
"295 -75 CURVE SMOOTH",
"226 -75 OFFCURVE",
"192 -46 OFFCURVE",
"177 26 CURVE",
"87 26 LINE",
"95 -88 OFFCURVE",
"166 -150 OFFCURVE",
"289 -150 CURVE SMOOTH",
"406 -150 OFFCURVE",
"488 -83 OFFCURVE",
"488 13 CURVE SMOOTH",
"488 83 OFFCURVE",
"451 131 OFFCURVE",
"376 158 CURVE SMOOTH",
"257 200 LINE SMOOTH",
"204 218 OFFCURVE",
"179 247 OFFCURVE",
"179 289 CURVE SMOOTH",
"179 344 OFFCURVE",
"219 377 OFFCURVE",
"284 377 CURVE",
"257 418 LINE"
);
}
);
width = 567;
}
);
unicode = 00A7;
},
{
color = 6;
glyphname = copyright;
lastChange = "2023-09-29 08:46:29 +0000";
layers = (
{
background = {
paths = (
{
closed = 1;
nodes = (
"477 161 OFFCURVE",
"548 210 OFFCURVE",
"550 290 CURVE",
"499 290 LINE",
"495 226 OFFCURVE",
"449 201 OFFCURVE",
"398 201 CURVE SMOOTH",
"320 201 OFFCURVE",
"277 259 OFFCURVE",
"277 353 CURVE SMOOTH",
"277 449 OFFCURVE",
"323 505 OFFCURVE",
"400 505 CURVE SMOOTH",
"450 505 OFFCURVE",
"495 481 OFFCURVE",
"499 423 CURVE",
"550 423 LINE",
"547 498 OFFCURVE",
"489 545 OFFCURVE",
"402 545 CURVE SMOOTH",
"290 545 OFFCURVE",
"225 464 OFFCURVE",
"225 353 CURVE SMOOTH",
"225 243 OFFCURVE",
"287 161 OFFCURVE",
"398 161 CURVE SMOOTH"
);
}
);
};
layerId = m01;
paths = (
{
closed = 1;
nodes = (
"625 -10 OFFCURVE",
"775 140 OFFCURVE",
"775 351 CURVE SMOOTH",
"775 560 OFFCURVE",
"625 710 OFFCURVE",
"416 710 CURVE SMOOTH",
"207 710 OFFCURVE",
"57 560 OFFCURVE",
"57 351 CURVE SMOOTH",
"57 140 OFFCURVE",
"207 -10 OFFCURVE",
"416 -10 CURVE SMOOTH"
);
},
{
closed = 1;
nodes = (
"246 51 OFFCURVE",
"124 177 OFFCURVE",
"124 351 CURVE SMOOTH",
"124 526 OFFCURVE",
"246 649 OFFCURVE",
"416 649 CURVE SMOOTH",
"586 649 OFFCURVE",
"708 526 OFFCURVE",
"708 351 CURVE SMOOTH",
"708 177 OFFCURVE",
"586 51 OFFCURVE",
"416 51 CURVE SMOOTH"
);
},
{
closed = 1;
nodes = (
"497 161 OFFCURVE",
"568 210 OFFCURVE",
"570 300 CURVE",
"501 300 LINE",
"498 247 OFFCURVE",
"459 224 OFFCURVE",
"419 224 CURVE SMOOTH",
"356 224 OFFCURVE",
"320 272 OFFCURVE",
"320 353 CURVE SMOOTH",
"320 435 OFFCURVE",
"359 482 OFFCURVE",
"421 482 CURVE SMOOTH",
"460 482 OFFCURVE",
"498 460 OFFCURVE",
"501 412 CURVE",
"570 412 LINE",
"567 498 OFFCURVE",
"509 545 OFFCURVE",
"422 545 CURVE SMOOTH",
"310 545 OFFCURVE",
"245 464 OFFCURVE",
"245 353 CURVE SMOOTH",
"245 243 OFFCURVE",
"307 161 OFFCURVE",
"418 161 CURVE SMOOTH"
);
}
);
width = 832;
},
{
associatedMasterId = m01;
layerId = "05666E31-EF08-471C-8685-F7381010988C";
name = "Dec 7 21, 14:53";
paths = (
{
closed = 1;
nodes = (
"611 -10 OFFCURVE",
"761 140 OFFCURVE",
"761 351 CURVE SMOOTH",
"761 560 OFFCURVE",
"611 710 OFFCURVE",
"402 710 CURVE SMOOTH",
"193 710 OFFCURVE",
"43 560 OFFCURVE",
"43 351 CURVE SMOOTH",
"43 140 OFFCURVE",
"193 -10 OFFCURVE",
"402 -10 CURVE SMOOTH"
);
},
{
closed = 1;
nodes = (
"225 39 OFFCURVE",
"98 170 OFFCURVE",
"98 351 CURVE SMOOTH",
"98 533 OFFCURVE",
"225 661 OFFCURVE",
"402 661 CURVE SMOOTH",
"579 661 OFFCURVE",
"706 533 OFFCURVE",
"706 351 CURVE SMOOTH",
"706 170 OFFCURVE",
"579 39 OFFCURVE",
"402 39 CURVE SMOOTH"
);
},
{
closed = 1;
nodes = (
"477 161 OFFCURVE",
"548 210 OFFCURVE",
"550 290 CURVE",
"499 290 LINE",
"495 226 OFFCURVE",
"449 201 OFFCURVE",
"398 201 CURVE SMOOTH",
"320 201 OFFCURVE",
"277 259 OFFCURVE",
"277 353 CURVE SMOOTH",
"277 449 OFFCURVE",
"323 505 OFFCURVE",
"400 505 CURVE SMOOTH",
"450 505 OFFCURVE",
"495 481 OFFCURVE",
"499 423 CURVE",
"550 423 LINE",
"547 498 OFFCURVE",
"489 545 OFFCURVE",
"402 545 CURVE SMOOTH",
"290 545 OFFCURVE",
"225 464 OFFCURVE",
"225 353 CURVE SMOOTH",
"225 243 OFFCURVE",
"287 161 OFFCURVE",
"398 161 CURVE SMOOTH"
);
}
);
width = 804;
}
);
leftKerningGroup = copyright;
rightKerningGroup = copyright;
unicode = 00A9;
},
{
color = 6;
glyphname = registered;
lastChange = "2023-09-29 08:46:29 +0000";
layers = (
{
layerId = m01;
paths = (
{
closed = 1;
nodes = (
"625 -10 OFFCURVE",
"775 140 OFFCURVE",
"775 351 CURVE SMOOTH",
"775 560 OFFCURVE",
"625 710 OFFCURVE",
"416 710 CURVE SMOOTH",
"207 710 OFFCURVE",
"57 560 OFFCURVE",
"57 351 CURVE SMOOTH",
"57 140 OFFCURVE",
"207 -10 OFFCURVE",
"416 -10 CURVE SMOOTH"
);
},
{
closed = 1;
nodes = (
"246 51 OFFCURVE",
"124 177 OFFCURVE",
"124 351 CURVE SMOOTH",
"124 526 OFFCURVE",
"246 649 OFFCURVE",
"416 649 CURVE SMOOTH",
"586 649 OFFCURVE",
"708 526 OFFCURVE",
"708 351 CURVE SMOOTH",
"708 177 OFFCURVE",
"586 51 OFFCURVE",
"416 51 CURVE SMOOTH"
);
},
{
closed = 1;
nodes = (
"357 164 LINE",
"357 320 LINE",
"370 320 LINE SMOOTH",
"450 320 OFFCURVE",
"470 286 OFFCURVE",
"484 179 CURVE SMOOTH",
"486 164 LINE",
"557 164 LINE",
"555 179 LINE SMOOTH",
"540 295 OFFCURVE",
"509 337 OFFCURVE",
"442 356 CURVE",
"446 340 LINE",
"514 344 OFFCURVE",
"557 383 OFFCURVE",
"557 443 CURVE SMOOTH",
"557 507 OFFCURVE",
"512 542 OFFCURVE",
"428 542 CURVE SMOOTH",
"287 542 LINE",
"287 164 LINE"
);
},
{
closed = 1;
nodes = (
"357 484 LINE",
"412 484 LINE SMOOTH",
"471 484 OFFCURVE",
"486 465 OFFCURVE",
"486 431 CURVE SMOOTH",
"486 400 OFFCURVE",
"469 377 OFFCURVE",
"417 377 CURVE SMOOTH",
"357 377 LINE"
);
}
);
width = 832;
}
);
leftKerningGroup = copyright;
rightKerningGroup = copyright;
unicode = 00AE;
},
{
color = 6;
glyphname = trademark;
lastChange = "2023-09-29 08:46:29 +0000";
layers = (
{
layerId = m01;
paths = (
{
closed = 1;
nodes = (
"221 262 LINE",
"221 700 LINE",
"151 700 LINE",
"151 262 LINE"
);
},
{
closed = 1;
nodes = (
"355 642 LINE",
"355 700 LINE",
"17 700 LINE",
"17 642 LINE"
);
},
{
closed = 1;
nodes = (
"483 262 LINE",
"483 646 LINE",
"596 262 LINE",
"685 262 LINE",
"804 646 LINE",
"804 262 LINE",
"870 262 LINE",
"870 700 LINE",
"762 700 LINE",
"638 304 LINE",
"644 304 LINE",
"527 700 LINE",
"418 700 LINE",
"418 262 LINE"
);
}
);
width = 945;
}
);
unicode = 2122;
},
{
color = 6;
glyphname = degree;
lastChange = "2023-09-29 08:46:29 +0000";
layers = (
{
layerId = m01;
paths = (
{
closed = 1;
nodes = (
"302 402 OFFCURVE",
"369 469 OFFCURVE",
"369 558 CURVE SMOOTH",
"369 646 OFFCURVE",
"304 710 OFFCURVE",
"213 710 CURVE SMOOTH",
"122 710 OFFCURVE",
"57 646 OFFCURVE",
"57 558 CURVE SMOOTH",
"57 469 OFFCURVE",
"124 402 OFFCURVE",
"213 402 CURVE SMOOTH"
);
},
{
closed = 1;
nodes = (
"162 467 OFFCURVE",
"128 503 OFFCURVE",
"128 556 CURVE SMOOTH",
"128 609 OFFCURVE",
"163 645 OFFCURVE",
"213 645 CURVE SMOOTH",
"263 645 OFFCURVE",
"298 609 OFFCURVE",
"298 556 CURVE SMOOTH",
"298 503 OFFCURVE",
"264 467 OFFCURVE",
"213 467 CURVE SMOOTH"
);
}
);
width = 426;
}
);
unicode = 00B0;
},
{
color = 6;
glyphname = bar;
lastChange = "2023-09-29 08:46:29 +0000";
layers = (
{
layerId = m01;
paths = (
{
closed = 1;
nodes = (
"180 -150 LINE",
"180 760 LINE",
"90 760 LINE",
"90 -150 LINE"
);
}
);
width = 270;
}
);
leftKerningGroup = bar;
rightKerningGroup = bar;
unicode = 007C;
},
{
color = 6;
glyphname = brokenbar;
lastChange = "2023-09-29 08:46:29 +0000";
layers = (
{
layerId = m01;
paths = (
{
closed = 1;
nodes = (
"180 380 LINE",
"180 760 LINE",
"90 760 LINE",
"90 380 LINE"
);
},
{
closed = 1;
nodes = (
"180 -150 LINE",
"180 230 LINE",
"90 230 LINE",
"90 -150 LINE"
);
}
);
width = 270;
}
);
leftKerningGroup = bar;
rightKerningGroup = bar;
unicode = 00A6;
},
{
color = 6;
glyphname = dagger;
lastChange = "2023-09-29 08:46:29 +0000";
layers = (
{
layerId = m01;
paths = (
{
closed = 1;
nodes = (
"341 -150 LINE",
"341 760 LINE",
"251 760 LINE",
"251 -150 LINE"
);
},
{
closed = 1;
nodes = (
"565 416 LINE",
"565 488 LINE",
"27 488 LINE",
"27 416 LINE"
);
}
);
width = 592;
}
);
unicode = 2020;
},
{
color = 6;
glyphname = daggerdbl;
lastChange = "2023-09-29 08:46:29 +0000";
layers = (
{
layerId = m01;
paths = (
{
closed = 1;
nodes = (
"367 -150 LINE",
"367 760 LINE",
"277 760 LINE",
"277 -150 LINE"
);
},
{
closed = 1;
nodes = (
"591 124 LINE",
"591 196 LINE",
"53 196 LINE",
"53 124 LINE"
);
},
{
closed = 1;
nodes = (
"591 416 LINE",
"591 488 LINE",
"53 488 LINE",
"53 416 LINE"
);
}
);
width = 644;
}
);
unicode = 2021;
},
{
color = 6;
glyphname = copyright.sup;
lastChange = "2023-09-29 08:46:29 +0000";
layers = (
{
background = {
paths = (
{
closed = 1;
nodes = (
"364 468 OFFCURVE",
"446 549 OFFCURVE",
"446 663 CURVE SMOOTH",
"446 775 OFFCURVE",
"364 856 OFFCURVE",
"251 856 CURVE SMOOTH",
"138 856 OFFCURVE",
"56 775 OFFCURVE",
"56 663 CURVE SMOOTH",
"56 549 OFFCURVE",
"138 468 OFFCURVE",
"251 468 CURVE SMOOTH"
);
},
{
closed = 1;
nodes = (
"156 496 OFFCURVE",
"87 566 OFFCURVE",
"87 663 CURVE SMOOTH",
"87 760 OFFCURVE",
"156 828 OFFCURVE",
"251 828 CURVE SMOOTH",
"346 828 OFFCURVE",
"415 760 OFFCURVE",
"415 663 CURVE SMOOTH",
"415 566 OFFCURVE",
"346 496 OFFCURVE",
"251 496 CURVE SMOOTH"
);
},
{
closed = 1;
nodes = (
"273 560 OFFCURVE",
"296 564 OFFCURVE",
"327 575 CURVE",
"327 633 LINE",
"312 633 LINE",
"300 590 OFFCURVE",
"280 582 OFFCURVE",
"258 582 CURVE SMOOTH",
"211 582 OFFCURVE",
"186 620 OFFCURVE",
"186 668 CURVE SMOOTH",
"186 715 OFFCURVE",
"211 745 OFFCURVE",
"254 745 CURVE SMOOTH",
"287 745 OFFCURVE",
"304 728 OFFCURVE",
"315 702 CURVE",
"330 702 LINE",
"330 750 LINE",
"309 759 OFFCURVE",
"286 767 OFFCURVE",
"258 767 CURVE SMOOTH",
"190 767 OFFCURVE",
"142 719 OFFCURVE",
"142 661 CURVE SMOOTH",
"142 603 OFFCURVE",
"186 560 OFFCURVE",
"253 560 CURVE SMOOTH"
);
}
);
};
layerId = m01;
paths = (
{
closed = 1;
nodes = (
"364 468 OFFCURVE",
"446 549 OFFCURVE",
"446 663 CURVE SMOOTH",
"446 775 OFFCURVE",
"364 856 OFFCURVE",
"251 856 CURVE SMOOTH",
"138 856 OFFCURVE",
"56 775 OFFCURVE",
"56 663 CURVE SMOOTH",
"56 549 OFFCURVE",
"138 468 OFFCURVE",
"251 468 CURVE SMOOTH"
);
},
{
closed = 1;
nodes = (
"161 504 OFFCURVE",
"97 571 OFFCURVE",
"97 663 CURVE SMOOTH",
"97 755 OFFCURVE",
"161 820 OFFCURVE",
"251 820 CURVE SMOOTH",
"341 820 OFFCURVE",
"405 755 OFFCURVE",
"405 663 CURVE SMOOTH",
"405 571 OFFCURVE",
"341 504 OFFCURVE",
"251 504 CURVE SMOOTH"
);
},
{
closed = 1;
nodes = (
"295 560 OFFCURVE",
"333 589 OFFCURVE",
"334 637 CURVE",
"297 637 LINE",
"295 609 OFFCURVE",
"274 596 OFFCURVE",
"253 596 CURVE SMOOTH",
"219 596 OFFCURVE",
"200 620 OFFCURVE",
"200 664 CURVE SMOOTH",
"200 708 OFFCURVE",
"220 731 OFFCURVE",
"254 731 CURVE SMOOTH",
"275 731 OFFCURVE",
"295 719 OFFCURVE",
"297 694 CURVE",
"334 694 LINE",
"332 740 OFFCURVE",
"300 767 OFFCURVE",
"253 767 CURVE SMOOTH",
"193 767 OFFCURVE",
"158 724 OFFCURVE",
"158 664 CURVE SMOOTH",
"158 605 OFFCURVE",
"192 560 OFFCURVE",
"252 560 CURVE SMOOTH"
);
}
);
width = 502;
}
);
},
{
color = 6;
glyphname = registered.sup;
lastChange = "2023-09-29 08:46:29 +0000";
layers = (
{
background = {
paths = (
{
closed = 1;
nodes = (
"255 562 LINE",
"255 577 LINE",
"242 578 LINE SMOOTH",
"229 579 OFFCURVE",
"225 584 OFFCURVE",
"225 597 CURVE SMOOTH",
"225 654 LINE",
"239 654 LINE SMOOTH",
"272 654 OFFCURVE",
"281 631 OFFCURVE",
"289 588 CURVE SMOOTH",
"293 570 OFFCURVE",
"297 562 OFFCURVE",
"316 562 CURVE SMOOTH",
"349 562 LINE",
"349 577 LINE",
"344 577 LINE SMOOTH",
"335 577 OFFCURVE",
"331 583 OFFCURVE",
"330 594 CURVE SMOOTH",
"324 634 OFFCURVE",
"311 654 OFFCURVE",
"276 663 CURVE",
"319 670 OFFCURVE",
"331 694 OFFCURVE",
"331 715 CURVE SMOOTH",
"331 748 OFFCURVE",
"307 765 OFFCURVE",
"257 765 CURVE SMOOTH",
"157 765 LINE",
"157 750 LINE",
"169 749 LINE SMOOTH",
"182 748 OFFCURVE",
"186 743 OFFCURVE",
"186 730 CURVE SMOOTH",
"186 597 LINE SMOOTH",
"186 584 OFFCURVE",
"182 579 OFFCURVE",
"169 578 CURVE SMOOTH",
"157 577 LINE",
"157 562 LINE"
);
},
{
closed = 1;
nodes = (
"225 735 LINE SMOOTH",
"225 742 OFFCURVE",
"232 745 OFFCURVE",
"253 745 CURVE SMOOTH",
"276 745 OFFCURVE",
"291 731 OFFCURVE",
"291 712 CURVE SMOOTH",
"291 687 OFFCURVE",
"272 675 OFFCURVE",
"247 675 CURVE SMOOTH",
"225 675 LINE"
);
},
{
closed = 1;
nodes = (
"364 468 OFFCURVE",
"446 549 OFFCURVE",
"446 663 CURVE SMOOTH",
"446 775 OFFCURVE",
"364 856 OFFCURVE",
"251 856 CURVE SMOOTH",
"138 856 OFFCURVE",
"56 775 OFFCURVE",
"56 663 CURVE SMOOTH",
"56 549 OFFCURVE",
"138 468 OFFCURVE",
"251 468 CURVE SMOOTH"
);
},
{
closed = 1;
nodes = (
"156 496 OFFCURVE",
"87 566 OFFCURVE",
"87 663 CURVE SMOOTH",
"87 760 OFFCURVE",
"156 828 OFFCURVE",
"251 828 CURVE SMOOTH",
"346 828 OFFCURVE",
"415 760 OFFCURVE",
"415 663 CURVE SMOOTH",
"415 566 OFFCURVE",
"346 496 OFFCURVE",
"251 496 CURVE SMOOTH"
);
}
);
};
layerId = m01;
paths = (
{
closed = 1;
nodes = (
"220 562 LINE",
"220 645 LINE",
"226 645 LINE SMOOTH",
"269 645 OFFCURVE",
"279 627 OFFCURVE",
"286 570 CURVE SMOOTH",
"287 562 LINE",
"327 562 LINE",
"326 570 LINE SMOOTH",
"318 632 OFFCURVE",
"301 655 OFFCURVE",
"265 665 CURVE",
"267 657 LINE",
"304 659 OFFCURVE",
"327 676 OFFCURVE",
"327 709 CURVE SMOOTH",
"327 744 OFFCURVE",
"303 765 OFFCURVE",
"257 765 CURVE SMOOTH",
"181 765 LINE",
"181 562 LINE"
);
},
{
closed = 1;
nodes = (
"220 732 LINE",
"249 732 LINE SMOOTH",
"279 732 OFFCURVE",
"287 724 OFFCURVE",
"287 706 CURVE SMOOTH",
"287 689 OFFCURVE",
"278 677 OFFCURVE",
"252 677 CURVE SMOOTH",
"220 677 LINE"
);
},
{
closed = 1;
nodes = (
"364 468 OFFCURVE",
"446 549 OFFCURVE",
"446 663 CURVE SMOOTH",
"446 775 OFFCURVE",
"364 856 OFFCURVE",
"251 856 CURVE SMOOTH",
"138 856 OFFCURVE",
"56 775 OFFCURVE",
"56 663 CURVE SMOOTH",
"56 549 OFFCURVE",
"138 468 OFFCURVE",
"251 468 CURVE SMOOTH"
);
},
{
closed = 1;
nodes = (
"161 504 OFFCURVE",
"97 571 OFFCURVE",
"97 663 CURVE SMOOTH",
"97 755 OFFCURVE",
"161 820 OFFCURVE",
"251 820 CURVE SMOOTH",
"341 820 OFFCURVE",
"405 755 OFFCURVE",
"405 663 CURVE SMOOTH",
"405 571 OFFCURVE",
"341 504 OFFCURVE",
"251 504 CURVE SMOOTH"
);
}
);
width = 502;
}
);
},
{
color = 6;
glyphname = trademark.sup;
lastChange = "2023-09-29 08:46:29 +0000";
layers = (
{
guideLines = (
{
position = "{507, 765}";
},
{
position = "{514, 562}";
},
{
position = "{507, 732}";
}
);
layerId = m01;
paths = (
{
closed = 1;
nodes = (
"157 562 LINE",
"157 765 LINE",
"118 765 LINE",
"118 562 LINE"
);
},
{
closed = 1;
nodes = (
"219 732 LINE",
"219 765 LINE",
"56 765 LINE",
"56 732 LINE"
);
},
{
closed = 1;
nodes = (
"281 562 LINE",
"281 730 LINE",
"327 562 LINE",
"376 562 LINE",
"426 730 LINE",
"426 562 LINE",
"462 562 LINE",
"462 765 LINE",
"402 765 LINE",
"351 591 LINE",
"353 591 LINE",
"305 765 LINE",
"245 765 LINE",
"245 562 LINE"
);
}
);
width = 518;
}
);
},
{
color = 6;
glyphname = H.circled;
lastChange = "2023-09-29 08:46:29 +0000";
layers = (
{
anchors = (
{
name = bottom;
position = "{373, 0}";
},
{
name = center;
position = "{373, 350}";
},
{
name = top;
position = "{373, 700}";
},
{
name = topleft;
position = "{26, 700}";
}
);
layerId = m01;
paths = (
{
closed = 1;
nodes = (
"614 -10 OFFCURVE",
"774 150 OFFCURVE",
"774 351 CURVE SMOOTH",
"774 550 OFFCURVE",
"614 710 OFFCURVE",
"415 710 CURVE SMOOTH",
"216 710 OFFCURVE",
"56 550 OFFCURVE",
"56 351 CURVE SMOOTH",
"56 150 OFFCURVE",
"216 -10 OFFCURVE",
"415 -10 CURVE SMOOTH"
);
},
{
closed = 1;
nodes = (
"244 38 OFFCURVE",
"105 181 OFFCURVE",
"105 351 CURVE SMOOTH",
"105 522 OFFCURVE",
"244 662 OFFCURVE",
"415 662 CURVE SMOOTH",
"586 662 OFFCURVE",
"725 522 OFFCURVE",
"725 351 CURVE SMOOTH",
"725 181 OFFCURVE",
"586 38 OFFCURVE",
"415 38 CURVE SMOOTH"
);
},
{
closed = 1;
nodes = (
"308 154 LINE",
"308 328 LINE",
"522 328 LINE",
"522 154 LINE",
"570 154 LINE",
"570 547 LINE",
"522 547 LINE",
"522 376 LINE",
"308 376 LINE",
"308 547 LINE",
"260 547 LINE",
"260 154 LINE"
);
}
);
width = 830;
}
);
leftKerningGroup = copyright;
rightKerningGroup = copyright;
unicode = 24BD;
},
{
color = 6;
glyphname = H.circled.sup;
lastChange = "2023-09-29 08:46:29 +0000";
layers = (
{
layerId = m01;
paths = (
{
closed = 1;
nodes = (
"130 445 OFFCURVE",
"56 518 OFFCURVE",
"56 610 CURVE SMOOTH",
"56 702 OFFCURVE",
"130 775 OFFCURVE",
"221 775 CURVE SMOOTH",
"312 775 OFFCURVE",
"386 702 OFFCURVE",
"386 610 CURVE SMOOTH",
"386 518 OFFCURVE",
"312 445 OFFCURVE",
"221 445 CURVE SMOOTH"
);
},
{
closed = 1;
nodes = (
"300 467 OFFCURVE",
"363 532 OFFCURVE",
"363 610 CURVE SMOOTH",
"363 689 OFFCURVE",
"300 753 OFFCURVE",
"221 753 CURVE SMOOTH",
"143 753 OFFCURVE",
"79 689 OFFCURVE",
"79 610 CURVE SMOOTH",
"79 532 OFFCURVE",
"143 467 OFFCURVE",
"221 467 CURVE SMOOTH"
);
},
{
closed = 1;
nodes = (
"270 520 LINE",
"270 600 LINE",
"172 600 LINE",
"172 520 LINE",
"150 520 LINE",
"150 700 LINE",
"172 700 LINE",
"172 622 LINE",
"270 622 LINE",
"270 700 LINE",
"292 700 LINE",
"292 520 LINE"
);
}
);
width = 442;
}
);
},
{
color = 3;
glyphname = cent;
lastChange = "2023-09-29 08:46:29 +0000";
layers = (
{
background = {
paths = (
{
closed = 1;
nodes = (
"219 -149 LINE",
"344 669 LINE",
"301 669 LINE",
"176 -149 LINE"
);
}
);
};
components = (
{
name = c;
transform = "{1, 0, 0, 1, 10, 0}";
}
);
layerId = m01;
paths = (
{
closed = 1;
nodes = (
"326 -148 LINE",
"326 669 LINE",
"260 669 LINE",
"260 -148 LINE"
);
}
);
width = 559;
},
{
anchors = (
{
name = bottom;
position = "{294, 0}";
},
{
name = top;
position = "{282, 520}";
}
);
associatedMasterId = m01;
layerId = "8B4959F3-BBF8-4663-BC76-689692414A5A";
name = "10 Dec 21, 09:32";
paths = (
{
closed = 1;
nodes = (
"401 -10 OFFCURVE",
"501 58 OFFCURVE",
"504 170 CURVE",
"414 170 LINE",
"409 95 OFFCURVE",
"357 60 OFFCURVE",
"292 60 CURVE SMOOTH",
"187 60 OFFCURVE",
"141 141 OFFCURVE",
"141 260 CURVE SMOOTH",
"141 379 OFFCURVE",
"189 460 OFFCURVE",
"294 460 CURVE SMOOTH",
"358 460 OFFCURVE",
"409 427 OFFCURVE",
"413 357 CURVE",
"502 357 LINE",
"501 464 OFFCURVE",
"403 530 OFFCURVE",
"294 530 CURVE SMOOTH",
"135 530 OFFCURVE",
"46 416 OFFCURVE",
"46 260 CURVE SMOOTH",
"46 104 OFFCURVE",
"133 -10 OFFCURVE",
"292 -10 CURVE SMOOTH"
);
},
{
closed = 1;
nodes = (
"319 -110 LINE",
"319 630 LINE",
"253 630 LINE",
"253 -110 LINE"
);
}
);
width = 550;
}
);
unicode = 00A2;
},
{
color = 6;
glyphname = currency;
lastChange = "2023-09-29 08:46:29 +0000";
layers = (
{
guideLines = (
{
angle = 90;
position = "{310, 515}";
},
{
angle = 180;
position = "{135, 338}";
}
);
layerId = m01;
paths = (
{
closed = 1;
nodes = (
"430 125 OFFCURVE",
"522 215 OFFCURVE",
"522 338 CURVE SMOOTH",
"522 461 OFFCURVE",
"430 551 OFFCURVE",
"308 551 CURVE SMOOTH",
"185 551 OFFCURVE",
"93 461 OFFCURVE",
"93 338 CURVE SMOOTH",
"93 215 OFFCURVE",
"185 125 OFFCURVE",
"308 125 CURVE SMOOTH"
);
},
{
closed = 1;
nodes = (
"212 188 LINE",
"154 242 LINE",
"56 144 LINE",
"112 89 LINE"
);
},
{
closed = 1;
nodes = (
"212 488 LINE",
"112 587 LINE",
"56 532 LINE",
"154 434 LINE"
);
},
{
closed = 1;
nodes = (
"227 197 OFFCURVE",
"173 252 OFFCURVE",
"173 338 CURVE SMOOTH",
"173 424 OFFCURVE",
"227 479 OFFCURVE",
"308 479 CURVE SMOOTH",
"388 479 OFFCURVE",
"442 424 OFFCURVE",
"442 338 CURVE SMOOTH",
"442 252 OFFCURVE",
"388 197 OFFCURVE",
"308 197 CURVE SMOOTH"
);
},
{
closed = 1;
nodes = (
"560 144 LINE",
"462 242 LINE",
"404 188 LINE",
"504 89 LINE"
);
},
{
closed = 1;
nodes = (
"560 532 LINE",
"504 587 LINE",
"404 488 LINE",
"462 434 LINE"
);
}
);
width = 616;
}
);
unicode = 00A4;
},
{
color = 6;
glyphname = dollar;
lastChange = "2023-09-29 08:46:29 +0000";
layers = (
{
layerId = m01;
paths = (
{
closed = 1;
nodes = (
"421 -10 OFFCURVE",
"510 70 OFFCURVE",
"510 199 CURVE SMOOTH",
"510 294 OFFCURVE",
"454 352 OFFCURVE",
"337 382 CURVE SMOOTH",
"252 404 LINE SMOOTH",
"174 424 OFFCURVE",
"134 455 OFFCURVE",
"134 524 CURVE SMOOTH",
"134 598 OFFCURVE",
"183 640 OFFCURVE",
"269 640 CURVE SMOOTH",
"348 640 OFFCURVE",
"394 601 OFFCURVE",
"408 524 CURVE",
"498 524 LINE",
"490 641 OFFCURVE",
"406 710 OFFCURVE",
"271 710 CURVE SMOOTH",
"133 710 OFFCURVE",
"45 637 OFFCURVE",
"45 518 CURVE SMOOTH",
"45 419 OFFCURVE",
"105 359 OFFCURVE",
"210 331 CURVE SMOOTH",
"320 302 LINE SMOOTH",
"384 285 OFFCURVE",
"417 247 OFFCURVE",
"417 190 CURVE SMOOTH",
"417 111 OFFCURVE",
"364 60 OFFCURVE",
"278 60 CURVE SMOOTH",
"185 60 OFFCURVE",
"138 114 OFFCURVE",
"135 205 CURVE",
"42 205 LINE",
"48 64 OFFCURVE",
"133 -10 OFFCURVE",
"276 -10 CURVE SMOOTH"
);
},
{
closed = 1;
nodes = (
"306 -110 LINE",
"306 810 LINE",
"240 810 LINE",
"240 -110 LINE"
);
}
);
width = 547;
}
);
unicode = 0024;
},
{
color = 6;
glyphname = euro;
lastChange = "2023-09-29 08:46:29 +0000";
layers = (
{
layerId = m01;
paths = (
{
closed = 1;
nodes = (
"564 -10 OFFCURVE",
"659 86 OFFCURVE",
"663 230 CURVE",
"568 230 LINE",
"562 120 OFFCURVE",
"514 65 OFFCURVE",
"416 65 CURVE SMOOTH",
"300 65 OFFCURVE",
"249 146 OFFCURVE",
"249 350 CURVE SMOOTH",
"249 550 OFFCURVE",
"302 635 OFFCURVE",
"422 635 CURVE SMOOTH",
"514 635 OFFCURVE",
"563 583 OFFCURVE",
"568 480 CURVE",
"662 480 LINE",
"658 629 OFFCURVE",
"574 710 OFFCURVE",
"426 710 CURVE SMOOTH",
"247 710 OFFCURVE",
"154 587 OFFCURVE",
"154 350 CURVE SMOOTH",
"154 112 OFFCURVE",
"246 -10 OFFCURVE",
"416 -10 CURVE SMOOTH"
);
},
{
closed = 1;
nodes = (
"462 254 LINE",
"404 205 LINE",
"452 361 LINE",
"484 318 LINE",
"58 318 LINE",
"58 254 LINE"
);
},
{
closed = 1;
nodes = (
"506 386 LINE",
"447 343 LINE",
"498 499 LINE",
"529 450 LINE",
"58 450 LINE",
"58 386 LINE"
);
}
);
width = 717;
}
);
unicode = 20AC;
},
{
color = 6;
glyphname = sterling;
lastChange = "2023-09-29 08:46:29 +0000";
layers = (
{
guideLines = (
{
position = "{281, 480}";
}
);
layerId = m01;
paths = (
{
closed = 1;
nodes = (
"54 48 LINE SMOOTH",
"175 48 OFFCURVE",
"220 85 OFFCURVE",
"220 188 CURVE SMOOTH",
"220 489 LINE SMOOTH",
"220 589 OFFCURVE",
"261 638 OFFCURVE",
"340 638 CURVE SMOOTH",
"412 638 OFFCURVE",
"451 598 OFFCURVE",
"451 523 CURVE SMOOTH",
"451 480 LINE",
"541 480 LINE",
"541 523 LINE SMOOTH",
"541 639 OFFCURVE",
"465 710 OFFCURVE",
"340 710 CURVE SMOOTH",
"209 710 OFFCURVE",
"130 631 OFFCURVE",
"130 491 CURVE SMOOTH",
"130 185 LINE SMOOTH",
"130 120 OFFCURVE",
"109 78 OFFCURVE",
"48 68 CURVE SMOOTH",
"48 68 LINE",
"48 48 LINE"
);
},
{
closed = 1;
nodes = (
"541 0 LINE",
"541 72 LINE",
"129 72 LINE",
"48 68 LINE",
"48 0 LINE"
);
},
{
closed = 1;
nodes = (
"441 289 LINE",
"441 353 LINE",
"48 353 LINE",
"48 289 LINE"
);
}
);
width = 590;
},
{
associatedMasterId = m01;
layerId = "02318CC9-DA26-4FCD-B7A6-BBB04AF6D27E";
name = "18 Nov 21, 12:52";
paths = (
{
closed = 1;
nodes = (
"216 107 OFFCURVE",
"253 141 OFFCURVE",
"253 239 CURVE SMOOTH",
"253 343 OFFCURVE",
"119 407 OFFCURVE",
"119 519 CURVE SMOOTH",
"119 594 OFFCURVE",
"165 638 OFFCURVE",
"243 638 CURVE SMOOTH",
"319 638 OFFCURVE",
"364 597 OFFCURVE",
"370 523 CURVE",
"460 523 LINE",
"453 638 OFFCURVE",
"370 710 OFFCURVE",
"243 710 CURVE SMOOTH",
"112 710 OFFCURVE",
"24 634 OFFCURVE",
"24 521 CURVE SMOOTH",
"24 350 OFFCURVE",
"163 347 OFFCURVE",
"163 222 CURVE SMOOTH",
"163 146 OFFCURVE",
"113 112 OFFCURVE",
"24 72 CURVE",
"139 58 LINE"
);
},
{
closed = 1;
nodes = (
"460 0 LINE",
"460 72 LINE",
"24 72 LINE",
"24 0 LINE"
);
},
{
closed = 1;
nodes = (
"393 212 LINE",
"393 282 LINE",
"31 282 LINE",
"31 212 LINE"
);
}
);
width = 600;
},
{
associatedMasterId = m01;
guideLines = (
{
position = "{241, 480}";
}
);
layerId = "E1C4263C-AF2A-4EC8-A7D7-E362F7B2EEEB";
name = "18 Nov 21, 14:02";
paths = (
{
closed = 1;
nodes = (
"182 51 LINE",
"182 500 LINE SMOOTH",
"182 591 OFFCURVE",
"224 638 OFFCURVE",
"302 638 CURVE SMOOTH",
"373 638 OFFCURVE",
"413 599 OFFCURVE",
"413 523 CURVE SMOOTH",
"413 480 LINE",
"503 480 LINE",
"503 523 LINE SMOOTH",
"503 639 OFFCURVE",
"427 710 OFFCURVE",
"302 710 CURVE SMOOTH",
"173 710 OFFCURVE",
"92 634 OFFCURVE",
"92 502 CURVE SMOOTH",
"92 51 LINE"
);
},
{
closed = 1;
nodes = (
"503 0 LINE",
"503 72 LINE",
"10 72 LINE",
"10 0 LINE"
);
},
{
closed = 1;
nodes = (
"403 283 LINE",
"403 353 LINE",
"10 353 LINE",
"10 283 LINE"
);
}
);
width = 523;
}
);
unicode = 00A3;
},
{
color = 6;
glyphname = yen;
lastChange = "2023-09-29 08:46:29 +0000";
layers = (
{
background = {
components = (
{
name = Y;
transform = "{1, 0, 0, 1, -5, 0}";
}
);
};
layerId = m01;
paths = (
{
closed = 1;
nodes = (
"361 0 LINE",
"361 286 LINE",
"593 700 LINE",
"499 700 LINE",
"322 360 LINE",
"136 700 LINE",
"36 700 LINE",
"271 286 LINE",
"271 0 LINE"
);
},
{
closed = 1;
nodes = (
"253 364 LINE",
"253 428 LINE",
"65 428 LINE",
"65 364 LINE"
);
},
{
closed = 1;
nodes = (
"572 222 LINE",
"572 286 LINE",
"65 286 LINE",
"65 222 LINE"
);
},
{
closed = 1;
nodes = (
"572 364 LINE",
"572 428 LINE",
"397 428 LINE",
"397 364 LINE"
);
}
);
width = 633;
}
);
unicode = 00A5;
},
{
color = 6;
glyphname = plus;
lastChange = "2023-09-29 08:46:29 +0000";
layers = (
{
layerId = m01;
paths = (
{
closed = 1;
nodes = (
"327 97 LINE",
"327 565 LINE",
"251 565 LINE",
"251 97 LINE"
);
},
{
closed = 1;
nodes = (
"528 295 LINE",
"528 365 LINE",
"50 365 LINE",
"50 295 LINE"
);
}
);
width = 578;
}
);
unicode = 002B;
},
{
color = 6;
glyphname = minus;
lastChange = "2023-09-29 08:46:29 +0000";
layers = (
{
layerId = m01;
paths = (
{
closed = 1;
nodes = (
"528 295 LINE",
"528 365 LINE",
"50 365 LINE",
"50 295 LINE"
);
}
);
width = 578;
}
);
unicode = 2212;
},
{
color = 6;
glyphname = multiply;
lastChange = "2023-09-29 08:46:29 +0000";
layers = (
{
background = {
paths = (
{
closed = 1;
nodes = (
"92 479 LINE",
"140 527 LINE",
"486 181 LINE",
"438 133 LINE"
);
},
{
closed = 1;
nodes = (
"92 181 LINE",
"438 527 LINE",
"486 479 LINE",
"140 133 LINE"
);
}
);
};
guideLines = (
{
position = "{239, 528}";
},
{
angle = 90;
position = "{93, 383}";
},
{
angle = 90;
position = "{489, 415}";
},
{
position = "{439, 132}";
}
);
layerId = m01;
paths = (
{
closed = 1;
nodes = (
"289 282 LINE",
"438 133 LINE",
"486 181 LINE",
"337 330 LINE",
"486 479 LINE",
"438 527 LINE",
"289 378 LINE",
"140 527 LINE",
"92 479 LINE",
"241 330 LINE",
"92 181 LINE",
"140 133 LINE"
);
}
);
width = 578;
},
{
associatedMasterId = m01;
guideLines = (
{
position = "{239, 528}";
},
{
angle = 90;
position = "{93, 383}";
},
{
angle = 90;
position = "{489, 415}";
},
{
position = "{439, 132}";
}
);
layerId = "1CA74B70-3FD8-4F5F-976D-C429510EBC61";
name = "22 Dec 21, 12:06";
paths = (
{
closed = 1;
nodes = (
"92 479 LINE",
"140 527 LINE",
"486 181 LINE",
"438 133 LINE"
);
},
{
closed = 1;
nodes = (
"92 181 LINE",
"438 527 LINE",
"486 479 LINE",
"140 133 LINE"
);
}
);
width = 578;
}
);
unicode = 00D7;
},
{
color = 3;
glyphname = divide;
lastChange = "2023-09-29 08:46:29 +0000";
layers = (
{
components = (
{
name = period;
transform = "{0.9434, 0, 0, 0.9434, 188, 137}";
},
{
name = period;
transform = "{0.9434, 0, 0, 0.9434, 188, 437}";
}
);
layerId = m01;
paths = (
{
closed = 1;
nodes = (
"528 302 LINE",
"528 372 LINE",
"50 372 LINE",
"50 302 LINE"
);
}
);
width = 578;
}
);
unicode = 00F7;
},
{
color = 6;
glyphname = equal;
lastChange = "2023-09-29 08:46:29 +0000";
layers = (
{
layerId = m01;
paths = (
{
closed = 1;
nodes = (
"528 383 LINE",
"528 453 LINE",
"50 453 LINE",
"50 383 LINE"
);
},
{
closed = 1;
nodes = (
"528 206 LINE",
"528 276 LINE",
"50 276 LINE",
"50 206 LINE"
);
}
);
width = 578;
}
);
unicode = 003D;
},
{
color = 6;
glyphname = notequal;
lastChange = "2023-09-29 08:46:29 +0000";
layers = (
{
layerId = m01;
paths = (
{
closed = 1;
nodes = (
"197 95 LINE",
"457 565 LINE",
"385 565 LINE",
"125 95 LINE"
);
},
{
closed = 1;
nodes = (
"530 206 LINE",
"530 276 LINE",
"52 276 LINE",
"52 206 LINE"
);
},
{
closed = 1;
nodes = (
"530 383 LINE",
"530 453 LINE",
"52 453 LINE",
"52 383 LINE"
);
}
);
width = 578;
}
);
unicode = 2260;
},
